<?xml version="1.0" standalone="no"?>
<!DOCTYPE svg PUBLIC "-//W3C//DTD SVG 1.1//EN" "http://www.w3.org/Graphics/SVG/1.1/DTD/svg11.dtd" >
<svg xmlns="http://www.w3.org/2000/svg">
<metadata>Generated by IcoMoon</metadata>
<defs>
<font id="Temha-Icon" horiz-adv-x="1024">
<font-face units-per-em="1024" ascent="960" descent="-64" />
<missing-glyph horiz-adv-x="1024" />
<glyph unicode="&#x20;" horiz-adv-x="512" d="" />
<glyph unicode="&#xe900;" glyph-name="001" d="M153.603 38.395c-13.312 0-26.112 5.12-36.352 14.848-19.968 19.968-19.968 52.224 0 72.192l716.802 717.314c19.968 19.968 52.224 19.968 72.192 0s19.968-52.224 0-72.192l-716.29-717.314c-10.24-10.24-23.040-14.848-36.352-14.848zM870.405 38.395c-13.312 0-26.112 5.12-36.352 14.848l-716.802 716.802c-19.968 19.968-19.968 52.224 0 72.192s52.224 19.968 72.192 0l716.802-716.802c19.968-19.968 19.968-52.224 0-72.192-10.24-10.24-23.040-14.848-36.352-14.848h0.512z" />
<glyph unicode="&#xe901;" glyph-name="002" d="M123.608 908.808l-72.408-72.408 819.185-819.187 72.407 72.407-819.184 819.187zM870.385 908.785l-819.185-819.185 72.408-72.407 819.184 819.184-72.407 72.408z" />
<glyph unicode="&#xe902;" glyph-name="003" d="M512 38.4c-28.16 0-51.2 23.040-51.2 51.2v716.8c0 28.16 23.040 51.2 51.2 51.2s51.2-23.040 51.2-51.2v-716.8c0-28.16-23.040-51.2-51.2-51.2zM870.4 396.8h-716.8c-28.16 0-51.2 23.040-51.2 51.2s23.040 51.2 51.2 51.2h716.8c28.16 0 51.2-23.040 51.2-51.2s-23.040-51.2-51.2-51.2z" />
<glyph unicode="&#xe903;" glyph-name="004" d="M563.2 908.8h-102.4v-921.6h102.4v921.6zM972.8 499.2h-921.6v-102.4h921.6v102.4z" />
<glyph unicode="&#xe904;" glyph-name="005" d="M870.4 396.8h-716.8c-28.16 0-51.2 23.040-51.2 51.2s23.040 51.2 51.2 51.2h716.8c28.16 0 51.2-23.040 51.2-51.2s-23.040-51.2-51.2-51.2z" />
<glyph unicode="&#xe905;" glyph-name="006" d="M972.8 499.2h-921.6v-102.4h921.6v102.4z" />
<glyph unicode="&#xe906;" glyph-name="007" d="M512.010 917.337c-92.827 0-183.568-27.526-260.749-79.097s-137.337-124.871-172.86-210.631c-35.523-85.759-44.817-180.127-26.707-271.166 18.109-91.044 62.809-174.669 128.446-240.307s149.265-110.341 240.307-128.445c91.042-18.109 185.409-8.817 271.169 26.706s159.058 95.677 210.632 172.861c51.569 77.179 79.094 167.921 79.094 260.745 0 124.475-49.444 243.852-137.462 331.869s-207.396 137.465-331.868 137.465zM512.010 56.878c-77.359 0-152.979 22.938-217.299 65.915s-114.451 104.064-144.055 175.534c-29.603 71.47-37.349 150.111-22.258 225.982s52.343 145.563 107.043 200.263c54.7 54.7 124.392 91.951 200.263 107.042s154.514 7.346 225.979-22.257c71.47-29.603 132.557-79.735 175.534-144.055s65.915-139.94 65.915-217.297c-0.113-103.699-41.354-203.114-114.683-276.443-73.324-73.324-172.744-114.57-276.439-114.683zM298.675 490.669v-85.334h426.665v85.334h-426.665zM554.675 661.325h-85.334v-426.665h85.334v426.665z" />
<glyph unicode="&#xe907;" glyph-name="008" d="M512.010 917.337c-92.827 0-183.568-27.526-260.749-79.097s-137.337-124.871-172.86-210.631c-35.523-85.759-44.817-180.127-26.707-271.166 18.109-91.044 62.809-174.669 128.446-240.307s149.265-110.341 240.307-128.445c91.042-18.109 185.409-8.817 271.169 26.706s159.058 95.677 210.632 172.861c51.569 77.179 79.094 167.921 79.094 260.745 0 124.475-49.444 243.852-137.462 331.869s-207.396 137.465-331.868 137.465zM512.010 56.878c-77.359 0-152.979 22.938-217.299 65.915s-114.451 104.064-144.055 175.534c-29.603 71.47-37.349 150.111-22.258 225.982s52.343 145.563 107.043 200.263c54.7 54.7 124.392 91.951 200.263 107.042s154.514 7.346 225.979-22.257c71.47-29.603 132.557-79.735 175.534-144.055s65.915-139.94 65.915-217.297c-0.113-103.699-41.354-203.114-114.683-276.443-73.324-73.324-172.744-114.57-276.439-114.683zM298.675 490.669v-85.334h426.665v85.334h-426.665z" />
<glyph unicode="&#xe908;" glyph-name="009" d="M256.178 141.256c-13.312 0-26.112 5.12-36.352 14.848-19.968 19.968-19.968 52.224 0 72.192l597.505 597.503c19.968 19.968 52.224 19.968 72.192 0s19.968-52.224 0-72.192l-596.993-597.503c-10.24-10.24-23.040-14.848-36.352-14.848zM853.683 55.752h-555.008c-98.816 0-179.2 80.384-179.2 179.2v554.499c0 28.16 23.040 51.2 51.2 51.2s51.2-23.040 51.2-51.2v-555.011c0-42.496 34.304-76.8 76.8-76.8h554.496c28.16 0 51.2-23.040 51.2-51.2s-23.040-51.2-51.2-51.2l0.512 0.512z" />
<glyph unicode="&#xe909;" glyph-name="010" d="M768.256 141.256c-13.312 0-26.112 5.12-36.352 14.848l-596.99 597.503c-19.968 19.968-19.968 52.224 0 72.192s52.224 19.968 72.192 0l597.502-597.503c19.968-19.968 19.968-52.224 0-72.192-10.24-10.24-23.040-14.848-36.352-14.848zM725.76 55.752h-555.010c-28.16 0-51.2 23.040-51.2 51.2s23.040 51.2 51.2 51.2h554.498c42.496 0 76.8 34.304 76.8 76.8v554.499c0 28.16 23.040 51.2 51.2 51.2s51.2-23.040 51.2-51.2v-555.011c0-98.816-80.384-179.2-179.2-179.2l0.512 0.512z" />
<glyph unicode="&#xe90a;" glyph-name="011" d="M870.39 38.41c-13.312 0-26.112 5.12-36.352 14.848l-665.599 665.599c-19.968 19.968-19.968 52.224 0 72.192s52.224 19.968 72.192 0l665.599-665.599c19.968-19.968 19.968-52.224 0-72.192-10.24-10.24-23.040-14.848-36.352-14.848h0.512zM173.562 40.453c-28.16 0-51.2 23.040-51.2 51.2v564.224c0 99.84 81.408 181.248 181.248 181.248h564.225c28.16 0 51.2-23.040 51.2-51.2s-23.040-51.2-51.2-51.2h-563.713c-43.52 0-78.848-35.328-78.848-78.848v-564.224c0-28.16-23.040-51.2-51.2-51.2h-0.512z" />
<glyph unicode="&#xe90b;" glyph-name="012" d="M153.603 38.395c-13.312 0-26.112 5.12-36.352 14.848-19.968 19.968-19.968 52.224 0 72.192l614.402 614.914c19.968 19.968 52.224 19.968 72.192 0s19.968-52.224 0-72.192l-613.89-614.914c-10.24-10.24-23.040-14.848-36.352-14.848zM853.509 55.291c-28.16 0-51.2 23.040-51.2 51.2v512.001c0 66.048-53.76 119.296-119.296 119.296h-512.513c-28.16 0-51.2 23.040-51.2 51.2s23.040 51.2 51.2 51.2h512.001c122.368 0 221.696-99.328 221.696-221.696v-512.001c0-28.16-23.040-51.2-51.2-51.2h0.512z" />
<glyph unicode="&#xe90c;" glyph-name="013" d="M138.237 448l378.063 330.75 56.31-64.25-255.998-223.9h569.199v-85.352h-569.086l255.998-223.846-56.325-64.266-378.161 330.865z" />
<glyph unicode="&#xe90d;" glyph-name="014" d="M477.088 181.448l255.999 223.852h-569.087v85.351h569.087l-255.999 223.9 56.314 64.25 378.061-330.8-378.061-330.752-56.314 64.2z" />
<glyph unicode="&#xe90e;" glyph-name="015" d="M140.55 448l60.313 60.325 268.487-268.499v579.686h85.351v-579.686l268.447 268.499 60.365-60.325-371.512-371.502-371.45 371.502z" />
<glyph unicode="&#xe90f;" glyph-name="016" d="M554.685 789.325v-682.665h-85.336v682.665h85.336zM512.005 849.662l371.502-371.503-60.339-60.342-311.163 311.165-311.165-311.165-60.34 60.342 371.505 371.503z" />
<glyph unicode="&#xe910;" glyph-name="017" d="M853.509 396.8h-645.122c-28.16 0-51.2 23.040-51.2 51.2s23.040 51.2 51.2 51.2h644.61c28.16 0 51.2-23.040 51.2-51.2s-23.040-51.2-51.2-51.2h0.512zM481.275 55.301c-12.288 0-24.576 4.608-34.816 13.312l-267.264 245.248c-35.328 31.232-56.832 75.264-59.392 122.88-3.072 48.126 13.312 94.206 45.056 130.046 4.608 5.12 9.728 10.24 15.36 15.36l266.752 244.736c20.992 18.944 53.248 17.92 72.191-3.072s17.92-53.248-3.072-72.192l-267.263-245.248c-3.072-2.56-5.12-4.608-7.168-7.168-13.824-15.36-20.48-35.328-19.456-55.806 1.024-20.48 10.24-39.424 25.6-53.248l268.287-245.76c20.992-18.944 22.016-51.712 3.072-72.192-10.239-11.264-24.063-16.384-37.887-16.384v-0.512z" />
<glyph unicode="&#xe911;" glyph-name="018" d="M823.301 391.68h-651.263c-28.16 0-51.2 23.040-51.2 51.2s23.040 51.201 51.2 51.201h650.751c28.16 0 51.2-23.040 51.2-51.201 0-28.16-23.040-51.2-51.2-51.2h0.512zM547.84 47.104c-13.824 0-27.648 5.632-37.886 16.384-18.944 20.992-17.92 53.248 3.070 72.192l269.824 247.808c3.072 2.56 5.12 4.608 7.168 7.168 13.824 15.872 20.992 35.84 19.456 56.832-1.024 20.991-10.752 39.935-26.112 53.759l-270.848 248.32c-20.99 18.944-22.014 51.712-3.070 72.192 18.942 20.992 51.71 22.528 72.19 3.072l269.824-247.808c35.328-31.232 56.832-75.776 59.904-123.904s-13.312-94.719-45.056-130.559c-4.608-5.632-9.728-10.24-15.36-15.36l-269.312-247.296c-9.728-9.216-22.016-13.312-34.816-13.312l1.024 0.512z" />
<glyph unicode="&#xe912;" glyph-name="019" d="M455.675 136.699v651.263c0 28.16 23.040 51.2 51.2 51.2s51.2-23.040 51.2-51.2v-650.751c0-28.16-23.040-51.2-51.2-51.2s-51.2 23.040-51.2 51.2v-0.512zM111.103 412.15c0 13.824 5.632 27.648 16.384 37.89 20.992 18.944 53.248 17.92 72.192-3.074l247.808-269.824c2.56-3.072 4.608-5.12 7.168-7.168 15.872-13.824 35.84-20.992 56.832-19.456 20.993 1.024 39.937 10.752 53.761 26.112l248.32 270.848c18.944 20.994 51.712 22.018 72.192 3.074 20.992-18.946 22.528-51.714 3.072-72.194l-247.808-269.824c-31.232-35.328-75.776-56.832-123.904-59.904s-94.721 13.312-130.561 45.056c-5.632 4.608-10.24 9.728-15.36 15.36l-247.296 269.312c-9.216 9.728-13.312 22.016-13.312 34.816l0.512-1.024z" />
<glyph unicode="&#xe913;" glyph-name="020" d="M568.325 759.295v-651.263c0-28.16-23.040-51.2-51.2-51.2s-51.2 23.040-51.2 51.2v650.751c0 28.16 23.040 51.2 51.2 51.2s51.2-23.040 51.2-51.2v0.512zM912.896 483.842c0-13.824-5.632-27.648-16.384-37.89-20.992-18.944-53.248-17.92-72.192 3.074l-247.808 269.824c-2.56 3.072-4.608 5.12-7.168 7.168-15.872 13.824-35.84 20.992-56.832 19.456-20.991-1.024-39.935-10.752-53.759-26.112l-248.32-270.848c-18.944-20.994-51.712-22.018-72.192-3.074-20.992 18.946-22.528 51.714-3.072 72.194l247.808 269.824c31.232 35.328 75.776 56.832 123.904 59.904s94.719-13.312 130.559-45.056c5.632-4.608 10.24-9.728 15.36-15.36l247.296-269.312c9.216-9.728 13.312-22.016 13.312-34.816l-0.512 1.024z" />
<glyph unicode="&#xe914;" glyph-name="021" d="M0 294.4h1024v112.64h-800.767l186.367 230.4-81.919 66.56-327.681-409.6z" />
<glyph unicode="&#xe915;" glyph-name="022" d="M1024 294.4h-1024v112.64h800.768l-186.368 230.4 81.92 66.56 327.68-409.6z" />
<glyph unicode="&#xe916;" glyph-name="023" d="M512-64c-282.112 0-512 229.888-512 512s229.888 512 512 512c282.112 0 512-229.888 512-512s-229.888-512-512-512zM512 857.6c-225.792 0-409.6-183.808-409.6-409.6s183.808-409.6 409.6-409.6c225.792 0 409.6 183.808 409.6 409.6s-183.808 409.6-409.6 409.6zM725.509 396.8h-427.009c-28.16 0-51.2 23.040-51.2 51.2s23.040 51.2 51.2 51.2h426.497c28.16 0 51.2-23.040 51.2-51.2s-23.040-51.2-51.2-51.2h0.512zM426.49 268.805c-13.312 0-26.624 5.12-36.352 14.848l-128 128c-19.968 19.968-19.968 52.222 0 72.19l128 128c14.848 14.848 36.352 18.944 55.808 11.264 18.944-7.68 31.744-26.624 31.744-47.104v-255.998c0-20.48-12.288-39.424-31.744-47.104-6.144-2.56-12.8-4.096-19.456-4.096zM371.194 448.003l4.608-4.606v8.702l-4.608-4.606v0.51z" />
<glyph unicode="&#xe917;" glyph-name="024" d="M512-64c-282.112 0-512 229.888-512 512s229.888 512 512 512c282.112 0 512-229.888 512-512s-229.888-512-512-512zM512 857.6c-225.792 0-409.6-183.808-409.6-409.6s183.808-409.6 409.6-409.6c225.792 0 409.6 183.808 409.6 409.6s-183.808 409.6-409.6 409.6zM725.509 396.8h-427.009c-28.16 0-51.2 23.040-51.2 51.2s23.040 51.2 51.2 51.2h426.497c28.16 0 51.2-23.040 51.2-51.2s-23.040-51.2-51.2-51.2h0.512zM597.499 268.8c-6.656 0-13.312 1.024-19.456 4.096-18.944 7.68-31.744 26.624-31.744 47.104v256.001c0 20.48 12.288 39.424 31.744 47.104 18.944 8.192 40.96 3.584 55.808-11.264l128-128c19.968-19.968 19.968-52.225 0-72.193l-128-128c-9.728-9.728-23.040-14.848-36.352-14.848zM648.699 452.609v-8.705l4.608 4.609-4.608 4.608v-0.512z" />
<glyph unicode="&#xe918;" glyph-name="025" d="M512-64c-282.112 0-512 229.888-512 512s229.888 512 512 512c282.112 0 512-229.888 512-512s-229.888-512-512-512zM512 857.6c-225.792 0-409.6-183.808-409.6-409.6s183.808-409.6 409.6-409.6c225.792 0 409.6 183.808 409.6 409.6s-183.808 409.6-409.6 409.6zM512 183.291c-28.16 0-51.2 23.040-51.2 51.2v427.009c0 28.16 23.040 51.2 51.2 51.2s51.2-23.040 51.2-51.2v-426.497c0-28.16-23.040-51.2-51.2-51.2v-0.512zM511.996 183.296c-13.312 0-26.112 5.12-36.352 14.848l-128 128c-14.848 14.848-18.944 36.864-11.264 55.808s26.624 31.744 47.104 31.744h255.998c20.48 0 39.424-12.288 47.104-31.744 7.68-18.944 3.584-40.96-11.264-55.808l-128-128c-10.24-10.24-23.040-14.848-36.35-14.848h1.024zM507.388 311.296l4.608-4.608 4.606 4.608h-9.214z" />
<glyph unicode="&#xe919;" glyph-name="026" d="M512-64c-282.112 0-512 229.888-512 512s229.888 512 512 512c282.112 0 512-229.888 512-512s-229.888-512-512-512zM512 857.6c-225.792 0-409.6-183.808-409.6-409.6s183.808-409.6 409.6-409.6c225.792 0 409.6 183.808 409.6 409.6s-183.808 409.6-409.6 409.6zM512 183.291c-28.16 0-51.2 23.040-51.2 51.2v427.009c0 28.16 23.040 51.2 51.2 51.2s51.2-23.040 51.2-51.2v-426.497c0-28.16-23.040-51.2-51.2-51.2v-0.512zM639.995 482.31h-255.998c-20.48 0-39.424 12.288-47.104 31.744-7.68 18.944-3.584 40.96 11.264 55.808l128 128c19.968 19.968 52.222 19.968 72.19 0l128-128c14.848-14.848 18.944-36.864 11.264-55.808s-26.624-31.744-47.104-31.744h-0.512zM507.389 584.71h8.702l-4.606 4.608-4.608-4.608h0.512z" />
<glyph unicode="&#xe91a;" glyph-name="027" d="M401.679 447.995l311.163 311.165-60.339 60.34-371.503-371.505 371.503-371.502 60.339 60.339-311.163 311.163z" />
<glyph unicode="&#xe91b;" glyph-name="028" d="M622.316 447.995l-311.165 311.165 60.34 60.34 371.504-371.505-371.504-371.502-60.34 60.339 311.165 311.163z" />
<glyph unicode="&#xe91c;" glyph-name="029" d="M512.998 243.2l-358.398 346.112 65.536 63.488 292.862-282.624 292.864 282.624 65.536-63.488-358.4-346.112z" />
<glyph unicode="&#xe91d;" glyph-name="030" d="M512.005 558.316l-311.165-311.168-60.34 60.344 371.505 371.502 371.502-371.502-60.339-60.344-311.163 311.168z" />
<glyph unicode="&#xe91e;" glyph-name="031" d="M640 89.6l76.8 76.8-266.751 281.6 266.751 281.6-76.8 76.8-332.8-358.4 332.8-358.4z" />
<glyph unicode="&#xe91f;" glyph-name="032" d="M384 89.6l-76.8 76.8 266.752 281.6-266.752 281.6 76.8 76.8 332.8-358.4-332.8-358.4z" />
<glyph unicode="&#xe920;" glyph-name="033" d="M870.4 576l-76.8 76.8-281.6-266.752-281.6 266.752-76.8-76.8 358.4-332.8 358.4 332.8z" />
<glyph unicode="&#xe921;" glyph-name="034" d="M870.4 320l-76.8-76.8-281.6 266.753-281.6-266.753-76.8 76.8 358.4 332.8 358.4-332.8z" />
<glyph unicode="&#xe922;" glyph-name="035" d="M639.99 98.304c-11.776 0-23.552 4.096-32.768 12.288l-238.078 200.704c-35.328 27.648-58.881 69.12-64.513 115.2-5.632 46.594 6.657 92.162 35.841 129.026 8.704 11.264 18.943 21.504 30.72 30.72l236.030 199.68c21.504 18.432 53.76 15.36 72.192-6.144s15.36-53.76-6.144-72.192l-238.078-200.704c-6.144-5.12-10.752-9.216-14.336-13.824-11.776-15.36-17.409-34.304-14.849-53.762 2.56-19.456 12.289-36.352 27.649-48.64l239.614-202.24c21.504-18.432 24.576-50.688 6.144-72.192-10.24-11.776-24.576-17.92-38.912-17.92h-0.512z" />
<glyph unicode="&#xe923;" glyph-name="036" d="M384.003 98.304c-14.337 0-29.185 6.144-38.913 17.92-18.432 21.504-15.359 53.76 6.145 72.192l238.077 200.704c6.144 5.12 10.752 9.216 14.336 13.824 11.776 15.36 17.408 34.304 14.848 53.761s-12.288 36.352-27.648 48.64l-239.613 202.24c-21.504 18.432-24.577 50.688-6.145 72.192s50.688 24.064 72.192 6.144l238.078-200.704c35.328-27.648 58.88-69.12 64.512-115.2 5.632-46.593-6.656-92.161-35.84-129.025-8.704-11.264-18.944-21.504-30.72-30.72l-236.541-199.68c-9.728-8.192-21.505-12.288-32.768-12.288z" />
<glyph unicode="&#xe924;" glyph-name="037" d="M213.505 295.936c-14.336 0-28.672 6.144-38.912 17.92-18.432 21.504-15.872 53.76 5.632 72.192l215.552 184.323c67.584 57.856 165.887 57.856 232.959 0l215.552-184.323c21.504-18.432 24.064-50.688 5.632-72.192s-50.688-24.064-72.192-5.632l-215.552 184.323c-28.672 24.576-71.168 24.576-99.84 0l-215.551-184.323c-9.728-8.192-21.504-12.288-33.28-12.288z" />
<glyph unicode="&#xe925;" glyph-name="038" d="M512 282.112c-41.472 0-82.945 14.336-116.736 43.52l-215.552 184.833c-21.504 18.432-24.064 50.688-5.632 72.192s50.688 24.064 72.192 5.632l215.552-184.833c29.184-24.576 71.168-24.576 99.84 0l215.552 184.833c21.504 18.432 53.76 15.872 72.192-5.632s15.872-53.76-5.632-72.192l-215.552-184.833c-33.792-28.672-75.264-43.52-116.736-43.52h0.512z" />
<glyph unicode="&#xe926;" glyph-name="039" d="M512.015 834.237l328.095-312.485-58.849-61.791-269.245 256.432-269.238-256.432-58.852 61.791 328.090 312.485zM512.015 436.029l328.095-312.484-58.849-61.788-269.245 256.43-269.238-256.43-58.852 61.788 328.090 312.484z" />
<glyph unicode="&#xe927;" glyph-name="040" d="M183.9 360.218l58.852 61.793 269.241-256.43 269.242 256.43 58.849-61.793-328.092-312.484-328.093 312.484zM183.9 758.433l58.852 61.792 269.241-256.433 269.242 256.433 58.849-61.792-328.092-312.486-328.093 312.486z" />
<glyph unicode="&#xe928;" glyph-name="041" d="M424.235 776.088l61.792-58.852-256.433-269.241 256.433-269.24-61.792-58.849-312.485 328.090 312.485 328.093zM822.436 776.088l61.788-58.852-256.43-269.241 256.43-269.24-61.788-58.849-312.486 328.090 312.486 328.093z" />
<glyph unicode="&#xe929;" glyph-name="042" d="M599.767 776.088l-61.793-58.852 256.43-269.241-256.43-269.24 61.793-58.849 312.484 328.090-312.484 328.093zM201.564 776.088l-61.788-58.852 256.43-269.241-256.43-269.24 61.788-58.849 312.484 328.090-312.484 328.093z" />
<glyph unicode="&#xe92a;" glyph-name="043" d="M102.4 448l338.431-358.4 71.168 75.776-266.752 282.624 266.752 282.624-71.168 75.776-338.431-358.4zM512 448l338.432-358.4 71.168 75.776-266.752 282.624 266.752 282.624-71.168 75.776-338.432-358.4z" />
<glyph unicode="&#xe92b;" glyph-name="044" d="M921.6 448l-338.432-358.4-71.168 75.776 266.752 282.624-266.752 282.624 71.168 75.776 338.432-358.4zM512 448l-338.432-358.4-71.168 75.776 266.753 282.624-266.753 282.624 71.168 75.776 338.432-358.4z" />
<glyph unicode="&#xe92c;" glyph-name="045" d="M409.083 76.8c-13.312 0-26.112 5.12-36.352 15.36l-182.784 184.32c-93.696 94.72-93.696 248.83 0 343.55l182.784 184.32c19.968 19.968 52.224 20.48 72.192 0 19.968-19.968 20.48-52.224 0-72.192l-182.784-184.32c-54.272-54.784-54.272-144.382 0-199.166l182.784-184.32c19.968-19.968 19.968-52.736 0-72.192-9.728-9.728-23.040-14.848-35.84-14.848v-0.512zM853.509 76.8c-13.312 0-26.112 5.12-36.352 15.36l-182.784 184.32c-93.696 94.72-93.696 248.83 0 343.55l182.784 184.32c19.968 19.968 52.224 20.48 72.192 0 19.968-19.968 20.48-52.224 0-72.192l-182.784-184.32c-54.272-54.784-54.272-144.382 0-199.166l182.784-184.32c19.968-19.968 19.968-52.736 0-72.192-9.728-9.728-23.040-14.848-35.84-14.848v-0.512z" />
<glyph unicode="&#xe92d;" glyph-name="046" d="M614.907 76.805c-12.8 0-26.112 5.12-35.84 14.848-19.968 19.968-20.48 52.224 0 72.192l182.784 184.32c54.272 54.784 54.272 144.381 0 199.165l-182.784 184.32c-19.968 19.968-19.968 52.736 0 72.192 19.968 19.968 52.736 19.968 72.192 0l182.784-184.32c93.696-94.72 93.696-248.829 0-343.549l-182.784-184.32c-10.24-10.24-23.040-15.36-36.352-15.36v0.512zM170.484 76.805c-12.8 0-26.112 5.12-35.84 14.848-19.968 19.968-20.48 52.224 0 72.192l182.784 184.32c54.272 54.784 54.272 144.381 0 199.165l-182.784 184.32c-19.968 19.968-19.968 52.736 0 72.192 19.968 19.968 52.736 19.968 72.192 0l182.784-184.32c93.696-94.72 93.696-248.829 0-343.549l-182.784-184.32c-10.24-10.24-23.040-15.36-36.352-15.36v0.512z" />
<glyph unicode="&#xe92e;" glyph-name="047" d="M631.301 399.355v96.77l-83.968-48.13 83.968-48.128v-0.512zM670.213 576c0 0-4.096-0.512-6.144-1.536l-200.193-115.712c-8.192-4.608-8.192-16.896 0-21.504l200.193-115.712c8.192-4.608 18.944 1.024 18.944 10.752v230.912c0 7.168-6.144 12.288-12.288 12.288l-0.512 0.512zM429.575 399.355v96.77l-83.968-48.13 83.968-48.128v-0.512zM468.488 576c0 0-4.096-0.512-6.144-1.536l-200.192-115.712c-8.192-4.608-8.192-16.896 0-21.504l200.192-115.712c8.192-4.608 18.944 1.024 18.944 10.752v230.912c0 7.168-6.144 12.288-12.288 12.288l-0.512 0.512zM512-64c282.112 0 512 229.888 512 512s-229.888 512-512 512c-282.112 0-512-229.888-512-512s229.888-512 512-512zM512 857.6c225.792 0 409.6-183.808 409.6-409.6s-183.808-409.6-409.6-409.6c-225.792 0-409.6 183.808-409.6 409.6s183.808 409.6 409.6 409.6z" />
<glyph unicode="&#xe92f;" glyph-name="048" d="M392.7 399.355v96.77l83.968-48.13-83.968-48.128v-0.512zM353.787 576c0 0 4.096-0.512 6.144-1.536l200.191-115.712c8.192-4.608 8.192-16.896 0-21.504l-200.191-115.712c-8.192-4.608-18.944 1.024-18.944 10.752v230.912c0 7.168 6.144 12.288 12.288 12.288l0.512 0.512zM594.427 399.355v96.77l83.968-48.13-83.968-48.128v-0.512zM555.515 576c0 0 4.096-0.512 6.144-1.536l200.192-115.712c8.192-4.608 8.192-16.896 0-21.504l-200.192-115.712c-8.192-4.608-18.944 1.024-18.944 10.752v230.912c0 7.168 6.144 12.288 12.288 12.288l0.512 0.512zM512-64c-282.112 0-512 229.888-512 512s229.888 512 512 512c282.112 0 512-229.888 512-512s-229.888-512-512-512zM512 857.6c-225.792 0-409.6-183.808-409.6-409.6s183.808-409.6 409.6-409.6c225.792 0 409.6 183.808 409.6 409.6s-183.808 409.6-409.6 409.6z" />
<glyph unicode="&#xe930;" glyph-name="049" d="M512 294.4l-204.8 307.2h409.6l-204.8-307.2z" />
<glyph unicode="&#xe931;" glyph-name="050" d="M512 601.6l-204.8-307.2h409.6l-204.8 307.2z" />
<glyph unicode="&#xe932;" glyph-name="051" d="M358.4 448l307.2 204.8v-409.6l-307.2 204.8z" />
<glyph unicode="&#xe933;" glyph-name="052" d="M665.6 448l-307.2-204.8v409.6l307.2-204.8z" />
<glyph unicode="&#xe934;" glyph-name="053" d="M972.8 89.856h-567.296c-2.479-0.075-5.395-0.117-8.321-0.117-157.678 0-286.534 123.401-295.26 278.896l-0.035 0.773c7.254 158.231 137.3 283.769 296.667 283.769 2.984 0 5.957-0.044 8.92-0.131l-0.435 0.010h309.76v-102.4c0.062-19.814 11.369-36.972 27.872-45.434l0.288-0.134c6.412-3.55 14.059-5.64 22.194-5.64 0.297 0 0.594 0.003 0.89 0.008l-0.044-0.001c11.573 0.112 22.23 3.938 30.862 10.341l-0.142-0.101 204.8 153.6c12.491 9.44 20.48 24.267 20.48 40.96s-7.989 31.52-20.351 40.867l-0.129 0.093-204.8 153.6c-8.538 6.328-19.279 10.129-30.909 10.129-8.316 0-16.178-1.944-23.156-5.401l0.305 0.137c-16.812-8.299-28.172-25.322-28.172-44.998 0-0.381 0.004-0.76 0.013-1.139l-0.001 0.056v-102.4h-308.224c-2.811 0.071-6.122 0.112-9.443 0.112-215.828 0-391.668-171.209-399.114-385.222l-0.019-0.681c8.73-212.228 182.353-381.109 395.669-382.208h577.131c28.277 0 51.2 22.923 51.2 51.2s-22.923 51.2-51.2 51.2v0z" />
<glyph unicode="&#xe935;" glyph-name="054" d="M51.2 89.856h567.296c77.061-2.171 151.921 25.836 208.635 78.054s90.793 124.518 94.981 201.498c-3.461 77.865-37.402 151.248-94.49 204.315s-132.751 81.56-210.662 79.332h-309.76v-102.4c-0.029-9.455-2.675-18.718-7.645-26.761s-12.071-14.553-20.515-18.807c-7.064-3.838-15.002-5.778-23.040-5.632-11.061 0.103-21.809 3.686-30.72 10.24l-204.8 153.6c-6.359 4.769-11.52 10.953-15.075 18.062s-5.405 14.949-5.405 22.898c0 7.948 1.851 15.788 5.405 22.897s8.716 13.294 15.075 18.063l204.8 153.6c7.668 5.63 16.729 9.059 26.203 9.916s19.003-0.89 27.557-5.052c8.611-4.182 15.841-10.746 20.832-18.914s7.535-17.596 7.328-27.166v-102.4h308.224c105.19 2.488 207.114-36.639 283.622-108.878 76.503-72.239 121.411-171.752 124.954-276.913-4.086-102.405-47.508-199.291-121.231-270.484-73.718-71.194-172.058-111.212-274.545-111.724h-577.024c-13.579 0-26.602 5.391-36.204 14.996-9.602 9.6-14.996 22.625-14.996 36.204s5.394 26.604 14.996 36.204c9.602 9.6 22.625 14.996 36.204 14.996z" />
<glyph unicode="&#xe936;" glyph-name="055" d="M948.224 71.168c-26.624 0-49.152 20.992-51.2 47.616-1.536 20.48-23.552 198.144-370.176 203.264v-166.912c0-19.456-11.264-37.376-28.673-46.080s-38.4-6.656-53.76 5.632l-399.872 309.248c-12.8 9.728-19.968 24.578-19.968 40.45s7.168 30.72 19.968 40.448l399.872 308.736c15.36 11.776 36.352 13.824 53.76 5.632 17.409-8.704 28.673-26.624 28.673-46.080v-166.912h53.248c0 0 1.024 0 1.536 0 150.016-4.096 288.256-88.576 360.448-220.674 40.448-83.968 59.392-174.592 56.832-265.216-0.512-27.136-23.040-49.152-50.176-49.664h-1.024l0.512 0.512zM159.743 464.386l264.704-204.802v113.664c0 28.16 23.040 51.2 51.2 51.2h36.352c154.625 0 260.097-31.232 331.777-73.216-55.296 90.112-155.648 148.994-264.704 152.578h-103.937c-28.16 0-51.2 23.040-51.2 51.2v113.664l-264.192-204.288z" />
<glyph unicode="&#xe937;" glyph-name="056" d="M75.777 71.168c26.624 0 49.152 20.992 51.2 47.616 1.536 20.48 23.552 198.144 370.176 203.264v-166.912c0-19.456 11.264-37.376 28.671-46.080s38.4-6.656 53.76 5.632l399.872 309.248c12.8 9.728 19.968 24.578 19.968 40.45s-7.168 30.72-19.968 40.448l-399.872 308.736c-15.36 11.776-36.352 13.824-53.76 5.632-17.407-8.704-28.671-26.624-28.671-46.080v-166.912h-53.248c0 0-1.024 0-1.536 0-150.016-4.096-288.256-88.576-360.448-220.674-40.448-83.968-59.392-174.592-56.832-265.216 0.512-27.136 23.040-49.152 50.176-49.664h1.024l-0.512 0.512zM864.256 464.386l-264.704-204.802v113.664c0 28.16-23.040 51.2-51.2 51.2h-36.352c-154.623 0-260.095-31.232-331.775-73.216 55.296 90.112 155.648 148.994 264.704 152.578h103.935c28.16 0 51.2 23.040 51.2 51.2v113.664l264.192-204.288z" />
<glyph unicode="&#xe938;" glyph-name="057" d="M536.571 98.309c18.944 0 38.4 8.704 51.712 24.064 16.896 18.944 16.896 40.448 16.896 68.096v90.624c28.672-5.632 56.32-14.848 83.456-27.136 48.64-22.016 91.136-53.248 126.464-93.696 14.336-15.872 36.864-21.504 56.32-13.824 19.968 7.68 33.28 26.624 33.28 48.128v22.016c0 98.816-38.4 192.512-106.496 263.678-52.736 55.296-119.808 95.232-193.024 115.2v111.104c0 26.624 0 47.616-15.872 67.072-14.848 16.896-34.304 26.112-55.808 25.088-24.063-0.512-40.447-13.824-61.439-30.72l-316.928-258.048c-11.776-9.216-24.064-19.456-30.72-36.864-5.632-15.36-5.632-32.766 0-48.126 6.656-17.408 18.432-27.136 30.72-36.864l316.928-258.048c22.528-18.432 38.912-31.232 64.511-30.72v-1.024zM553.979 390.149c-12.8 0-25.6-5.12-34.816-13.824-10.239-9.728-16.383-23.040-16.383-37.376v-102.912l-260.608 211.966 260.608 211.968v-106.496c0-25.088 18.431-46.592 43.007-50.688 67.584-10.752 131.072-44.544 178.688-94.206 25.088-26.112 44.032-56.32 57.344-88.576-16.384 9.728-33.28 18.944-50.688 26.624-54.784 25.088-113.152 39.424-173.568 43.52-1.024 0-2.048 0-3.072 0h-0.512z" />
<glyph unicode="&#xe939;" glyph-name="058" d="M487.428 98.309c-18.944 0-38.4 8.704-51.712 24.064-16.896 18.944-16.896 40.448-16.896 68.096v90.624c-28.672-5.632-56.32-14.848-83.456-27.136-48.64-22.016-91.136-53.248-126.464-93.696-14.336-15.872-36.864-21.504-56.32-13.824-19.968 7.68-33.28 26.624-33.28 48.128v22.016c0 98.816 38.4 192.512 106.496 263.678 52.736 55.296 119.808 95.232 193.024 115.2v111.104c0 26.624 0 47.616 15.872 67.072 14.848 16.896 34.304 26.112 55.808 25.088 24.065-0.512 40.449-13.824 61.441-30.72l316.928-258.048c11.776-9.216 24.064-19.456 30.72-36.864 5.632-15.36 5.632-32.766 0-48.126-6.656-17.408-18.432-27.136-30.72-36.864l-316.928-258.048c-22.528-18.432-38.912-31.232-64.513-30.72v-1.024zM470.020 390.149c12.8 0 25.6-5.12 34.816-13.824 10.241-9.728 16.385-23.040 16.385-37.376v-102.912l260.608 211.966-260.608 211.968v-106.496c0-25.088-18.433-46.592-43.009-50.688-67.584-10.752-131.072-44.544-178.688-94.206-25.088-26.112-44.032-56.32-57.344-88.576 16.384 9.728 33.28 18.944 50.688 26.624 54.784 25.088 113.152 39.424 173.568 43.52 1.024 0 2.048 0 3.072 0h0.512z" />
<glyph unicode="&#xe93a;" glyph-name="059" d="M443.187 243.712l-187.187 195.072 70.093 70.656 117.146-122.368 254.72 265.728 70.042-70.656-324.25-338.944-0.563 0.512z" />
<glyph unicode="&#xe93b;" glyph-name="060" d="M384.003 273.674l439.165 439.163 60.339-60.34-499.504-499.502-243.503 243.502 60.34 60.34 183.163-183.163z" />
<glyph unicode="&#xe93c;" glyph-name="061" d="M397.823 140.8l-295.423 299.008 87.039 84.992 208.385-210.944 436.737 441.344 87.040-84.992-523.777-529.408z" />
<glyph unicode="&#xe93d;" glyph-name="062" d="M384.005 183.808c-45.056 0-90.112 16.896-124.928 50.688l-124.928 128c-19.968 20.48-19.456 52.736 1.024 72.192 20.48 19.458 52.736 19.458 72.192-1.024l121.856-124.928c31.744-30.72 80.384-30.208 110.080 0l377.856 387.074c19.968 20.48 52.224 20.48 72.192 1.024 20.48-19.968 20.48-52.224 1.024-72.192l-377.856-387.074c-34.816-35.84-81.408-53.76-128-53.76h-0.512z" />
<glyph unicode="&#xe93e;" glyph-name="063" d="M512.005 55.296c-216.577 0-392.705 176.128-392.705 392.706 0 216.576 176.128 392.704 392.705 392.704s392.704-176.128 392.704-392.704c0-216.578-176.128-392.706-392.704-392.706zM512.005 738.306c-159.745 0-290.305-130.048-290.305-290.304 0-160.258 130.048-290.306 290.305-290.306s290.304 130.048 290.304 290.306c0 159.744-130.048 290.304-290.304 290.304zM460.804 329.728c-36.352 0-70.656 14.336-96.768 39.936l-41.984 41.984c-19.968 19.968-19.968 52.226 0 72.194s52.224 19.968 72.192 0l41.984-41.986c13.312-13.312 34.816-13.312 48.128 0l144.385 144.386c19.968 19.968 52.224 19.968 72.192 0s19.968-52.224 0-72.192l-144.384-144.386c-25.6-25.6-59.905-39.936-96.769-39.936h1.024z" />
<glyph unicode="&#xe93f;" glyph-name="064" d="M512.005 55.296c-104.961 0-203.265 40.96-277.505 115.2s-114.688 173.056-114.688 277.506c0 216.576 176.128 392.192 392.705 392.192 54.272-1.536 109.056-11.264 159.744-33.792 25.6-11.776 37.376-41.984 26.112-67.584-11.776-25.6-41.984-37.376-67.584-26.112-37.376 16.896-77.312 25.088-118.272 25.088-159.745 0-290.305-130.048-290.305-290.306 0-77.312 30.208-150.528 84.992-205.312s127.488-84.992 205.313-84.992c159.744 0 290.304 130.048 290.304 290.304v31.234c0 28.16 23.040 51.2 51.2 51.2s51.2-23.040 51.2-51.2v-31.234c0-216.576-176.128-392.704-392.704-392.704l-0.512 0.512zM523.781 346.117c-31.741 0-63.997 11.264-89.597 33.792-4.096 3.584-7.68 7.68-11.776 11.776l-80.384 88.063c-18.944 20.992-17.408 53.248 3.072 72.192 20.992 18.944 53.248 17.92 72.192-3.072l80.896-88.576c16.893-15.359 37.885-14.335 49.661-0.512l254.464 278.016c18.944 20.992 51.2 22.528 72.192 3.072 20.992-18.944 22.528-51.2 3.072-72.192l-253.952-277.503c-26.112-29.696-63.488-45.056-100.864-45.056h1.024z" />
<glyph unicode="&#xe940;" glyph-name="065" d="M633.559 720.81c-58.829 26.213-124.558 32.707-187.379 18.513s-119.372-48.314-161.218-97.274c-41.845-48.959-66.743-110.133-70.981-174.398-4.237-64.267 12.412-128.18 47.466-182.211 35.055-54.026 86.635-95.278 147.049-117.596 60.414-22.323 126.426-24.515 188.189-6.257 61.763 18.263 115.963 56.003 154.527 107.587s59.418 114.248 59.453 178.657v31.376h85.335v-31.402c-0.046-82.806-26.86-163.405-76.442-229.729-49.582-66.319-119.27-114.842-198.682-138.317-79.406-23.48-164.278-20.659-241.953 8.038s-143.993 81.731-189.063 151.199c-45.070 69.468-66.477 151.644-61.028 234.269 5.448 82.627 37.46 161.279 91.261 224.227s126.509 106.817 207.28 125.066c80.771 18.249 165.277 9.9 240.914-23.802l-34.729-77.946zM511.98 439.762l311.162 311.476 60.37-60.31-371.502-371.875-132.585 132.585 60.34 60.34 72.215-72.216z" />
<glyph unicode="&#xe941;" glyph-name="066" d="M502.795 352.256c0 0-3.072 0-4.608 0-32.256 1.024-61.952 14.848-83.968 38.4l-56.32 59.906c-19.456 20.48-18.432 52.736 2.048 72.192s52.736 18.432 72.192-2.048l56.832-59.904c4.608-5.12 10.24-6.144 12.8-6.144 3.072 0 8.192 0 12.799 4.608l309.76 327.168c19.456 20.48 51.712 21.504 72.192 2.048s21.504-51.712 2.048-72.192l-308.224-325.634c0 0-4.096-4.096-6.144-6.144-22.528-20.48-51.2-31.744-81.407-31.744v-0.512zM286.725 55.296c-90.624 2.56-161.28 77.312-158.72 166.4v453.634c-2.56 87.552 68.096 162.304 157.184 164.864h360.96c28.16 0 51.2-23.040 51.2-51.2s-23.040-51.2-51.2-51.2h-359.424c-31.232-1.024-57.344-28.672-56.32-61.44v-456.706c-1.024-34.304 25.088-61.44 57.856-62.464h430.080c31.232 1.024 57.344 28.672 56.32 61.44v228.864c0 28.162 23.040 51.202 51.2 51.202s51.2-23.040 51.2-51.202v-227.328c2.56-87.552-68.096-162.304-157.184-164.864h-433.152z" />
<glyph unicode="&#xe942;" glyph-name="067" d="M883.348 702.082l-389.311-385.241-137.787 136.369 60.027 60.651 77.765-76.966 329.285 325.843 60.022-60.656zM128 810.662h509.737v-85.333h-424.403v-554.67h561.41v277.335h85.33v-362.67h-732.073v725.338z" />
<glyph unicode="&#xe943;" glyph-name="068" d="M733.691 55.296c0 0-2.56 0-3.584 0-37.376 1.024-73.728 13.824-102.912 36.864l-286.719 224.256c-34.816 26.624-57.344 66.048-63.488 110.080-5.632 44.033 6.144 87.553 33.28 122.881 8.704 11.264 18.944 21.505 30.208 30.209l286.719 224.256c73.728 58.368 181.248 46.080 240.128-27.648 23.040-29.184 36.352-65.537 36.864-102.401v-449.537c-2.048-94.208-78.336-168.448-171.008-168.448l0.512-0.512zM733.179 738.306c-14.848 0-30.208-5.12-42.496-14.848l-287.743-224.768c-4.608-3.585-8.704-7.68-11.776-11.776-10.24-13.824-14.848-30.208-12.8-47.106 2.048-16.896 10.752-31.744 24.576-42.496l287.231-224.256c11.776-9.216 26.624-14.848 41.472-14.848 38.4-2.048 69.12 29.184 70.144 67.584v446.466c0 13.824-5.632 28.671-14.848 39.935-13.312 16.896-33.792 26.113-53.76 26.113zM153.6 38.4c-28.16 0-51.2 23.040-51.2 51.2v716.8c0 28.16 23.040 51.2 51.2 51.2s51.2-23.040 51.2-51.2v-716.8c0-28.16-23.040-51.2-51.2-51.2z" />
<glyph unicode="&#xe944;" glyph-name="069" d="M290.821 55.296c-50.176 0-100.352 22.016-134.144 64.512-23.040 29.184-36.352 65.536-36.864 102.4v450.050c1.024 46.592 19.456 89.6 52.736 120.832 32.768 31.744 76.288 48.64 121.856 47.616 37.376-1.024 73.728-13.824 102.912-36.864l287.233-224.256c34.816-26.624 57.344-66.048 62.976-110.080 5.632-44.034-6.144-87.554-33.28-122.882-8.704-11.264-18.944-21.504-30.208-30.208l-286.721-224.256c-31.232-24.576-68.608-36.864-105.984-36.864h-0.512zM290.309 738.818c-17.92 0-34.816-6.656-47.616-18.944-13.312-12.8-20.992-29.696-20.992-48.128v-447.49c0-13.824 5.632-28.16 14.848-39.936 11.264-14.336 27.648-23.552 46.080-25.6s36.352 3.072 50.688 14.336l287.745 224.768c4.608 3.584 8.704 7.68 11.776 11.776 21.504 28.16 16.384 68.098-11.776 89.602l-287.745 224.768c-11.776 9.216-26.624 14.848-41.472 14.848 0 0-1.024 0-1.536 0zM870.4 38.4c-28.16 0-51.2 23.040-51.2 51.2v716.8c0 28.16 23.040 51.2 51.2 51.2s51.2-23.040 51.2-51.2v-716.8c0-28.16-23.040-51.2-51.2-51.2z" />
<glyph unicode="&#xe945;" glyph-name="070" d="M853.325 878.106l-537.631-430.106 537.631-430.106v860.212zM767.99 700.559v-505.119l-315.699 252.559 315.699 252.559zM256 149.335v597.334h-85.335v-597.334h85.335z" />
<glyph unicode="&#xe946;" glyph-name="071" d="M170.675 878.106l537.631-430.106-537.631-430.106v860.212zM256.008 700.559v-505.119l315.701 252.559-315.701 252.559zM768 149.335v597.334h85.335v-597.334h-85.335z" />
<glyph unicode="&#xe947;" glyph-name="072" d="M1024 960v-1024l-806.45 512 806.45 512zM422.45 448l473.55-300.646v601.294l-473.55-300.648zM128 806.4v-711.066h-128v711.066h128z" />
<glyph unicode="&#xe948;" glyph-name="073" d="M0 960v-1024l806.451 512-806.451 512zM601.549 448l-473.549-300.646v601.294l473.549-300.648zM896 806.4v-711.066h128v711.066h-128z" />
<glyph unicode="&#xe949;" glyph-name="074" d="M362.5 55.296h-128c-64.512 0-115.2 41.472-115.2 93.696v597.506c0 52.736 50.688 93.696 115.2 93.696h128c64.512 0 115.2-41.472 115.2-93.696v-597.506c0-52.736-50.688-93.696-115.2-93.696zM221.7 159.744c3.072-1.024 7.168-2.048 12.8-2.048h128c5.632 0 9.728 1.024 12.8 2.048v576.514c-3.072 1.024-7.168 2.048-12.8 2.048h-128c-5.632 0-9.728-1.024-12.8-2.048v-576.514zM789.499 55.296h-128c-64.512 0-115.2 41.472-115.2 93.696v597.506c0 52.736 50.688 93.696 115.2 93.696h128c64.512 0 115.2-41.472 115.2-93.696v-597.506c0-52.736-50.688-93.696-115.2-93.696zM648.699 159.744c3.072-1.024 7.168-2.048 12.8-2.048h128c5.632 0 9.728 1.024 12.8 2.048v576.514c-3.072 1.024-7.168 2.048-12.8 2.048h-128c-5.632 0-9.728-1.024-12.8-2.048v-576.514z" />
<glyph unicode="&#xe94a;" glyph-name="075" d="M325.116 54.779c-11.776 0-23.552 1.024-35.328 3.584-42.496 9.216-78.848 34.304-101.888 71.173-15.872 25.083-25.088 53.755-25.6 83.451v468.483c1.024 45.056 19.456 84.992 50.688 115.2 31.744 29.696 73.728 46.080 116.224 44.544 29.184-1.024 57.856-9.728 82.944-25.6l374.783-233.472c35.328-21.504 60.416-55.808 70.656-96.768 10.24-40.963 3.584-82.947-17.92-118.787-13.312-21.504-31.232-39.936-53.248-53.248l-374.271-233.472c-26.112-16.896-55.808-25.6-86.528-25.6l-0.512 0.512zM324.604 738.301c-15.36 0-30.208-5.632-41.472-16.384-11.776-11.264-18.432-26.112-18.944-41.984v-465.411c0-9.728 3.584-20.48 9.728-29.696 8.704-13.312 22.016-23.035 37.888-26.112 15.872-3.579 31.744-0.512 45.056 8.192l375.295 233.984c8.192 5.12 14.336 11.264 18.944 18.944 7.68 12.288 9.728 27.136 6.144 41.475-3.584 14.336-12.288 26.112-24.576 33.792l-375.807 233.984c0 0 0 0-0.512 0-9.216 6.144-19.968 9.216-30.72 9.728-0.512 0-1.024 0-1.536 0l0.512-0.512z" />
<glyph unicode="&#xe94b;" glyph-name="076" d="M512 38.4c-225.792 0-409.6 183.808-409.6 409.6s183.808 409.6 409.6 409.6c225.792 0 409.6-183.808 409.6-409.6s-183.808-409.6-409.6-409.6zM512 755.2c-169.472 0-307.2-137.728-307.2-307.2s137.728-307.2 307.2-307.2c169.472 0 307.2 137.728 307.2 307.2s-137.728 307.2-307.2 307.2zM443.9 294.4c-28.16 0-51.2 23.040-51.2 51.2v204.8c0 28.16 23.040 51.2 51.2 51.2s51.2-23.040 51.2-51.2v-204.8c0-28.16-23.040-51.2-51.2-51.2zM580.101 294.4c-28.16 0-51.2 23.040-51.2 51.2v204.8c0 28.16 23.040 51.2 51.2 51.2s51.2-23.040 51.2-51.2v-204.8c0-28.16-23.040-51.2-51.2-51.2z" />
<glyph unicode="&#xe94c;" glyph-name="077" d="M512 38.4c-225.792 0-409.6 183.808-409.6 409.6s183.808 409.6 409.6 409.6c225.792 0 409.6-183.808 409.6-409.6s-183.808-409.6-409.6-409.6zM512 755.2c-169.472 0-307.2-137.728-307.2-307.2s137.728-307.2 307.2-307.2c169.472 0 307.2 137.728 307.2 307.2s-137.728 307.2-307.2 307.2zM472.57 290.816c-6.656 0-13.312 0.512-19.968 2.048-27.648 5.12-51.2 20.992-66.56 44.032-13.312 19.968-19.456 44.032-17.408 68.096v89.599c-2.56 23.040 5.632 50.176 23.552 71.68s43.008 34.816 70.656 37.376c24.064 2.56 48.128-4.096 68.609-17.408 0.512 0 1.024-1.024 1.536-1.024l83.968-61.952c41.472-30.72 50.176-89.599 19.456-131.071-5.632-7.68-12.288-14.336-19.456-19.456l-83.968-62.464c-18.944-12.8-39.425-19.456-60.417-19.456zM472.57 502.271c0 0-1.536-5.632-1.536-7.168v-100.863l75.777 53.76-73.217 54.271c0 0-0.512 0-1.024 0z" />
<glyph unicode="&#xe94d;" glyph-name="078" d="M512-64c-282.112 0-512 229.888-512 512s229.888 512 512 512c282.112 0 512-229.888 512-512s-229.888-512-512-512zM512 857.6c-225.792 0-409.6-183.808-409.6-409.6s183.808-409.6 409.6-409.6c225.792 0 409.6 183.808 409.6 409.6s-183.808 409.6-409.6 409.6zM426.5 268.8c-28.16 0-51.2 23.040-51.2 51.2v256c0 28.16 23.040 51.2 51.2 51.2s51.2-23.040 51.2-51.2v-256c0-28.16-23.040-51.2-51.2-51.2zM597.499 268.8c-28.16 0-51.2 23.040-51.2 51.2v256c0 28.16 23.040 51.2 51.2 51.2s51.2-23.040 51.2-51.2v-256c0-28.16-23.040-51.2-51.2-51.2z" />
<glyph unicode="&#xe94e;" glyph-name="079" d="M435.2 353.797v186.878l161.792-93.182-161.792-93.184v-0.512zM400.396 616.963c2.56 0 5.632-0.512 8.192-2.048l265.726-153.088c11.264-6.144 11.264-22.526 0-28.67l-265.726-153.088c-11.264-6.144-25.088 1.536-25.088 14.336v306.686c0 9.728 8.192 16.384 16.384 16.384l0.512-0.512zM512-64c-282.112 0-512 229.888-512 512s229.888 512 512 512c282.112 0 512-229.888 512-512s-229.888-512-512-512zM512 857.6c-225.792 0-409.6-183.808-409.6-409.6s183.808-409.6 409.6-409.6c225.792 0 409.6 183.808 409.6 409.6s-183.808 409.6-409.6 409.6z" />
<glyph unicode="&#xe94f;" glyph-name="080" d="M349.7 192c-28.16 0-51.2 32.916-51.2 73.144v365.713c0 40.228 23.040 73.143 51.2 73.143s51.2-32.914 51.2-73.143v-365.713c0-40.228-23.040-73.144-51.2-73.144zM674.299 192c-28.16 0-51.2 32.916-51.2 73.144v365.713c0 40.228 23.040 73.143 51.2 73.143s51.2-32.914 51.2-73.143v-365.713c0-40.228-23.040-73.144-51.2-73.144z" />
<glyph unicode="&#xe950;" glyph-name="081" d="M810.675 448l-448-295.603v591.204l448-295.601z" />
<glyph unicode="&#xe951;" glyph-name="082" d="M298.5 704h102.4v-512h-102.4v512zM623.099 704h102.4v-512h-102.4v512z" />
<glyph unicode="&#xe952;" glyph-name="083" d="M819.2 458.75l-537.6-354.722v709.446l537.6-354.724z" />
<glyph unicode="&#xe953;" glyph-name="084" d="M298.675 746.669h85.334v-597.335h-85.334v597.335zM640 746.669h85.334v-597.335h-85.334v597.335z" />
<glyph unicode="&#xe954;" glyph-name="085" d="M214.525 49.147v797.697l690.174-398.336-690.174-398.337v-1.024zM265.725 138.24l537.086 309.76-537.086 309.758v-620.030zM207.869-6.656c-23.040 0-44.544 18.432-44.544 44.544v820.734c0 34.304 36.864 55.808 66.56 38.4l710.654-410.624c29.696-16.896 29.696-59.902 0-76.798l-710.654-410.112c-7.168-4.096-14.848-6.144-22.016-6.144z" />
<glyph unicode="&#xe955;" glyph-name="086" d="M870.4 652.8h-716.8c-28.16 0-51.2 23.040-51.2 51.2s23.040 51.2 51.2 51.2h716.8c28.16 0 51.2-23.040 51.2-51.2s-23.040-51.2-51.2-51.2zM870.4 140.8h-716.8c-28.16 0-51.2 23.040-51.2 51.2s23.040 51.2 51.2 51.2h716.8c28.16 0 51.2-23.040 51.2-51.2s-23.040-51.2-51.2-51.2zM870.4 396.8h-716.8c-28.16 0-51.2 23.040-51.2 51.2s23.040 51.2 51.2 51.2h716.8c28.16 0 51.2-23.040 51.2-51.2s-23.040-51.2-51.2-51.2z" />
<glyph unicode="&#xe956;" glyph-name="087" d="M870.4 652.8h-716.8c-28.16 0-51.2 23.040-51.2 51.2s23.040 51.2 51.2 51.2h716.8c28.16 0 51.2-23.040 51.2-51.2s-23.040-51.2-51.2-51.2zM870.4 396.8h-716.8c-28.16 0-51.2 23.040-51.2 51.2s23.040 51.2 51.2 51.2h716.8c28.16 0 51.2-23.040 51.2-51.2s-23.040-51.2-51.2-51.2zM614.4 140.8h-460.8c-28.16 0-51.2 23.040-51.2 51.2s23.040 51.2 51.2 51.2h460.8c28.16 0 51.2-23.040 51.2-51.2s-23.040-51.2-51.2-51.2z" />
<glyph unicode="&#xe957;" glyph-name="088" d="M870.4 652.8h-716.8c-28.16 0-51.2 23.040-51.2 51.2s23.040 51.2 51.2 51.2h716.8c28.16 0 51.2-23.040 51.2-51.2s-23.040-51.2-51.2-51.2zM614.4 396.8h-460.8c-28.16 0-51.2 23.040-51.2 51.2s23.040 51.2 51.2 51.2h460.8c28.16 0 51.2-23.040 51.2-51.2s-23.040-51.2-51.2-51.2zM768 140.8h-614.4c-28.16 0-51.2 23.040-51.2 51.2s23.040 51.2 51.2 51.2h614.4c28.16 0 51.2-23.040 51.2-51.2s-23.040-51.2-51.2-51.2z" />
<glyph unicode="&#xe958;" glyph-name="089" d="M870.4 652.8h-716.8c-28.16 0-51.2 23.040-51.2 51.2s23.040 51.2 51.2 51.2h716.8c28.16 0 51.2-23.040 51.2-51.2s-23.040-51.2-51.2-51.2zM870.4 396.8h-716.8c-28.16 0-51.2 23.040-51.2 51.2s23.040 51.2 51.2 51.2h716.8c28.16 0 51.2-23.040 51.2-51.2s-23.040-51.2-51.2-51.2zM870.4 140.8h-512c-28.16 0-51.2 23.040-51.2 51.2s23.040 51.2 51.2 51.2h512c28.16 0 51.2-23.040 51.2-51.2s-23.040-51.2-51.2-51.2z" />
<glyph unicode="&#xe959;" glyph-name="090" d="M870.4 396.8h-716.8c-28.16 0-51.2 23.040-51.2 51.2s23.040 51.2 51.2 51.2h716.8c28.16 0 51.2-23.040 51.2-51.2s-23.040-51.2-51.2-51.2zM665.6 652.8h-307.2c-28.16 0-51.2 23.040-51.2 51.2s23.040 51.2 51.2 51.2h307.2c28.16 0 51.2-23.040 51.2-51.2s-23.040-51.2-51.2-51.2zM665.6 140.8h-307.2c-28.16 0-51.2 23.040-51.2 51.2s23.040 51.2 51.2 51.2h307.2c28.16 0 51.2-23.040 51.2-51.2s-23.040-51.2-51.2-51.2z" />
<glyph unicode="&#xe95a;" glyph-name="091" d="M153.4 345.59c56.554 0 102.4 45.844 102.4 102.4 0 56.552-45.846 102.398-102.4 102.398s-102.4-45.846-102.4-102.398c0-56.556 45.846-102.4 102.4-102.4zM511.8 345.59c56.556 0 102.401 45.844 102.401 102.4 0 56.552-45.844 102.398-102.401 102.398-56.554 0-102.4-45.846-102.4-102.398 0-56.556 45.846-102.4 102.4-102.4zM870.2 345.59c56.556 0 102.4 45.844 102.4 102.4 0 56.552-45.844 102.398-102.4 102.398s-102.4-45.846-102.4-102.398c0-56.556 45.844-102.4 102.4-102.4z" />
<glyph unicode="&#xe95b;" glyph-name="092" d="M409.588 806.606c0-56.554 45.846-102.4 102.4-102.4 56.552 0 102.402 45.846 102.402 102.4s-45.85 102.4-102.402 102.4c-56.554 0-102.4-45.846-102.4-102.4zM409.588 448.206c0-56.552 45.846-102.402 102.4-102.402 56.552 0 102.402 45.85 102.402 102.402 0 56.554-45.85 102.4-102.402 102.4-56.554 0-102.4-45.846-102.4-102.4zM409.588 89.805c0-56.55 45.846-102.4 102.4-102.4 56.552 0 102.402 45.85 102.402 102.4 0 56.556-45.85 102.4-102.402 102.4-56.554 0-102.4-45.844-102.4-102.4z" />
<glyph unicode="&#xe95c;" glyph-name="093" d="M588.81 448.012c0 15.19-4.5 30.039-12.943 42.668-8.438 12.63-20.429 22.473-34.463 28.286s-29.477 7.334-44.375 4.37c-14.898-2.963-28.582-10.278-39.323-21.019s-18.055-24.425-21.018-39.323c-2.963-14.898-1.443-30.34 4.37-44.374s15.656-26.025 28.286-34.468c12.63-8.438 27.478-12.943 42.665-12.943 20.372 0 39.905 8.095 54.308 22.497s22.492 33.935 22.492 54.305zM290.138 448.006c0 15.19-4.505 30.038-12.943 42.668s-20.433 22.473-34.467 28.286c-14.033 5.813-29.475 7.334-44.373 4.37s-28.582-10.278-39.323-21.019c-10.741-10.741-18.055-24.425-21.019-39.323s-1.442-30.339 4.37-44.373c5.813-14.034 15.656-26.030 28.286-34.468s27.479-12.943 42.668-12.943c20.368 0 39.903 8.095 54.306 22.497s22.494 33.935 22.494 54.304zM887.475 448.012c0 15.19-4.506 30.039-12.943 42.668s-20.434 22.473-34.468 28.286c-14.034 5.813-29.476 7.334-44.37 4.37-14.899-2.963-28.585-10.278-39.327-21.019-10.737-10.74-18.053-24.425-21.018-39.323s-1.444-30.34 4.372-44.374c5.811-14.034 15.657-26.025 28.283-34.468 12.631-8.438 27.479-12.943 42.67-12.943 20.367 0 39.905 8.095 54.308 22.497s22.492 33.935 22.492 54.305z" />
<glyph unicode="&#xe95d;" glyph-name="094" d="M512.010 371.195c15.191 0 30.039 4.506 42.67 12.943s22.472 20.434 28.288 34.468c5.811 14.029 7.332 29.473 4.367 44.37s-10.276 28.582-21.018 39.323c-10.742 10.741-24.422 18.055-39.322 21.019s-30.341 1.442-44.374-4.37c-14.033-5.813-26.028-15.656-34.467-28.286s-12.943-27.478-12.943-42.666c0-20.367 8.092-39.905 22.494-54.308s33.937-22.492 54.304-22.492zM512 669.862c15.191 0 30.039 4.505 42.67 12.943 12.626 8.439 22.472 20.433 28.283 34.467 5.816 14.033 7.337 29.475 4.372 44.373s-10.281 28.582-21.018 39.323c-10.742 10.741-24.428 18.055-39.327 21.019-14.894 2.963-30.338 1.442-44.371-4.37s-26.028-15.656-34.466-28.286c-8.439-12.63-12.943-27.479-12.943-42.668 0-20.368 8.092-39.903 22.494-54.306s33.937-22.494 54.306-22.494zM512.010 72.525c15.191 0 30.039 4.506 42.67 12.943s22.472 20.434 28.288 34.468c5.811 14.034 7.332 29.476 4.367 44.37-2.964 14.899-10.276 28.585-21.018 39.327-10.742 10.737-24.422 18.053-39.322 21.018s-30.341 1.444-44.374-4.372c-14.033-5.811-26.028-15.657-34.467-28.283-8.439-12.631-12.943-27.479-12.943-42.67 0-20.367 8.092-39.905 22.494-54.308s33.937-22.492 54.304-22.492z" />
<glyph unicode="&#xe95e;" glyph-name="095" d="M384 627.2c15.19 0 30.038 4.504 42.668 12.943s22.474 20.433 28.286 34.466c5.813 14.033 7.334 29.475 4.37 44.374s-10.278 28.582-21.019 39.323c-10.741 10.741-24.425 18.055-39.323 21.019s-30.34 1.442-44.373-4.37c-14.033-5.813-26.028-15.656-34.466-28.286s-12.943-27.478-12.943-42.668c0-20.369 8.092-39.903 22.494-54.306s33.937-22.494 54.306-22.494zM640 627.2c15.191 0 30.039 4.504 42.67 12.943 12.626 8.439 22.472 20.433 28.283 34.466 5.816 14.033 7.337 29.475 4.372 44.374s-10.281 28.582-21.018 39.323c-10.742 10.741-24.428 18.055-39.327 21.019-14.894 2.963-30.336 1.442-44.37-4.37s-26.030-15.656-34.468-28.286c-8.438-12.63-12.943-27.478-12.943-42.668 0-20.369 8.090-39.903 22.492-54.306s33.94-22.494 54.308-22.494zM384 371.2c15.19 0 30.038 4.506 42.668 12.943s22.474 20.434 28.286 34.468c5.813 14.034 7.334 29.474 4.37 44.371s-10.278 28.582-21.019 39.323c-10.741 10.741-24.425 18.055-39.323 21.019s-30.34 1.442-44.373-4.37c-14.033-5.813-26.028-15.656-34.466-28.286s-12.943-27.479-12.943-42.668c0-20.367 8.092-39.905 22.494-54.308s33.937-22.492 54.306-22.492zM640 371.2c15.191 0 30.039 4.506 42.67 12.943 12.626 8.438 22.472 20.434 28.283 34.468 5.816 14.034 7.337 29.474 4.372 44.371s-10.281 28.582-21.018 39.323c-10.742 10.741-24.428 18.055-39.327 21.019-14.894 2.963-30.336 1.442-44.37-4.37s-26.030-15.656-34.468-28.286c-8.438-12.63-12.943-27.479-12.943-42.668 0-20.367 8.090-39.905 22.492-54.308s33.94-22.492 54.308-22.492zM384 115.2c15.19 0 30.038 4.506 42.668 12.943s22.474 20.434 28.286 34.468c5.813 14.034 7.334 29.476 4.37 44.37-2.963 14.899-10.278 28.585-21.019 39.327-10.741 10.737-24.425 18.053-39.323 21.018s-30.34 1.444-44.373-4.372c-14.033-5.811-26.028-15.657-34.466-28.283-8.439-12.631-12.943-27.479-12.943-42.67 0-20.367 8.092-39.905 22.494-54.308s33.937-22.492 54.306-22.492zM640 115.2c15.191 0 30.039 4.506 42.67 12.943 12.626 8.438 22.472 20.434 28.283 34.468 5.816 14.034 7.337 29.476 4.372 44.37-2.964 14.899-10.281 28.585-21.018 39.327-10.742 10.737-24.428 18.053-39.327 21.018-14.894 2.964-30.336 1.444-44.37-4.372-14.034-5.811-26.030-15.657-34.468-28.283-8.438-12.631-12.943-27.479-12.943-42.67 0-20.367 8.090-39.905 22.492-54.308s33.94-22.492 54.308-22.492z" />
<glyph unicode="&#xe95f;" glyph-name="096" d="M512.005 76.8c-86.017 0-172.545 31.744-240.129 95.232-5.12 4.608-9.728 9.728-14.336 14.336-47.616 49.664-80.384 112.128-95.232 179.712-6.144 27.648 11.776 54.784 39.424 60.928s54.784-11.776 60.928-39.424c10.752-49.152 34.304-94.208 69.12-130.56 3.584-4.096 7.168-7.168 10.752-10.752 99.328-93.696 256.001-89.088 349.697 10.24 26.624 27.648 47.104 50.688 62.976 69.12h-106.496c-28.16 0-51.2 23.040-51.2 51.2s23.040 51.2 51.2 51.2h203.776c0 0 3.072 0 4.096 0 6.144 0 11.776-2.048 16.896-4.096 7.168-3.072 13.312-7.68 17.92-13.312 5.12-5.632 8.704-12.288 10.752-19.968 1.536-4.608 2.048-9.728 2.048-14.336v-212.48c0-28.16-23.040-51.2-51.2-51.2s-51.2 23.040-51.2 51.2v60.928c-10.752-11.776-22.528-24.576-35.84-38.4-68.608-72.704-161.28-109.568-253.952-109.568zM811.525 467.97c-23.552 0-45.056 16.384-50.176 40.448-10.752 49.152-34.304 94.208-69.12 130.56-3.584 4.096-7.168 7.168-10.752 10.752-48.128 45.056-111.104 69.12-176.641 67.072-66.048-2.048-127.488-29.696-172.544-77.312-26.624-27.648-47.104-50.688-62.976-69.12h106.496c28.16 0 51.2-23.040 51.2-51.2s-23.040-51.2-51.2-51.2h-203.776c0 0-2.56 0-4.096 0-6.144 0-11.776 2.048-16.896 4.096-7.168 3.072-13.312 7.68-18.432 13.312s-8.704 12.288-10.752 19.456c-1.536 4.608-2.048 9.728-2.048 14.848v212.48c0 28.16 23.040 51.2 51.2 51.2s51.2-23.040 51.2-51.2v-60.928c10.752 11.776 22.528 24.576 35.84 38.4 64 67.584 150.528 106.496 243.712 109.568 93.697 2.56 182.273-31.232 250.369-95.232 5.12-4.608 9.728-9.728 14.336-14.336 47.616-49.664 80.384-112.128 95.232-179.712 6.144-27.648-11.776-54.784-39.424-60.928-3.584-1.024-7.168-1.024-10.752-1.024z" />
<glyph unicode="&#xe960;" glyph-name="097" d="M572.411 76.8c0 0-3.072 0-4.608 0-164.863 2.048-307.711 109.568-354.815 267.776-8.192 27.136 7.168 55.808 34.304 63.488 27.136 8.192 55.808-7.168 63.488-34.304 34.304-115.2 138.24-193.024 258.047-194.56 74.752-2.048 141.824 26.624 193.536 77.824 52.224 50.688 81.408 118.784 81.92 192-1.024 69.632-29.184 136.704-78.848 187.392-105.984 107.008-279.039 107.52-386.047 2.048-20.48-21.504-40.96-44.032-60.416-67.584h109.568c28.16 0 51.2-23.040 51.2-51.2s-23.040-51.2-51.2-51.2h-215.040c-5.632 0-11.776 1.024-17.408 2.56-5.632 2.048-11.264 5.12-15.872 9.216-5.632 4.608-9.728 10.24-13.312 16.384-3.072 6.144-5.12 12.8-5.12 19.968 0 1.024 0 2.048 0 3.584v212.48c0 28.16 23.040 51.2 51.2 51.2s51.2-23.040 51.2-51.2v-69.12c13.824 15.872 28.16 31.232 42.496 46.080 147.968 146.944 386.047 145.408 531.967-1.536 68.608-69.632 107.52-161.792 108.544-259.072-1.024-101.376-41.472-195.072-113.152-265.216-70.656-69.12-163.328-106.496-262.144-106.496l0.512-0.512z" />
<glyph unicode="&#xe961;" glyph-name="098" d="M66.563 295.429c-28.16 0-51.2 23.040-51.2 51.2v324.093c0 35.328 13.824 68.608 38.4 93.184s58.368 38.912 93.184 38.912h809.987c28.155 0 51.2-23.040 51.2-51.2s-23.045-51.2-51.2-51.2h-809.475c-8.192 0-15.36-3.072-20.992-8.704s-8.704-12.8-8.704-20.992v-324.093c0-28.16-23.040-51.2-51.2-51.2zM957.44 700.417h-202.24c-28.16 0-51.2 23.040-51.2 51.2s23.040 51.2 51.2 51.2h48.64l-38.912 29.184c-22.528 16.896-27.136 49.152-10.24 71.68s49.152 27.136 71.68 10.24l161.792-121.344c17.408-13.312 24.576-36.352 17.92-57.344-7.168-20.992-26.624-34.816-48.64-34.816zM876.549 93.184h-809.987c-28.16 0-51.2 23.040-51.2 51.2s23.040 51.2 51.2 51.2h809.987c8.192 0 15.355 3.072 20.992 8.704 5.632 5.632 8.704 13.312 8.704 20.992v324.095c0 28.16 23.040 51.2 51.2 51.2 28.155 0 51.2-23.040 51.2-51.2v-324.095c0-35.328-13.829-68.608-38.4-93.184-25.088-25.088-58.373-38.912-93.189-38.912h-0.507zM228.35-28.155c-10.752 0-21.504 3.072-30.72 10.24l-161.792 121.344c-17.408 13.312-24.576 36.352-17.92 57.344 7.168 20.992 26.624 34.816 48.64 34.816h202.752c28.16 0 51.2-23.040 51.2-51.2s-23.040-51.2-51.2-51.2h-49.152l38.912-29.184c22.528-16.896 27.136-49.152 10.24-71.68-10.24-13.312-25.6-20.48-40.96-20.48z" />
<glyph unicode="&#xe962;" glyph-name="099" d="M263.678 98.304c-82.944 3.072-146.944 71.168-143.872 152.576v296.958c-2.56 79.36 61.44 147.968 142.336 150.528h66.56l19.456 31.232c25.6 41.984 70.656 68.096 120.32 68.608h87.042c50.688-0.512 95.744-26.624 121.344-69.12l18.944-30.72h64.512c82.944-3.072 146.944-71.168 144.384-152.576v-296.446c2.048-80.896-61.952-148.48-142.848-151.552h-498.178v0.512zM263.678 595.966c-23.040-1.024-42.496-21.505-41.984-46.592v-300.542c-1.024-26.624 18.944-47.616 43.52-48.128h494.594c23.040 1.024 42.496 22.016 41.984 46.592 0 0.512 0 1.024 0 1.536v298.494c1.024 26.624-18.432 47.616-43.52 48.128h-91.136c-17.408 0-34.304 9.216-43.52 24.064l-34.304 55.296c-7.68 12.8-20.992 19.968-34.816 20.48h-86.018c-13.312 0-26.624-7.68-33.792-19.456l-34.816-55.808c-9.216-14.848-25.6-24.064-43.52-24.064h-92.672zM512 239.104c-98.816 0-179.2 80.384-179.2 179.2 0 98.818 80.384 179.202 179.2 179.202s179.2-80.384 179.2-179.202c0-98.816-80.384-179.2-179.2-179.2zM512 495.106c-42.496 0-76.8-34.304-76.8-76.802 0-42.496 34.304-76.8 76.8-76.8s76.8 34.304 76.8 76.8c0 42.498-34.304 76.802-76.8 76.802z" />
<glyph unicode="&#xe963;" glyph-name="100" d="M395.218 789.338h233.564l62.039-99.542h205.179v-583.121h-768v583.121h205.18l62.038 99.542zM442.585 704.004l-62.037-99.542h-167.214v-412.457h597.331v412.457h-167.214l-62.034 99.542h-138.832zM511.992 490.666c-47.129 0-85.334-38.205-85.334-85.331 0-47.13 38.205-85.335 85.334-85.335 47.128 0 85.333 38.205 85.333 85.335 0 47.127-38.205 85.331-85.333 85.331zM341.325 405.335c0 94.255 76.41 170.665 170.667 170.665s170.668-76.41 170.668-170.665c0-94.259-76.411-170.67-170.668-170.67s-170.667 76.411-170.667 170.67z" />
<glyph unicode="&#xe964;" glyph-name="101" d="M853.504 55.296c-13.312 0-26.112 5.12-36.352 14.848l-235.52 235.52c0 0-1.536 1.536-2.56 2.56l-188.417 188.415c0 0-3.584 3.072-5.12 5.12l-250.88 251.392c-19.968 19.968-19.968 52.224 0 72.192s52.224 19.968 72.192 0l89.6-87.552c3.584 0 9.216 4.608 11.776 10.752l1.536 5.12c2.048 6.144 3.072 8.704 4.096 11.264 16.896 42.496 57.344 72.192 103.424 75.264h186.369c49.152-2.56 89.6-32.256 106.496-74.752 1.024-2.56 2.048-5.632 4.096-10.752l2.048-6.144c2.56-6.144 8.192-10.24 14.848-10.752h6.144c15.36 0 23.040 0 29.184-0.512 72.192-7.168 130.048-65.024 137.216-137.216 0.512-6.144 0.512-13.824 0.512-28.16v-328.703c0-31.744-9.728-62.464-27.648-87.552l12.8-12.8c19.968-19.968 19.968-52.224 0-72.192-10.24-10.24-23.040-14.848-36.352-14.848l0.512-0.512zM681.472 350.72l119.296-119.296c1.024 3.584 1.536 7.68 1.536 11.776v328.703c0 9.216 0 13.824 0 17.92-2.56 24.064-21.504 43.52-46.080 45.568-4.096 0-9.216 0-18.944 0h-9.216c-49.152 3.072-90.112 32.256-107.008 75.264-0.512 2.048-1.536 4.608-3.072 8.704l-2.56 8.192c-2.56 5.632-8.192 9.728-14.848 10.24h-179.713c-3.584 0-9.216-4.608-11.776-10.752l-2.048-5.632c-2.048-5.632-3.072-8.704-4.096-11.264-7.68-18.432-19.456-34.304-34.304-47.104l62.976-62.976c64.512 30.208 142.337 21.504 199.169-25.6 67.072-55.808 86.016-148.479 50.688-224.255v0.512zM516.608 515.583l79.36-79.359c-1.536 22.527-11.776 44.543-30.72 60.415-14.336 11.776-31.232 18.432-48.64 19.456v-0.512zM306.175 88.064c-32.256 0-65.024 5.12-95.744 15.36-2.56 1.024-5.12 2.048-7.168 3.072-29.184 14.848-52.224 37.888-67.072 67.072-1.024 2.56-2.048 4.608-3.072 7.168-13.312 40.448-17.92 84.48-13.824 126.464v294.399c0 28.16 23.040 51.2 51.2 51.2s51.2-23.040 51.2-51.2v-296.959c0 0 0-3.584 0-5.632-3.072-27.648 0-55.808 7.68-81.92 4.096-7.168 10.24-13.312 17.408-17.408 26.112-8.192 54.784-10.752 81.92-7.68 2.048 0 3.584 0 5.632 0h296.961c28.16 0 51.2-23.040 51.2-51.2s-23.040-51.2-51.2-51.2h-294.401c-10.24-1.024-20.48-1.536-30.72-1.536zM511.999 243.2c-103.424 0-187.904 83.968-187.904 187.904 0 28.159 23.040 51.199 51.2 51.199s51.2-23.040 51.2-51.199c0-47.104 38.4-85.504 85.504-85.504 28.161 0 51.201-23.040 51.201-51.2s-23.040-51.2-51.201-51.2z" />
<glyph unicode="&#xe965;" glyph-name="102" d="M823.168 76.493l-682.668 682.668 60.34 60.34 682.668-682.668-60.339-60.339zM582.226 684.585h-163.324v85.334h208.985l62.080-93.099h206.034v-394.539h-85.335v309.206h-166.359l-62.080 93.098zM128 676.82h197.802v-85.333h-112.469v-380.077h577.922v-85.33h-663.255v550.74zM465.699 483.84c-15.636-10.956-27.147-26.84-32.69-45.107-5.457-17.987-4.821-37.263 1.795-54.84 5.937-13.189 15.22-24.602 26.932-33.106 11.954-8.678 26.006-14.013 40.708-15.447s29.519 1.075 42.928 7.276c13.404 6.205 24.919 15.867 33.341 28.001l70.093-48.671c-17.085-24.602-40.422-44.201-67.61-56.776s-57.236-17.669-87.048-14.761c-29.812 2.913-58.307 13.727-82.546 31.324s-43.344 41.344-55.346 68.787l-0.357 0.819-0.323 0.829c-13.824 35.594-15.312 74.798-4.225 111.337 11.087 36.54 34.108 68.307 65.38 90.219l48.967-69.885z" />
<glyph unicode="&#xe966;" glyph-name="103" d="M702.459 53.76c-10.752 0-22.016 0.512-32.768 1.536h-315.392c-46.080-4.608-93.184 0.512-137.216 15.36-2.56 1.024-5.12 2.048-7.168 3.072-31.232 15.872-56.32 40.96-72.192 72.192-1.024 2.56-2.048 4.608-3.072 7.168-14.848 45.056-19.968 91.648-14.848 138.24v312.83c-4.608 46.592 0 94.208 14.848 138.752 1.024 2.56 2.048 5.12 3.072 7.168 15.872 31.232 40.96 56.32 72.192 72.192 2.56 1.024 4.608 2.048 7.168 3.072 44.544 14.848 92.16 19.968 138.752 14.848h313.344c47.104 4.608 93.696 0 138.752-14.848 2.56-1.024 4.608-2.048 7.168-3.072 31.232-15.872 56.32-40.96 72.192-72.192 1.024-2.56 2.048-4.608 3.072-7.168 14.336-44.544 19.968-92.16 14.848-138.752v-312.318c5.12-47.104 0-94.208-14.848-139.264-1.024-2.56-2.048-5.12-3.072-7.168-15.872-31.232-40.96-56.32-72.192-72.192-2.56-1.024-4.608-2.048-7.168-3.072-33.792-11.264-69.12-16.896-104.96-16.896l-0.512 0.512zM679.419 157.184c30.72-3.072 62.464 0 91.648 9.216 9.216 5.632 16.896 13.312 22.528 22.528 9.216 29.696 12.288 60.416 9.216 91.136 0 2.56-0.512 5.632-0.512 8.192v24.576l-131.584 131.584c0 0-2.56 2.56-3.584 4.094-1.024 1.024-2.048 2.048-3.072 3.072-1.024-1.024-2.048-2.048-3.072-3.072-1.024-1.534-2.56-3.070-3.584-4.094l-286.72-286.72h301.056c2.56 0 5.12 0 8.192-0.512h-0.512zM230.395 188.928c3.072-5.632 7.168-10.752 12.288-14.848 5.632 6.656 12.8 13.312 19.968 20.48l320.512 320.51c12.8 15.36 28.16 27.648 46.080 36.864 2.56 1.024 4.608 2.048 7.168 3.072 17.92 5.632 36.864 5.632 55.296 0 2.56-1.024 5.12-2.048 7.168-3.072 17.408-8.704 33.28-21.504 46.080-36.864l57.344-57.344v149.504c0 0 0 3.584 0 5.632 3.584 31.232 0 64-8.704 94.208-5.632 9.216-13.312 16.896-22.528 22.528-30.72 9.216-61.952 12.288-94.208 8.704-2.048 0-3.584 0-5.632 0h-318.464c0 0-3.584 0-5.632 0-31.744 3.584-64 0-94.208-8.704-9.216-5.632-16.896-13.312-22.528-22.528-9.216-30.208-12.288-62.464-8.704-94.208 0-2.048 0-3.584 0-5.632v-318.462c0 0 0-3.584 0-5.632-3.584-31.744-0.512-63.488 8.704-93.696v-0.512zM379.387 453.63c-70.144 0-126.976 57.344-126.976 127.488 0 69.632 57.344 126.464 126.976 126.976 69.12 0 124.928-54.784 126.976-123.392 0-1.536 0-2.56 0-4.096 0-33.792-13.312-66.048-37.376-89.6-24.064-24.064-55.808-36.864-89.6-36.864v-0.512zM379.387 605.182c-13.312 0-24.576-11.264-24.576-24.576 0-13.824 11.264-24.576 24.576-24.576 8.704 0 14.848 4.608 17.408 7.168s6.656 7.68 7.168 15.872c0 0.512 0 1.024 0 2.048 0 13.824-11.264 24.576-24.576 24.576v-0.512z" />
<glyph unicode="&#xe967;" glyph-name="104" d="M718.341 96.768c-10.24 0-20.992 0.512-31.232 1.536h-349.697c-42.496-4.096-85.504 0-126.464 13.312-2.56 1.024-4.608 1.536-7.168 3.072-29.184 14.336-52.224 36.864-67.584 65.536-1.024 2.56-2.56 5.12-3.072 7.68-13.312 39.424-17.92 82.432-13.824 123.904v273.405c-4.096 41.472 0 84.48 13.824 124.416 1.024 2.56 2.048 5.12 3.072 7.68 14.848 28.672 38.4 51.2 67.584 65.536 2.048 1.024 4.608 2.048 7.168 3.072 40.96 13.312 83.456 17.408 125.952 13.312h349.697c43.008 4.096 84.992 0 125.952-13.312 2.56-1.024 4.608-1.536 7.168-3.072 29.184-14.336 52.224-36.864 67.584-65.536 1.024-2.56 2.56-5.12 3.072-7.68 13.312-39.424 18.432-82.432 13.824-123.904v-233.469c0 0 0-3.584 0-5.632v-34.304c4.608-41.472 0-84.48-13.824-123.904-1.024-2.56-2.048-5.12-3.072-7.68-14.848-28.672-38.4-51.2-67.584-65.536-2.048-1.024-4.608-2.048-7.168-3.072-30.72-9.728-62.464-14.848-94.72-14.848l0.512-0.512zM365.060 200.704h293.889l-113.152 110.080c0 0-1.536 1.536-2.048 2.048l-28.16 27.648c-1.024 1.024-2.048 2.048-3.072 3.072-1.025-1.024-2.049-2.048-3.073-3.072l-143.872-139.776h-0.512zM653.829 348.672l135.68-131.584c0 0 4.096 5.12 5.632 7.68 7.68 25.088 10.24 52.224 7.168 78.336 0 2.048 0 4.096 0 6.144v18.432l-82.432 79.872c0 0-2.048 2.048-3.072 3.072-1.024-1.024-2.048-2.048-3.072-3.072l-59.904-58.368v-0.512zM228.868 224.768c1.536-3.072 3.584-5.632 6.144-7.68l201.216 195.584c11.776 13.824 26.624 25.088 43.008 33.28 2.048 1.024 4.608 2.048 7.168 3.069 16.896 5.12 34.817 5.12 52.225 0 2.56-1.021 4.608-1.533 7.168-3.069 12.8-6.144 25.088-14.848 35.328-25.088l59.904 58.365c11.776 13.824 26.624 25.088 43.008 33.28 2.56 1.024 4.608 2.048 7.168 3.072 16.896 5.12 34.816 5.12 51.712 0 2.56-1.024 5.12-1.536 7.168-3.072 16.384-8.192 31.232-19.456 43.008-33.28l9.216-8.704v117.76c0 0 0 4.096 0 6.144 3.072 26.112 0 53.248-7.168 78.336-4.096 7.168-10.24 12.8-17.408 16.896-27.136 8.192-54.784 10.24-82.944 7.68-2.048 0-3.584 0-5.632 0h-354.817c0 0-3.584 0-5.632 0-28.16 3.072-55.808 0-82.944-7.68-7.168-4.096-12.8-9.728-17.408-16.896-7.68-25.088-10.24-52.224-7.168-78.336 0-2.048 0-4.096 0-5.632v-278.525c0 0 0-4.096 0-5.632-3.072-26.112 0-52.736 7.168-77.824l0.512-2.048zM375.3 425.984c-30.72 0-59.392 11.264-81.92 32.765-23.040 22.016-36.352 51.712-37.376 83.456-2.048 66.048 50.176 120.832 116.224 122.88 0.512 0 1.024 0 2.048 0 67.072 0 119.808-51.712 120.832-116.224 1.536-65.536-50.176-120.829-116.224-122.365-1.024 0-2.56 0-3.584 0v-0.512zM376.324 562.685c-10.752 0-17.92-8.192-17.92-17.408s7.168-15.872 17.408-16.384c9.216 0 16.896 8.192 16.384 17.408 0 0 0 0 0 0.512 0 8.704-7.168 15.872-15.872 15.872z" />
<glyph unicode="&#xe968;" glyph-name="105" d="M128 832h768v-768h-768v768zM213.334 746.666v-597.331h597.331v597.331h-597.331zM409.608 610.129c-14.138 0-25.6-11.462-25.6-25.6s11.462-25.6 25.6-25.6c14.138 0 25.6 11.461 25.6 25.6s-11.462 25.6-25.6 25.6zM298.675 584.529c0 61.266 49.667 110.933 110.933 110.933s110.932-49.667 110.932-110.933c0-61.267-49.665-110.934-110.932-110.934s-110.933 49.667-110.933 110.934zM728.771 398.162l-142.351-122.143c-21.202-17.306-47.734-26.762-75.105-26.762s-53.901 9.457-75.105 26.762l-0.603 0.492-11.078 9.733c-5.498 4.275-12.179 6.769-19.145 7.142-7.101 0.374-14.14-1.475-20.135-5.294l-167.931-112.748-47.566 70.845 168.858 113.367c21.16 13.711 46.115 20.378 71.294 19.041s49.29-10.604 68.88-26.476l0.664-0.538 11.203-9.846c5.889-4.628 13.165-7.148 20.666-7.148 7.567 0 14.909 2.565 20.823 7.27l142.28 122.086c21.197 17.352 47.754 26.832 75.146 26.832 27.397 0 53.949-9.48 75.151-26.832l0.42-0.342 55.875-48.14-55.695-64.65-54.979 47.365c-5.898 4.7-13.22 7.265-20.772 7.265-7.557 0-14.894-2.575-20.792-7.286z" />
<glyph unicode="&#xe969;" glyph-name="106" d="M836.101 252.923c0 0-3.584 0-5.12 0-24.576 2.048-40.448 16.896-59.904 36.352l-124.416 122.368c-9.728 9.728-15.36 23.040-15.36 36.352 0 13.314 5.632 27.138 15.36 36.354l123.904 121.856c20.48 19.968 35.328 34.304 59.904 36.352 21.504 1.536 43.008-7.168 57.344-23.040 16.896-18.944 16.896-40.96 16.896-68.608v-205.826c0-27.648 0-49.664-16.384-68.608-12.8-14.848-32.256-23.552-51.712-23.552h-0.512zM755.717 447.995l46.592-45.568v91.138l-46.592-45.57zM547.835 160.768c-10.24 0-20.992 0.512-31.232 1.536h-179.2c-43.008-4.096-85.504 0-126.464 13.312-2.56 1.024-4.608 1.536-7.168 3.072-29.184 14.336-52.224 37.376-67.072 66.048-1.024 2.56-2.048 4.608-3.072 7.168-13.312 39.936-18.432 82.944-13.824 124.928v141.826c-4.608 41.984 0 84.992 13.824 124.928 1.024 2.56 2.048 5.12 3.072 7.168 14.848 28.672 38.4 51.712 67.072 66.048 2.56 1.024 4.608 2.048 7.168 3.072 40.96 13.312 83.456 17.408 126.464 13.312h179.2c42.496 4.096 85.504 0 126.464-13.312 2.56-1.024 5.12-1.536 7.168-3.072 29.184-14.336 52.224-37.376 67.072-66.048 1.024-2.56 2.048-4.608 3.072-7.168 13.312-39.936 18.432-82.944 13.824-124.928v-141.826c4.096-41.984 0-84.992-13.824-124.928-1.024-2.56-2.048-5.12-3.072-7.168-14.848-28.672-38.4-51.712-67.072-66.048-2.56-1.024-4.608-2.048-7.168-3.072-31.232-10.24-62.976-14.848-94.72-14.848h-0.512zM334.331 264.704h184.32c0 0 3.584 0 5.632 0 28.16-3.072 55.808-0.512 82.432 7.68 7.168 4.096 13.312 10.24 17.408 16.896 7.68 25.6 10.752 53.248 7.68 79.872 0 2.048 0 4.096 0 5.632v147.458c0 0 0 4.096 0 5.632 3.072 26.624 0 54.272-7.68 79.872-4.096 7.168-10.24 12.8-17.408 16.896-26.624 8.192-54.272 10.752-82.432 7.68-2.048 0-3.584 0-5.632 0h-184.32c0 0-3.584 0-5.632 0-28.16 3.072-55.808 0.512-82.432-7.68-7.168-4.096-13.312-10.24-17.408-16.896-7.68-25.6-10.752-53.248-7.68-79.36 0-2.048 0-4.096 0-5.632v-147.458c0 0 0-4.096 0-5.632-3.072-26.624 0-54.272 7.68-79.872 4.096-7.168 10.24-12.8 17.408-16.896 26.624-8.192 54.784-10.752 82.432-7.68 2.048 0 3.584 0 5.632 0v-0.512z" />
<glyph unicode="&#xe96a;" glyph-name="107" d="M895.995 692.5v-488.995l-274.396 244.498 274.396 244.497zM749.87 448.003l60.795-54.168v108.335l-60.795-54.168zM128 704h542.464v-512h-542.464v512zM213.334 618.666v-341.331h371.795v341.331h-371.795z" />
<glyph unicode="&#xe96b;" glyph-name="108" d="M853.499 55.296c-13.312 0-26.112 5.12-36.352 14.848l-130.048 130.048c-27.648-27.136-65.536-43.008-106.496-43.008h-307.2c-84.48 0-153.6 69.12-153.6 153.6v272.894c0 50.176 24.064 94.208 60.928 122.368l-46.080 46.080c-19.968 19.968-19.968 52.224 0 72.192s52.224 19.968 72.192 0l682.496-682.494c19.968-19.968 19.968-52.224 0-72.192-10.24-10.24-23.040-14.848-36.352-14.848l0.512 0.512zM254.971 632.318c-19.456-7.168-33.28-26.112-33.28-48.128v-272.894c0-28.16 23.040-51.2 51.2-51.2h307.2c12.8 0 25.088 4.608 34.304 12.8l-359.424 359.422zM836.091 249.856c0 0-3.072 0-5.12 0-25.088 2.048-40.448 17.408-59.904 36.864l-124.416 124.928c0 0 0 0.512-0.512 1.024-4.608 4.608-8.192 10.24-10.24 15.872-2.56 5.632-3.584 12.288-4.096 18.944v75.774c0 0 0 3.584 0 5.632 3.072 27.648 0 55.808-7.68 81.92-4.096 7.168-10.24 13.312-17.408 17.408-26.624 8.192-54.784 10.752-81.92 7.68-2.048 0-3.584 0-5.632 0h-92.16c-28.16 0-51.2 23.040-51.2 51.2s23.040 51.2 51.2 51.2h89.6c42.496 4.096 86.016 0 126.976-13.824 2.56-1.024 5.12-2.048 7.168-3.072 29.184-14.848 52.224-37.888 67.072-67.072 1.024-2.56 2.048-4.608 3.072-7.168 7.68-24.064 12.8-49.152 14.336-74.752l35.84 35.84c20.48 20.48 35.328 35.328 60.416 37.376 21.504 1.536 43.008-7.168 56.832-23.552 16.384-18.944 16.384-40.96 16.384-69.12v-209.406c0-27.648 0-50.176-16.384-69.12-12.8-15.36-32.256-24.064-52.224-24.064v-0.512zM755.195 448l47.104-47.104v94.206l-47.104-47.102z" />
<glyph unicode="&#xe96c;" glyph-name="109" d="M768 106.496h-768v683.010h768v-683.010zM102.4 208.896h563.2v478.21h-563.2v-478.21zM301.050 441.856v98.817c0 12.8 10.24 23.040 23.552 23.040 4.096 0 8.192-1.024 11.776-3.072l164.352-98.304c11.264-6.656 14.849-20.993 8.192-31.745-2.048-3.072-4.608-6.144-8.192-8.192l-164.352-98.304c-11.264-6.656-25.6-3.072-31.744 8.192-2.048 3.584-3.072 7.68-3.072 11.776v98.816l-0.512-1.024zM921.59 523.263l-125.44-75.263 125.44-75.264v150.015zM980.982 671.231c22.528 0 43.008-17.92 43.008-43.008v-361.471c0-33.28-36.352-53.76-64.512-36.352l-276.48 165.888v102.399l276.48 165.889c7.168 4.096 14.336 6.144 22.016 6.144l-0.512 0.512z" />
<glyph unicode="&#xe96d;" glyph-name="110" d="M853.509 12.8c-28.16 0-51.2 23.040-51.2 51.2v128c0 42.496-34.304 76.8-76.8 76.8h-427.009c-42.496 0-76.8-34.304-76.8-76.8v-128c0-28.16-23.040-51.2-51.2-51.2s-51.2 23.040-51.2 51.2v128c0 98.816 80.384 179.2 179.2 179.2h426.497c98.816 0 179.2-80.384 179.2-179.2v-128c0-28.16-23.040-51.2-51.2-51.2h0.512zM512 448c-113.152 0-204.8 91.648-204.8 204.8s91.648 204.8 204.8 204.8c113.152 0 204.8-91.648 204.8-204.8s-91.648-204.8-204.8-204.8zM512 755.2c-56.32 0-102.4-46.080-102.4-102.4s46.080-102.4 102.4-102.4c56.32 0 102.4 46.080 102.4 102.4s-46.080 102.4-102.4 102.4z" />
<glyph unicode="&#xe96e;" glyph-name="111" d="M128 362.665h768v-298.665h-85.335v213.33h-597.331v-213.33h-85.334v298.665zM511.983 789.329c-70.692 0-128-57.308-128-128s57.308-128 128-128c70.693 0 128.002 57.307 128.002 128s-57.308 128-128.002 128zM298.65 661.329c0 117.82 95.513 213.333 213.333 213.333 117.823 0 213.331-95.513 213.331-213.333s-95.508-213.335-213.331-213.335c-117.82 0-213.333 95.514-213.333 213.335z" />
<glyph unicode="&#xe96f;" glyph-name="112" d="M515.077 396.8c-2.56 0-5.631 0-8.191 0-132.096 0-242.688 108.031-244.736 242.175 2.56 137.728 112.64 247.296 250.879 244.224 134.144 1.536 246.272-106.496 248.832-242.176v-2.048c-2.56-134.656-112.64-242.175-246.784-242.175zM510.982 499.199c80.383-3.584 146.431 61.952 148.479 140.8-2.048 78.336-66.048 140.8-144.384 140.8h-5.119c-79.872 0-144.384-62.976-145.92-141.824 1.536-77.824 67.584-141.824 146.432-139.776h0.512zM853.509 12.8c-28.16 0-51.2 23.040-51.2 51.2 0 119.808-130.048 217.6-290.304 217.6-160.257 0-290.305-97.792-290.305-217.6 0-28.16-23.040-51.2-51.2-51.2s-51.2 23.040-51.2 51.2c0 176.64 176.128 320 392.705 320s392.704-143.36 392.704-320c0-28.16-23.040-51.2-51.2-51.2z" />
<glyph unicode="&#xe970;" glyph-name="113" d="M926.72-12.8c-12.877 0.742-24.94 6.533-33.572 16.123-8.627 9.585-13.123 22.195-12.508 35.077v25.6c0 47.002-17.971 281.6-368.64 281.6s-368.64-234.547-368.64-281.6v-25.6c0-12.221-4.855-23.941-13.496-32.584s-20.362-13.496-32.584-13.496c-12.221 0-23.942 4.854-32.584 13.496s-13.496 20.362-13.496 32.584v25.6c0 39.168 12.902 384 460.8 384s460.8-344.678 460.8-384v-25.6c0.614-12.882-3.881-25.492-12.508-35.077-8.632-9.59-20.695-15.38-33.572-16.123zM511.8 499.2c-40.506 0-80.102 12.011-113.781 34.515s-59.929 54.489-75.429 91.911c-15.501 37.423-19.557 78.601-11.655 118.328s27.408 76.219 56.050 104.861c28.642 28.642 65.134 48.147 104.861 56.049s80.905 3.847 118.327-11.654c37.422-15.501 69.412-41.751 91.914-75.43s34.514-73.275 34.514-113.781c0-54.317-21.576-106.408-59.986-144.816-38.405-38.407-90.496-59.984-144.814-59.984zM511.8 826.88c-24.304 0-48.061-7.207-68.269-20.709s-35.957-32.694-45.258-55.147c-9.3-22.453-11.734-47.16-6.993-70.997s16.444-45.731 33.63-62.917c17.185-17.185 39.080-28.888 62.917-33.63s48.544-2.308 70.995 6.993c22.456 9.3 41.646 25.050 55.148 45.258s20.71 43.965 20.71 68.269c0 32.59-12.948 63.845-35.988 86.889-23.045 23.045-54.303 35.991-86.892 35.991z" />
<glyph unicode="&#xe971;" glyph-name="114" d="M170.502 12.8c-27.648 0-50.688 22.016-51.2 50.176-3.584 153.6 87.552 290.816 224.768 348.672-59.392 50.176-95.232 125.44-95.232 204.8-1.024 107.008 62.464 203.264 161.28 245.248 134.655 57.344 290.303-5.632 347.647-139.776 48.128-112.64 11.776-240.64-80.384-312.32 145.408-62.976 227.328-186.368 227.328-345.6 0-28.16-23.040-51.2-51.2-51.2s-51.2 23.040-51.2 51.2c0 94.72-37.376 218.624-216.576 269.824-18.432 5.12-33.792 17.408-43.008 33.792-9.216 16.896-11.776 35.84-6.656 54.272 6.144 21.504 22.016 38.912 42.496 47.104 80.896 34.816 119.808 130.048 84.48 212.48s-131.072 120.832-212.991 86.016c-60.416-25.6-99.328-84.992-98.816-151.040 0-63.488 35.84-121.344 92.16-148.992 29.696-13.824 47.104-43.008 44.544-73.728-2.56-28.672-22.528-52.224-51.2-60.416-129.024-27.136-218.624-139.776-215.552-268.288 0.512-28.16-21.504-51.712-50.176-52.224h-0.512zM619.013 375.296c0 0-1.024 0-1.024-0.512 0 0 1.024 0 1.024 0.512z" />
<glyph unicode="&#xe972;" glyph-name="115" d="M511.997 428.544c-53.248 0-103.936 20.482-142.848 57.346-39.424 37.888-61.952 89.6-63.488 144.384-1.024 54.784 19.456 107.008 57.344 146.944 37.888 39.424 89.6 61.952 144.384 63.488 116.227-1.536 208.899-89.6 209.923-202.24 2.048-113.664-88.576-207.362-201.728-209.922-1.536 0-3.072 0-4.099 0h0.512zM513.536 738.306h-1.024c-30.211-0.512-56.323-11.776-75.267-31.744s-29.184-46.080-28.672-73.728c0.512-27.648 11.776-53.248 31.744-72.704 19.968-18.944 45.056-29.696 73.731-28.672 57.344 1.024 102.912 48.64 101.376 105.472-0.512 56.32-46.080 101.376-101.888 101.376zM352.771 55.296c-25.088 0-50.688 6.656-73.216 19.968-70.656 40.96-94.72 131.584-53.76 202.24 27.648 43.52 63.488 79.36 104.96 105.472 76.288 48.64 166.4 64.512 254.461 44.544 88.064-19.456 163.328-72.192 211.968-148.48 14.848-25.6 21.504-52.224 20.992-79.872-1.024-39.424-17.408-76.288-46.080-103.424s-65.536-42.496-104.96-40.448h-310.269c0 0-2.56 0-3.584 0h-0.512zM511.491 333.824c-44.032 0-87.552-12.288-125.952-36.864-28.672-18.432-53.76-43.52-72.192-72.192-11.776-19.968-4.096-48.128 17.92-60.928 7.168-4.096 15.872-6.144 24.064-6.144h312.317c0 0 1.536 0 2.56 0 11.776 0 23.040 4.608 31.744 12.8s13.824 19.968 14.336 32.256c0 8.192-2.048 16.896-6.144 24.064-32.768 51.2-84.992 88.064-146.432 101.888-16.896 3.584-34.304 5.632-51.712 5.632l-0.509-0.512z" />
<glyph unicode="&#xe973;" glyph-name="116" d="M780.293 12.8h-536.577c-35.84 0-64.512 0-89.6 20.48-21.504 19.456-32.768 43.52-34.304 69.632-0.512 33.792 14.848 55.296 32.768 80.384 81.92 116.224 216.064 186.88 358.912 187.904 0 0 0.513 0 1.025 0 142.848-1.024 276.992-71.68 358.912-188.416 17.92-24.576 33.28-46.080 32.768-77.824-1.536-27.648-12.8-51.712-31.744-69.12-28.16-23.040-56.32-23.040-92.16-23.040zM229.893 115.2c4.608 0 9.216 0 13.824 0h537.089c4.608 0 9.216 0 13.824 0-2.048 2.56-4.096 5.12-5.632 8.192-63.488 90.112-166.4 144.384-275.968 145.408-109.569-1.024-212.993-55.296-275.969-144.896-2.048-3.072-4.096-5.632-6.144-8.704h-1.024zM511.995 396.8c-129.536 0-235.008 109.056-235.008 243.2s105.472 243.2 235.008 243.2c129.535 0 235.007-109.056 235.007-243.2s-105.472-243.2-235.007-243.2zM511.995 780.8c-73.216 0-132.608-62.976-132.608-140.8s59.392-140.8 132.608-140.8c73.215 0 132.607 62.976 132.607 140.8s-59.392 140.8-132.607 140.8z" />
<glyph unicode="&#xe974;" glyph-name="117" d="M936.827-49.152l-276.070 275.748c-82.314-63.867-185.873-93.937-289.598-84.147s-199.821 58.706-268.728 136.847c-68.907 78.147-105.446 179.617-102.178 283.752s46.098 203.129 119.769 276.8c73.671 73.671 172.647 116.482 276.783 119.75s205.601-33.243 283.747-102.15c78.147-68.906 127.094-165.024 136.888-268.75 9.789-103.726-20.316-207.289-84.183-289.598l275.917-275.604c9.59-9.656 14.971-22.738 14.971-36.347s-5.381-26.644-14.971-36.301c-4.736-4.751-10.373-8.499-16.579-11.049-6.211-2.55-12.861-3.85-19.569-3.799-13.542 0.184-26.496 5.55-36.198 14.996v-0.148zM102.624 550.398c0-60.758 18.016-120.129 51.772-170.648s81.734-89.902 137.867-113.152c56.133-23.25 117.901-29.353 177.492-17.5s114.33 41.139 157.292 84.101c42.962 42.962 72.223 97.659 84.076 157.249s5.77 121.366-17.485 177.5c-23.25 56.134-62.623 104.144-113.142 137.9s-109.913 51.75-170.672 51.75c-81.475 0-159.612-32.389-217.224-90s-89.976-135.726-89.976-217.2z" />
<glyph unicode="&#xe975;" glyph-name="118" d="M474.253 131.589c-195.584 0-354.816 159.232-354.816 354.813 0 195.584 159.232 354.816 354.816 354.816 195.586 0 354.818-159.232 354.818-354.816 0-195.581-159.232-354.813-354.818-354.813zM474.253 738.307c-139.264 0-252.416-113.152-252.416-252.416 0-139.261 113.152-252.413 252.416-252.413 139.266 0 252.418 113.152 252.418 252.413 0 139.264-113.152 252.416-252.418 252.416zM853.642 55.301c-13.312 0-26.112 5.12-36.352 14.848l-164.864 164.864c-19.968 19.968-19.968 52.224 0 72.192s52.224 19.968 72.192 0l164.864-164.864c19.968-19.968 19.968-52.224 0-72.192-10.24-10.24-23.040-14.848-36.352-14.848h0.512z" />
<glyph unicode="&#xe976;" glyph-name="119" d="M474.253 131.589c-195.584 0-354.816 159.232-354.816 354.813 0 195.584 159.232 354.816 354.816 354.816 195.586 0 354.818-159.232 354.818-354.816 0-195.581-159.232-354.813-354.818-354.813zM474.253 738.307c-139.264 0-252.416-113.152-252.416-252.416 0-139.261 113.152-252.413 252.416-252.413 139.266 0 252.418 113.152 252.418 252.413 0 139.264-113.152 252.416-252.418 252.416zM853.642 55.301c-13.312 0-26.112 5.12-36.352 14.848l-164.864 164.864c-19.968 19.968-19.968 52.224 0 72.192s52.224 19.968 72.192 0l164.864-164.864c19.968-19.968 19.968-52.224 0-72.192-10.24-10.24-23.040-14.848-36.352-14.848h0.512zM474.25 321.029c-28.16 0-51.2 23.040-51.2 51.2v227.327c0 28.16 23.040 51.2 51.2 51.2s51.2-23.040 51.2-51.2v-227.327c0-28.16-23.040-51.2-51.2-51.2zM587.914 434.693h-227.327c-28.16 0-51.2 23.041-51.2 51.201s23.040 51.2 51.2 51.2h227.327c28.16 0 51.2-23.040 51.2-51.2s-23.040-51.201-51.2-51.201z" />
<glyph unicode="&#xe977;" glyph-name="120" d="M474.253 131.589c-195.584 0-354.816 159.232-354.816 354.813 0 195.584 159.232 354.816 354.816 354.816 195.586 0 354.818-159.232 354.818-354.816 0-195.581-159.232-354.813-354.818-354.813zM474.253 738.307c-139.264 0-252.416-113.152-252.416-252.416 0-139.261 113.152-252.413 252.416-252.413 139.266 0 252.418 113.152 252.418 252.413 0 139.264-113.152 252.416-252.418 252.416zM853.642 55.301c-13.312 0-26.112 5.12-36.352 14.848l-164.864 164.864c-19.968 19.968-19.968 52.224 0 72.192s52.224 19.968 72.192 0l164.864-164.864c19.968-19.968 19.968-52.224 0-72.192-10.24-10.24-23.040-14.848-36.352-14.848h0.512zM587.914 434.693h-227.327c-28.16 0-51.2 23.041-51.2 51.201s23.040 51.2 51.2 51.2h227.327c28.16 0 51.2-23.040 51.2-51.2s-23.040-51.201-51.2-51.201z" />
<glyph unicode="&#xe978;" glyph-name="121" d="M512.138 484.861c-28.161 0-51.201 23.040-51.201 51.2v126.976c0 28.16 23.040 51.2 51.201 51.2s51.2-23.040 51.2-51.2v-126.976c0-28.16-23.040-51.2-51.2-51.2zM513.167 110.080c-100.866 0-202.242 15.872-298.498 47.616-11.264 3.072-24.576 9.216-36.864 17.408-60.416 40.96-76.8 123.392-35.84 183.808l47.616 78.848c9.728 17.921 15.872 39.937 16.896 62.465v78.336c0 168.448 137.728 305.152 305.666 305.152h0.512c167.936 0 305.664-136.704 306.688-304.64v-80.384c1.024-20.48 7.168-42.496 17.92-62.465l47.616-78.848c5.12-8.704 9.728-18.432 12.8-28.16 11.264-34.304 8.192-71.168-8.192-103.424s-44.544-56.32-78.848-67.072c-95.744-31.744-197.12-47.616-297.984-47.616l0.512-1.024zM512.143 780.801c-111.618 0-202.754-90.624-203.266-202.752v-79.872c-1.536-40.448-12.288-78.337-30.72-111.617l-49.664-82.432c-10.752-15.872-7.168-34.816 6.656-44.032 2.56-2.048 5.632-3.072 9.216-4.096 174.080-57.344 363.010-57.344 535.042-1.024 17.408 5.632 27.136 24.576 21.504 41.984-1.024 2.56-2.048 4.608-3.072 6.656l-48.64 80.896c-19.456 35.328-29.696 73.217-31.232 111.617v81.92c-1.024 111.616-92.672 202.24-204.8 202.752h-1.024zM512.138 14.848c0 0-2.56 0-3.584 0-96.256 2.048-173.056 78.848-175.104 175.104l102.4 2.048c1.024-40.96 33.792-74.24 74.752-74.752 21.504-1.024 39.936 7.168 54.272 21.504s23.040 33.28 23.552 53.76l102.4-2.048c-1.024-47.616-20.48-92.16-54.784-125.44-33.792-32.256-77.312-49.664-123.904-49.664v-0.512z" />
<glyph unicode="&#xe979;" glyph-name="122" d="M590.474 12.8h-156.159c-28.16 0-51.2 23.040-51.2 51.2s23.040 51.2 51.2 51.2h156.159c28.16 0 51.2-23.040 51.2-51.2s-23.040-51.2-51.2-51.2zM229.003 173.056c-19.456 0-39.936 2.048-60.416 6.144-5.632 1.024-11.776 3.584-16.384 6.656-20.992 12.8-33.28 35.84-32.256 60.416 0 5.632 1.536 11.264 3.584 16.896 12.288 30.72 27.648 59.904 47.104 87.040 39.936 72.704 59.904 154.627 56.832 237.571 0 79.36 29.184 152.576 82.432 208.896 3.072 3.072 6.144 6.656 9.728 9.728 111.616 106.496 289.279 101.888 395.775-9.728 53.76-55.808 82.944-129.536 82.944-206.848 0-0.512 0-1.024 0-1.536-3.072-82.944 16.896-165.379 56.832-238.083 18.944-27.136 34.816-56.32 46.592-86.528 2.048-5.632 3.584-11.264 3.584-17.408 0.512-24.064-11.776-47.104-32.256-59.904-5.12-3.072-10.752-5.12-16.384-6.656-29.696-6.144-59.904-7.68-90.112-4.608h-512.511c-7.68-1.024-16.384-1.536-24.576-1.536l-0.512-0.512zM770.186 276.992c3.584 0 6.656-0.512 9.728-0.512-3.584 5.632-7.168 11.264-10.752 16.384-1.024 1.536-2.048 3.072-3.072 4.608-49.664 89.088-74.24 189.955-71.168 292.355 0 50.688-19.456 99.328-54.272 135.68-67.584 71.168-180.223 73.728-251.391 6.144l-6.144-6.144c-35.328-36.864-54.272-84.992-54.272-136.192 3.584-100.864-20.992-202.755-71.168-292.355-1.024-1.536-2.048-3.072-3.072-4.608-3.584-5.12-7.68-10.752-10.752-16.384 1.536 0 3.584 0 5.12 0h521.215v1.024z" />
<glyph unicode="&#xe97a;" glyph-name="123" d="M153.588 84.987h-102.4v102.4h102.4v397.576c-2.164 97.229 34.369 191.329 101.575 261.625 67.193 70.346 159.571 111.141 256.825 113.413 97.231-2.273 189.601-43.015 256.826-113.3 67.195-70.324 103.721-164.446 101.576-261.687v-397.575h102.4v-102.4l-819.202-0.051zM790.723 187.387v397.576c1.577 75.584-26.88 148.707-79.109 203.362-52.265 54.679-124.063 86.425-199.676 88.275-75.617-1.845-147.415-33.592-199.675-88.275-52.246-54.723-80.667-127.935-79.013-203.575v-397.363h557.473zM665.59 38.4c0-56.32-68.762-102.4-153.602-102.4-84.838 0-153.6 46.080-153.6 102.4h307.202z" />
<glyph unicode="&#xe97b;" glyph-name="124" d="M102.538 120.837v102.4h78.85v382.463c0.041 93.955 37.377 184.051 103.813 250.487s156.533 103.772 250.485 103.813c93.957-0.041 184.054-37.376 250.491-103.813s103.782-156.533 103.823-250.487v-382.463h78.838v-102.4h-866.299zM283.837 605.7v-370.226h503.813v370.226c-0.138 66.763-26.726 130.746-73.938 177.95s-111.212 73.779-177.976 73.9c-66.766-0.108-130.77-26.681-177.987-73.887s-73.79-111.196-73.912-177.962zM654.008 54.277c0-15.534-3.062-30.915-9.006-45.261-5.944-14.351-14.653-27.392-25.636-38.374s-24.023-19.692-38.369-25.636c-14.351-5.944-29.732-9.001-45.261-9.001-15.534 0-30.913 3.057-45.262 9.001s-27.388 14.653-38.37 25.636c-10.983 10.982-19.695 24.023-25.638 38.374-5.944 14.346-9.003 29.727-9.003 45.261h236.546z" />
<glyph unicode="&#xe97c;" glyph-name="125" d="M513.679-29.696c-80.898 2.048-146.434 55.808-166.914 128h-81.92c-28.672-2.56-61.952-1.024-94.72 5.12-6.144 1.024-12.288 3.584-17.408 6.656-20.992 12.8-33.792 36.352-32.256 61.44 0 5.12 1.536 10.752 3.072 15.872 13.824 36.352 31.744 71.168 53.248 103.936 29.184 55.296 44.544 122.368 43.008 189.95 0.512 76.288 32.768 146.944 88.064 196.608 18.944 16.896 39.424 30.72 60.928 41.984-5.12 15.872-7.168 32.256-7.168 48.64-2.048 83.456 65.024 155.136 150.53 157.696 88.576-2.56 155.648-73.728 153.6-159.232 0-15.872-2.56-31.744-7.168-47.104 21.504-11.264 41.472-25.088 60.416-41.984 55.296-49.664 87.552-120.832 88.064-195.072 0-2.048 0-3.584 0-5.632-1.024-66.046 14.336-132.094 45.056-190.462 18.944-28.16 36.864-63.488 50.688-99.84 2.048-5.12 3.072-10.24 3.072-15.872 1.024-25.088-11.264-48.64-32.256-61.44-5.12-3.072-11.264-5.632-17.408-6.656-32.768-6.144-66.048-7.68-99.328-4.608h-77.312c-20.48-71.68-85.504-125.952-164.352-128h-1.536zM459.918 97.792c12.8-14.848 32.256-25.088 53.25-25.6 19.968 0.512 38.4 10.24 50.688 25.6h-103.938zM512.143 652.798c-49.154 0-98.306-17.408-137.218-52.224-33.792-30.208-53.248-73.728-53.76-119.296 2.56-82.942-17.408-167.934-57.344-243.198-8.704-13.312-16.384-26.624-23.552-39.424 6.144 0 12.8 0 18.944 1.024h124.928c0 0 5.12 0.512 7.68 0 1.536 0 3.072 0 4.608 0h230.402c0 0 3.584 0 5.12 0 2.048 0 3.584 0 5.12 0h121.344c8.192-0.512 15.872-1.024 23.552-1.024-6.144 12.288-13.312 24.064-20.992 35.328-41.984 79.36-61.952 163.84-59.392 248.83 0 0.512 0 1.024 0 1.536-1.536 44.032-20.992 86.528-53.76 115.712-38.912 34.816-88.064 51.712-136.706 51.712l1.026 1.024zM512.143 755.198c15.872 0 31.744-1.024 47.616-3.584 1.536 5.12 2.048 10.752 2.048 16.384 1.024 30.72-22.016 54.784-51.202 55.808-26.112-1.024-48.64-25.088-48.128-54.272 0-6.144 1.024-12.288 2.048-17.92 15.872 2.56 31.232 3.584 47.104 3.584h0.514z" />
<glyph unicode="&#xe97d;" glyph-name="126" d="M428.353 884.284c22.228 22.228 52.377 34.716 83.811 34.716 31.437 0 61.588-12.488 83.814-34.716s34.714-52.376 34.714-83.812v-104.954l-54.656 16.008c-41.702 12.214-86.036 12.214-127.74 0l-54.659-16.008v104.954c0 31.436 12.488 61.583 34.716 83.812zM512.164 833.667c-8.802 0-17.246-3.497-23.471-9.722-5.322-5.322-8.651-12.265-9.504-19.67 21.922 2.326 44.029 2.326 65.953 0-0.855 7.404-4.183 14.347-9.503 19.67-6.226 6.225-14.669 9.722-23.475 9.722zM309.237 175.324h405.94l-15.15-54.159c-11.464-40.991-36.029-77.107-69.939-102.835-33.915-25.728-75.315-39.654-117.878-39.654-42.57 0-83.969 13.926-117.881 39.654s-58.476 61.844-69.942 102.835l-15.15 54.159zM441.313 89.994c1.495-1.27 3.026-2.493 4.593-3.686 19.074-14.469 42.359-22.303 66.304-22.303 23.941 0 47.227 7.834 66.299 22.303 1.567 1.193 3.098 2.417 4.593 3.686h-141.789zM599.859 793.279c63.089-17.904 118.671-55.776 158.423-107.941 39.788-52.215 61.558-115.932 62.044-181.577v-212.464l102.927-201.334h-822.166l102.962 201.175v212.612c0.467 65.653 22.235 129.38 62.028 181.601 39.753 52.169 95.349 90.038 158.447 107.93 57.247 16.727 118.083 16.726 175.335-0.002zM576.056 711.331c-41.702 12.214-86.034 12.214-127.738 0l-0.378-0.111c-45.395-12.84-85.396-40.066-113.989-77.59-28.563-37.485-44.201-83.22-44.568-130.344v-232.715l-48.761-95.273h543.169l-48.799 95.452v232.529c-0.379 47.122-16.020 92.854-44.585 130.339-28.59 37.523-68.588 64.756-113.981 77.607l-0.369 0.106z" />
<glyph unicode="&#xe97e;" glyph-name="127" d="M512.133 13.312c-49.151 0-97.791 16.896-136.703 50.688-21.504 18.432-23.552 50.688-5.12 72.192s50.688 23.552 72.192 5.12c39.936-34.304 99.839-34.304 139.775 0 21.504 18.432 53.76 15.872 72.192-5.12 18.432-21.504 15.872-53.76-5.12-72.192-38.912-33.792-88.064-50.688-136.704-50.688h-0.512zM228.998 203.776c-18.944 0-39.936 2.048-60.416 5.632-5.632 1.024-10.752 3.072-15.36 5.632-21.504 12.288-34.816 35.328-33.792 59.904 0 6.144 1.536 12.288 4.096 17.92 12.288 29.696 28.16 57.344 47.104 83.456 39.424 67.584 58.88 144.895 55.808 223.231 0 76.288 30.72 148.992 83.968 201.216 111.104 108.544 291.839 108.544 402.943 0 53.248-52.224 83.968-124.928 84.48-199.68 0-0.512 0-1.536 0-2.048-3.072-78.336 16.384-155.647 55.808-223.231 18.944-25.6 34.816-53.76 47.104-82.944 2.56-5.632 3.584-11.776 4.096-18.432 0.512-24.576-12.288-47.616-33.792-59.904-4.608-2.56-10.24-4.608-15.36-5.632-29.696-5.632-59.904-7.168-89.6-4.608h-511.999c-7.68-1.024-15.872-1.536-24.576-1.536l-0.512 1.024zM770.181 307.2c0 0 5.12 0 7.168-0.512-2.56 3.584-5.12 7.168-7.68 10.24-1.024 1.536-2.048 3.072-3.072 4.608-50.176 84.992-75.264 181.759-71.68 280.575 0 47.104-19.968 92.672-53.248 125.44-71.68 70.144-188.415 70.144-260.095 0-33.792-32.768-53.248-78.848-53.248-126.464 3.584-97.28-20.992-194.559-71.68-279.551-1.024-1.536-2.048-3.072-3.072-4.608-2.56-3.584-5.12-6.656-7.68-10.24 1.024 0 1.536 0 2.56 0l521.727 0.512z" />
<glyph unicode="&#xe97f;" glyph-name="128" d="M512.138 12.8c-48.125 0-96.253 17.408-134.653 51.712-20.992 18.944-23.040 51.2-4.096 72.192s51.2 23.040 72.192 4.096c37.888-33.792 94.717-33.792 132.605 0 20.992 18.944 53.248 16.896 72.192-4.096s16.896-53.248-4.096-72.192c-38.4-34.304-86.528-51.712-134.653-51.712h0.509zM853.642 51.2c-13.312 0-26.624 5.12-36.352 15.36l-136.704 138.24h-419.325c-24.576-2.56-54.272-1.024-82.944 4.608-5.632 1.024-11.264 3.072-16.384 6.144-20.48 12.288-33.28 34.816-32.256 59.392 0 6.144 1.536 11.776 3.584 17.408 11.776 29.184 27.136 57.344 45.568 82.944 38.4 68.096 57.344 145.407 54.272 223.743 0 18.432 1.536 35.84 4.608 52.736l-103.424 104.96c-19.968 19.968-19.456 52.736 0 72.192 19.968 19.968 52.736 19.456 72.192 0l122.368-123.904c0 0 1.536-1.536 2.048-2.048l558.077-564.735c19.968-19.968 19.456-52.736 0-72.192-9.728-9.728-23.040-14.848-35.84-14.848h0.512zM335.501 553.983c-4.608-80.384-28.16-160.255-69.12-231.423-1.024-1.536-2.048-3.072-3.072-4.608-2.56-3.584-5.12-7.168-7.68-10.752 0 0 0.512 0 1.024 0h322.557l-243.709 246.783zM764.042 357.376c-22.528 0-43.008 14.848-49.152 37.376-18.432 67.583-27.648 137.215-26.624 207.871 0 47.104-18.432 92.16-51.712 125.952-59.392 60.416-153.085 69.632-223.229 21.504-23.552-15.872-55.296-10.24-71.168 13.312s-10.24 55.296 13.312 71.168c111.104 76.288 260.093 61.952 354.301-34.304 52.224-53.248 81.408-123.904 81.408-198.656-1.024-60.928 6.656-121.344 23.040-179.711 7.68-27.136-8.704-55.296-35.84-62.976-4.608-1.024-9.216-2.048-13.824-2.048l-0.512 0.512z" />
<glyph unicode="&#xe980;" glyph-name="129" d="M512.138 11.776c-73.729 0-136.705 48.64-157.697 116.224h-75.264c-27.136-2.56-58.368-1.024-89.6 4.608-5.632 1.024-11.264 3.072-16.384 6.144-20.992 12.288-33.792 34.816-33.28 58.88 0 6.144 1.536 12.288 3.584 17.92 13.312 33.28 30.208 65.024 50.176 94.72 26.624 48.128 40.96 107.52 39.424 166.91 0 44.544 12.288 86.016 34.304 121.856l-131.072 117.76c-20.992 18.944-22.528 51.2-3.584 72.192s51.2 22.528 72.192 3.584l161.792-145.92c0 0 3.584-3.072 5.632-4.608 1.024-1.024 1.536-1.536 2.56-2.56l467.969-421.374c0 0 2.56-2.048 4.096-3.584l40.448-36.352c20.992-18.944 22.528-51.2 3.584-72.192s-51.2-22.528-72.192-3.584l-28.16 25.088h-121.344c-20.48-66.048-81.408-114.688-154.112-116.224-1.024 0-2.56 0-3.585 0l0.513 0.512zM472.714 128c11.263-9.216 25.6-14.848 40.449-13.824 14.336 0 27.648 5.632 37.888 13.824h-78.337zM346.25 528.382c-6.656-15.872-10.24-32.767-10.24-50.176 2.048-76.286-16.896-153.598-54.784-221.694-6.144-9.216-11.776-17.92-16.896-26.624 3.584 0 7.168 0 10.752 0.512h118.784c0 0 4.096 0 6.144 0 1.024 0 2.048 0 3.072 0h219.649c0 0 2.048 0 3.584 0 1.024 0 2.048 0 3.584 0h48.128l-331.265 298.494-0.512-0.512zM740.49 390.656c-27.136 0-49.664 20.992-51.2 48.128-1.024 12.798-1.024 26.11-1.024 39.934 0 38.912-17.92 76.287-48.64 101.887-20.992 17.92-45.056 30.72-70.656 38.4-0.512 0-1.536 0-2.048 0.512-17.92 5.12-35.84 7.168-54.272 7.168-8.705 0-17.921-0.512-26.625-1.536-11.264-2.56-27.648-3.072-44.032 0-2.56 0-5.12 1.024-7.68 2.048-13.313 4.608-25.6 11.776-35.84 22.016-9.728 9.728-17.408 21.504-22.016 34.816-6.144 14.848-9.728 33.28-9.728 52.736 0 39.424 16.384 75.776 44.032 103.424 28.16 27.136 66.048 41.984 103.937 41.472 38.912 0 75.264-15.872 102.912-44.032 27.136-28.16 41.984-65.024 41.472-103.936 0-12.8-2.048-25.6-5.632-37.888 18.944-10.24 36.864-22.015 53.76-36.352 52.736-44.544 83.456-110.080 84.48-179.712 0-12.288 0-23.552 1.024-34.814 1.536-28.16-19.968-52.224-48.128-54.272-1.024 0-2.048 0-3.072 0h-1.024zM512.138 778.75c-11.265 0-22.017-4.608-30.209-12.288-8.192-8.192-12.8-18.944-13.312-30.72 0-3.072 0-6.144 1.024-9.216 17.92 2.56 31.232 3.072 45.057 3.072s27.136-1.024 40.448-2.56c0 2.56 0.512 5.12 1.024 7.68 0 11.776-4.096 22.528-12.288 31.232-8.192 8.192-18.944 12.8-30.72 13.312h-0.512l-0.512-0.512z" />
<glyph unicode="&#xe981;" glyph-name="130" d="M512.138 33.787c-45.569 0-91.137 16.896-127.489 50.176-20.992 18.944-22.016 51.712-3.072 72.192 18.944 20.992 51.712 22.016 72.192 3.072 33.28-30.72 83.457-30.72 116.737 0 20.992 18.944 53.248 17.92 72.192-3.072s17.92-53.248-3.072-72.192c-36.352-33.28-81.92-50.176-127.488-50.176zM257.161 214.523c-17.408 0-36.864 2.048-55.808 5.632-5.632 1.024-11.264 3.072-16.384 6.144-20.48 12.288-32.768 34.816-31.744 58.368 0 5.632 1.536 11.776 3.584 16.896 10.752 27.648 25.088 54.272 42.496 78.848 35.328 64 52.736 136.706 50.176 210.434 0 72.704 26.624 140.288 75.776 190.976 2.56 2.56 5.12 5.12 8.192 8.192 102.4 98.304 266.241 94.72 364.545-8.192 49.152-51.2 76.288-118.272 76.288-189.44 0-0.512 0-1.024 0-1.536-2.56-73.216 14.848-145.922 50.176-210.434 17.408-24.576 31.744-51.2 42.496-78.848 2.048-5.632 3.072-11.264 3.584-16.896 1.024-23.552-11.264-46.080-31.232-58.368-5.12-3.072-10.752-5.12-16.384-6.656-27.136-5.632-55.296-7.168-82.944-4.608h-460.289c-7.168-1.024-14.336-1.536-22.528-1.536v1.024zM512.138 759.293c-40.449 0-78.337-15.36-107.521-43.008l-4.608-4.608c-30.72-32.256-47.616-74.24-47.616-118.272 3.584-91.136-18.944-183.298-64.512-264.706-1.024-1.536-2.048-3.072-3.072-4.608-1.536-2.048-2.56-4.096-4.096-6.144h463.361c0 0-2.56 4.096-4.096 6.144-1.024 1.536-2.048 3.072-3.072 4.608-45.568 80.896-67.584 172.546-64.512 265.73 0 44.032-16.896 85.504-47.616 117.248-28.672 30.208-67.584 47.104-109.056 48.128-1.024 0-2.56 0-3.584 0v-0.512zM853.642 621.053h-0.512c-28.16 0-50.688 23.552-50.688 51.712 0 33.792-17.408 65.536-46.592 82.944-24.576 14.336-32.256 45.568-17.92 70.144s45.568 32.256 70.144 17.92c60.416-35.84 97.792-101.888 96.768-172.544 0-28.16-23.040-50.688-51.2-50.688v0.512zM170.633 621.053c-28.16 0-50.688 22.528-51.2 50.688-1.024 70.656 36.352 136.704 96.768 172.544 24.064 14.336 55.808 6.144 70.144-17.92 14.336-24.576 6.144-55.808-17.92-70.144-29.184-17.408-47.104-49.152-46.592-82.944 0-28.16-22.016-51.712-50.688-51.712h-0.512v-0.512z" />
<glyph unicode="&#xe982;" glyph-name="131" d="M513.536 12.8c-73.729 2.048-133.633 50.176-154.113 115.2h-69.12c-25.6-2.56-56.32-1.024-86.016 4.608-6.144 1.024-11.776 3.584-17.408 6.656-20.48 12.288-32.256 34.816-31.744 58.88 0 5.632 1.024 11.264 3.072 16.384 12.288 32.768 28.672 65.024 47.616 94.208 25.6 49.152 39.424 108.544 37.888 168.447 0.512 70.144 29.696 135.168 80.384 180.736 15.872 14.336 33.28 26.624 51.2 36.352-3.584 13.312-5.632 27.136-5.632 41.472-2.56 77.824 60.416 144.896 140.288 146.944 2.048 0 4.609 0 6.657 0 38.4-2.048 72.192-18.432 97.792-45.568 26.624-28.16 40.448-65.024 38.912-103.424 0-13.312-2.048-26.624-5.632-39.424 17.92-10.24 35.328-22.016 51.2-36.352 50.688-45.568 79.872-111.104 80.384-179.2 0-0.512 0-1.024 0-2.048-1.536-59.903 12.288-119.295 39.936-172.031 16.896-25.6 33.28-57.344 45.568-90.112 2.048-5.12 3.072-10.752 3.072-16.384 1.024-24.064-11.264-46.592-31.744-58.88-5.12-3.072-11.264-5.632-17.408-6.656-29.696-5.632-60.416-7.168-90.624-4.608h-65.024c-19.968-65.024-79.36-113.152-151.041-115.2h1.537zM478.207 128c9.728-7.68 22.016-12.288 35.329-12.8 12.288 0 23.552 5.12 32.768 12.8h-68.097zM733.696 230.4c4.096 0 8.192-0.512 12.288-1.024-4.608 8.192-9.216 15.872-14.336 23.552-38.4 72.192-56.32 148.992-54.272 225.791-0.512 38.912-17.408 76.8-46.592 102.912-67.584 60.416-169.985 60.416-238.081 0-29.184-26.112-46.080-64-46.592-103.424 2.048-75.263-15.872-152.575-52.224-221.183-6.144-9.216-11.264-18.432-16.384-27.648 2.56 0 5.12 0 7.68 0.512h113.152c0 0 4.096 0 6.144 0 1.024 0 2.048 0 3.072 0h208.897c0 0 2.048 0 3.072 0s2.048 0 3.072 0h110.080l1.024 0.512zM510.463 780.799c-20.48-0.512-38.4-19.968-37.888-43.008 0-3.584 0-7.168 1.024-10.752 25.6 3.584 51.201 3.584 76.801 0 0.512 3.072 1.024 5.632 1.024 8.704 0 12.8-3.584 23.552-11.264 31.744s-17.92 12.8-29.185 13.312h-0.512zM170.495 538.111c-27.648 0-50.688 22.016-51.2 50.176-1.536 72.704 35.84 141.312 97.28 179.712 24.064 14.848 55.296 7.68 70.656-16.384 14.848-24.064 7.68-55.808-16.384-70.656-31.232-19.456-50.176-54.272-49.152-90.624 0.512-28.16-22.016-51.712-50.176-52.224h-1.024zM853.504 538.111h-1.024c-28.16 0.512-50.688 24.064-50.176 52.224 0.512 36.864-17.92 71.68-49.152 90.624-24.064 14.848-31.232 46.592-16.384 70.656s46.592 31.232 70.656 16.384c61.44-38.4 98.816-107.008 97.28-179.712-0.512-28.16-23.552-50.176-51.2-50.176z" />
<glyph unicode="&#xe983;" glyph-name="132" d="M702.474 11.264c-11.264 0-22.528 0.512-33.792 1.536h-312.834c-46.592-4.608-94.72 0-138.752 15.36-2.56 1.024-5.12 2.048-7.168 3.072-31.232 16.384-56.32 41.472-71.68 72.704-1.024 2.048-2.048 4.608-3.072 7.168-14.848 45.568-19.968 92.672-14.848 139.776v316.927c-5.12 47.616 0 94.72 14.848 139.776 1.024 2.56 2.048 5.12 3.072 7.168 15.872 31.232 40.448 56.832 71.68 72.704 2.56 1.024 4.608 2.048 7.168 3.072 29.696 9.728 60.928 15.36 92.16 16.896v24.064c0 28.16 23.040 51.2 51.2 51.2s51.2-23.040 51.2-51.2v-25.6h201.218v25.6c0 28.16 23.040 51.2 51.2 51.2s51.2-23.040 51.2-51.2v-24.064c31.232-1.024 62.976-6.656 92.672-16.896 2.56-1.024 5.12-2.048 7.168-3.072 31.232-16.384 56.32-41.472 72.192-72.704 1.024-2.56 2.048-4.608 3.072-7.168 14.848-45.568 19.968-92.672 14.848-139.776v-316.927c4.608-47.616 0-94.72-14.848-139.776-1.024-2.56-2.048-5.12-3.072-7.168-15.872-31.232-40.96-56.832-72.192-72.704-2.56-1.024-4.608-2.048-7.168-3.072-33.792-11.264-69.12-16.896-104.96-16.896h-0.512zM352.776 115.2h318.466c0 0 4.096 0 5.632 0 31.232-3.584 63.488 0 93.696 8.704 9.728 5.632 17.408 13.312 22.528 23.040 9.728 31.232 12.288 63.488 8.704 95.744 0 2.048 0 3.584 0 5.632v225.279h-580.098v-225.279c0 0 0-3.584 0-5.632-3.584-32.256-0.512-64.512 8.704-95.744 5.632-9.728 13.312-17.408 22.528-23.040 30.208-9.216 62.464-12.288 93.696-8.704 2.048 0 4.096 0 5.632 0h0.512zM221.704 575.999h580.61c3.584 32.256 0.512 64.512-8.704 95.744-5.632 9.728-13.312 17.408-22.528 23.040-17.92 5.632-36.864 9.216-55.808 10.24v-27.136c0-28.16-23.040-51.2-51.2-51.2s-51.2 23.040-51.2 51.2v25.6h-201.218v-25.6c0-28.16-23.040-51.2-51.2-51.2s-51.2 23.040-51.2 51.2v27.136c-18.944-1.024-37.888-4.608-55.808-10.24-9.216-5.632-17.408-13.312-22.528-23.040-9.728-31.232-12.288-63.488-8.704-95.744 0 0 0 0 0-0.512l-0.512 0.512zM474.12 166.4c-13.824 0-26.624 5.632-36.352 15.36l-75.776 76.8c-19.968 19.968-19.968 52.736 0 72.192 19.968 19.968 52.736 19.456 72.192 0l39.424-39.936 134.146 136.192c19.968 19.968 52.224 20.48 72.192 0 19.968-19.968 20.48-52.224 0-72.192l-170.498-173.056c-9.728-9.728-22.528-15.36-36.352-15.36h1.024z" />
<glyph unicode="&#xe984;" glyph-name="133" d="M321.543 11.264c-35.328 0-71.168 5.632-104.96 16.896-2.56 1.024-5.12 2.048-7.168 3.072-31.232 16.384-56.32 41.472-72.192 72.704-1.024 2.56-2.048 4.608-3.072 7.168-14.848 45.568-19.968 92.672-14.848 139.776v316.927c-5.12 47.616 0 94.72 14.848 139.776 1.024 2.56 2.048 5.12 3.072 7.168 15.872 31.232 40.96 56.832 72.192 72.704 2.56 1.024 4.608 2.048 7.168 3.072 29.696 9.728 60.928 15.36 92.16 16.896v24.064c0 28.16 23.040 51.2 51.2 51.2s51.2-23.040 51.2-51.2v-25.6h201.214v25.6c0 28.16 23.040 51.2 51.2 51.2s51.2-23.040 51.2-51.2v-24.064c31.232-1.024 62.464-6.656 92.672-16.896 2.56-1.024 5.12-2.048 7.168-3.072 31.232-16.384 56.32-41.472 71.68-72.704 1.024-2.048 2.048-4.608 3.072-7.168 14.848-45.568 19.968-92.672 14.848-139.776v-139.263c0-28.16-23.040-51.2-51.2-51.2s-51.2 23.040-51.2 51.2v45.055h-580.094v-225.279c0 0 0-3.584 0-5.632-3.584-32.256-0.512-64.512 8.704-95.744 5.632-9.728 13.312-17.408 22.528-23.040 30.208-9.216 62.464-12.288 93.696-8.704 2.048 0 4.096 0 5.632 0h159.232c28.158 0 51.198-23.040 51.198-51.2s-23.040-51.2-51.198-51.2h-156.672c-11.264-1.024-22.528-1.536-33.792-1.536h0.512zM221.703 575.999h580.606c3.584 32.256 0.512 64.512-8.704 95.744-5.632 9.728-13.312 17.408-22.528 23.040-17.92 5.632-36.864 9.216-55.808 10.24v-27.136c0-28.16-23.040-51.2-51.2-51.2s-51.2 23.040-51.2 51.2v25.6h-201.214v-25.6c0-28.16-23.040-51.2-51.2-51.2s-51.2 23.040-51.2 51.2v27.136c-18.944-1.024-37.888-4.608-55.808-10.24-9.216-5.632-17.408-13.312-22.528-23.040-9.728-31.232-12.288-63.488-8.704-95.744h-0.512zM682.501 51.2c-13.824 0-26.624 5.632-36.352 15.36l-76.288 76.8c-19.968 19.968-19.968 52.736 0 72.192 19.968 19.968 52.736 19.968 72.192 0l39.424-39.936 134.144 136.192c19.968 19.968 52.224 20.48 72.192 0 19.968-19.968 20.48-52.224 0-72.192l-170.496-173.056c-9.728-9.728-22.528-15.36-36.352-15.36h1.536z" />
<glyph unicode="&#xe985;" glyph-name="134" d="M284.15 12.8c-44.544 0-86.016 17.92-117.248 49.152s-48.128 73.216-47.616 117.248v460.8c0 44.032 16.896 85.504 47.616 117.248 31.232 31.744 72.704 49.152 116.736 49.152h455.679c91.648-0.512 165.376-75.264 164.864-166.912v-460.288c0.512-91.136-73.216-165.888-164.864-166.4h-455.167zM284.662 704c-34.816 0-62.976-28.672-62.976-63.488v-461.312c0-17.408 6.144-33.28 18.432-45.056s27.648-18.944 44.544-18.944h454.655c34.816 0 62.976 28.672 62.464 63.488v461.312c0 35.328-28.16 64-62.976 64h-454.143zM663.552 627.2c-28.16 0-51.2 23.040-51.2 51.2v153.6c0 28.16 23.040 51.2 51.2 51.2s51.2-23.040 51.2-51.2v-153.6c0-28.16-23.040-51.2-51.2-51.2zM360.45 627.2c-28.16 0-51.2 23.040-51.2 51.2v153.6c0 28.16 23.040 51.2 51.2 51.2s51.2-23.040 51.2-51.2v-153.6c0-28.16-23.040-51.2-51.2-51.2zM853.509 473.6h-683.009c-28.16 0-51.2 23.040-51.2 51.2s23.040 51.2 51.2 51.2h682.497c28.16 0 51.2-23.040 51.2-51.2s-23.040-51.2-51.2-51.2h0.512z" />
<glyph unicode="&#xe986;" glyph-name="135" d="M128 746.669h768v-682.663h-768v682.663zM213.334 661.336v-512.001h597.331v512.001h-597.331zM640 618.671v170.667h85.335v-170.667h-85.335zM298.675 618.671v170.667h85.333v-170.667h-85.333zM853.34 448.004h-682.665v85.334h682.665v-85.334z" />
</font>
</defs>
</svg>
