<?xml version="1.0" standalone="no"?>
<!DOCTYPE svg PUBLIC "-//W3C//DTD SVG 1.1//EN" "http://www.w3.org/Graphics/SVG/1.1/DTD/svg11.dtd" >
<svg xmlns="http://www.w3.org/2000/svg">
<metadata>Generated by IcoMoon</metadata>
<defs>
<font id="Temha-Icon" horiz-adv-x="1024">
<font-face units-per-em="1024" ascent="960" descent="-64" />
<missing-glyph horiz-adv-x="1024" />
<glyph unicode="&#x20;" horiz-adv-x="512" d="" />
<glyph unicode="&#xe900;" glyph-name="001" d="M580.931 451.467l420.506 420.506c9.329 9.656 14.49 22.59 14.372 36.014s-5.504 26.266-14.996 35.759c-9.492 9.493-22.333 14.878-35.758 14.994s-26.358-5.044-36.014-14.37l-420.506-420.506-420.506 420.506c-4.723 4.89-10.372 8.791-16.619 11.474s-12.964 4.096-19.763 4.155c-6.798 0.059-13.539-1.236-19.831-3.811s-12.011-6.376-16.819-11.183c-4.807-4.807-8.607-10.524-11.181-16.816s-3.872-13.034-3.813-19.833c0.059-6.798 1.473-13.517 4.156-19.763s6.582-11.896 11.472-16.62l420.506-420.506-420.506-420.506c-4.89-4.721-8.789-10.373-11.472-16.62s-4.097-12.964-4.156-19.763c-0.059-6.799 1.238-13.537 3.813-19.83s6.374-12.012 11.181-16.819c4.807-4.808 10.526-8.607 16.819-11.182s13.033-3.871 19.831-3.809c6.798 0.056 13.516 1.469 19.763 4.152s11.896 6.584 16.619 11.474l420.506 420.506 420.506-420.506c4.721-4.89 10.373-8.791 16.62-11.474s12.964-4.096 19.763-4.152c6.799-0.061 13.542 1.234 19.835 3.809s12.006 6.374 16.814 11.182c4.808 4.808 8.612 10.527 11.182 16.819 2.575 6.292 3.871 13.030 3.809 19.83-0.056 6.799-1.469 13.517-4.152 19.763s-6.584 11.899-11.474 16.62l-420.506 420.506z" />
<glyph unicode="&#xe901;" glyph-name="002" d="M964.608 503.245h-405.504v405.555c0 13.579-5.396 26.602-14.996 36.204-9.605 9.602-22.625 14.996-36.205 14.996s-26.601-5.394-36.203-14.996c-9.602-9.602-14.997-22.625-14.997-36.204v-405.504h-405.503c-13.579 0-26.601-5.394-36.203-14.996s-14.997-22.625-14.997-36.204c0-13.578 5.395-26.604 14.997-36.204s22.624-14.996 36.203-14.996h405.503v-405.504c0-13.578 5.395-26.604 14.997-36.204s22.624-14.996 36.203-14.996c13.579 0 26.599 5.396 36.205 14.996 9.6 9.6 14.996 22.625 14.996 36.204v405.504h405.504c13.578 0 26.604 5.396 36.204 14.996 9.605 9.6 14.996 22.625 14.996 36.204s-5.391 26.602-14.996 36.204c-9.6 9.602-22.625 14.945-36.204 14.945z" />
<glyph unicode="&#xe902;" glyph-name="003" d="M964.659 396.8h-913.459c-13.579 0-26.601 5.396-36.203 14.996s-14.997 22.625-14.997 36.204c0 13.579 5.395 26.602 14.997 36.204s22.624 14.996 36.203 14.996h913.459c13.578 0 26.604-5.394 36.204-14.996s14.996-22.625 14.996-36.204c0-13.578-5.396-26.604-14.996-36.204s-22.625-14.996-36.204-14.996z" />
<glyph unicode="&#xe903;" glyph-name="004" d="M939.696 60.401h-706.753c-17.419 0.107-34.577 4.247-50.127 12.093 11.346 0.756 22.058 5.505 30.233 13.41l761.122 761.174c8.294 9.301 12.712 21.424 12.342 33.879-0.366 12.455-5.486 24.297-14.307 33.096-8.826 8.798-20.68 13.885-33.139 14.216-12.454 0.331-24.566-4.119-33.846-12.437l-761.122-761.174c-7.936-8.138-12.709-18.842-13.458-30.184-7.848 15.55-11.987 32.709-12.093 50.127v706.756c0 12.932-5.137 25.335-14.282 34.48s-21.547 14.282-34.48 14.282c-12.932 0-25.335-5.137-34.48-14.282s-14.282-21.547-14.282-34.48v-706.756c0.052-56.188 22.395-110.060 62.126-149.792s93.604-62.074 149.793-62.128h706.753c12.937 0 25.337 5.14 34.484 14.282 9.143 9.143 14.277 21.548 14.277 34.48s-5.135 25.337-14.277 34.48c-9.148 9.143-21.548 14.282-34.484 14.282z" />
<glyph unicode="&#xe904;" glyph-name="005" d="M939.696 930.119c-12.932 0-25.332-5.137-34.475-14.282-9.148-9.145-14.287-21.547-14.287-34.48v-706.756c-0.112-17.398-4.233-34.533-12.044-50.078-0.761 11.332-5.51 22.026-13.41 30.184l-761.22 761.125c-9.196 8.882-21.514 13.797-34.299 13.686s-25.016-5.239-34.056-14.28c-9.041-9.041-14.169-21.271-14.28-34.056s4.804-25.103 13.686-34.299l761.171-761.125c8.158-7.938 18.881-12.707 30.237-13.458-15.555-7.846-32.709-11.986-50.132-12.093h-706.801c-12.932 0-25.335-5.14-34.48-14.282s-14.282-21.548-14.282-34.48c0-12.932 5.137-25.337 14.282-34.48s21.548-14.282 34.48-14.282h706.801c56.183 0.063 110.041 22.416 149.762 62.142 39.721 39.731 62.059 93.598 62.108 149.777v706.756c0 12.932-5.135 25.335-14.277 34.48-9.148 9.145-21.548 14.282-34.484 14.282z" />
<glyph unicode="&#xe905;" glyph-name="006" d="M207.782 828.595c12.264 4.585 25.234 6.994 38.327 7.119h706.753c12.937 0 25.337 5.138 34.484 14.282 9.143 9.144 14.277 21.547 14.277 34.48s-5.135 25.335-14.277 34.48c-9.148 9.145-21.548 14.282-34.484 14.282h-706.753c-56.163-0.065-110.008-22.401-149.726-62.11s-62.067-93.549-62.144-149.712v-707.046c0-12.932 5.137-25.337 14.282-34.48 9.145-9.148 21.547-14.282 34.48-14.282s25.335 5.135 34.48 14.282c9.144 9.143 14.282 21.548 14.282 34.48v706.997c0.114 13.074 2.506 26.027 7.070 38.278l779.554-779.555c4.501-4.657 9.879-8.372 15.828-10.928s12.351-3.901 18.822-3.959c6.476-0.054 12.898 1.18 18.89 3.628 5.993 2.453 11.44 6.076 16.013 10.654 4.579 4.579 8.202 10.021 10.654 16.013 2.448 5.993 3.686 12.415 3.628 18.89s-1.399 12.873-3.959 18.822c-2.555 5.949-6.266 11.327-10.928 15.828l-779.554 779.555z" />
<glyph unicode="&#xe906;" glyph-name="007" d="M735.412 933.238h-652.432c-12.932 0-25.335-5.137-34.48-14.282s-14.282-21.547-14.282-34.48c0-12.932 5.137-25.335 14.282-34.48s21.548-14.282 34.48-14.282h652.432c28.214-0.199 55.91-7.548 80.506-21.358-2.165-1.245-4.252-2.629-6.242-4.145l-761.171-761.172c-4.657-4.501-8.372-9.879-10.928-15.828s-3.901-12.347-3.957-18.822c-0.056-6.476 1.178-12.898 3.629-18.89s6.073-11.435 10.651-16.013c4.579-4.579 10.022-8.202 16.015-10.654 5.993-2.448 12.414-3.682 18.888-3.628 6.475 0.059 12.873 1.404 18.822 3.959s11.33 6.271 15.828 10.928l761.22 761.074c1.531 1.969 2.896 4.057 4.096 6.242 13.809-24.581 21.158-52.263 21.358-80.457v-652.433c0-12.932 5.14-25.337 14.282-34.48 9.148-9.148 21.548-14.282 34.48-14.282 12.937 0 25.337 5.135 34.48 14.282 9.148 9.143 14.282 21.548 14.282 34.48v652.433c-0.063 70.596-28.131 138.283-78.048 188.206-49.913 49.923-117.594 78.005-188.192 78.083z" />
<glyph unicode="&#xe907;" glyph-name="008" d="M945.532 500.594h-809.446c4.456 9.882 10.302 19.078 17.359 27.306 3.254 3.634 6.722 7.070 10.386 10.289l340.746 312.661c4.72 4.342 8.538 9.57 11.24 15.387 2.697 5.817 4.223 12.109 4.491 18.516s-0.731 12.804-2.935 18.825c-2.204 6.022-5.573 11.55-9.918 16.269-4.34 4.719-9.567 8.537-15.384 11.236s-12.11 4.225-18.517 4.492c-6.407 0.267-12.804-0.73-18.826-2.935s-11.55-5.575-16.269-9.916l-340.309-312.076c-22.344-19.899-40.233-44.292-52.499-71.582s-18.629-56.864-18.675-86.784c-0.046-29.921 6.227-59.514 18.408-86.841 12.181-27.331 29.996-51.775 52.278-71.743l340.797-312.613c4.723-4.325 10.251-7.68 16.269-9.869s12.409-3.17 18.807-2.892c6.398 0.283 12.678 1.819 18.482 4.53 5.803 2.706 11.015 6.529 15.34 11.254 4.325 4.72 7.68 10.25 9.869 16.267s3.17 12.41 2.892 18.807c-0.283 6.398-1.819 12.678-4.525 18.481-2.711 5.808-6.534 11.020-11.259 15.345l-341.331 313.149c-11.648 10.357-21.056 22.981-27.648 37.108h810.177c12.937 0 25.337 5.135 34.48 14.282 9.148 9.143 14.282 21.548 14.282 34.478 0 12.933-5.135 25.336-14.282 34.48-9.143 9.145-21.543 14.282-34.48 14.282z" />
<glyph unicode="&#xe908;" glyph-name="009" d="M923.609 608.985l-340.797 312.612c-4.667 4.596-10.211 8.205-16.301 10.612s-12.605 3.561-19.154 3.395c-6.549-0.166-12.995-1.65-18.954-4.362-5.964-2.712-11.318-6.598-15.745-11.425s-7.836-10.496-10.025-16.669c-2.185-6.173-3.106-12.724-2.711-19.262 0.4-6.538 2.111-12.928 5.037-18.789 2.921-5.861 6.997-11.074 11.976-15.326l341.333-313.149c11.649-10.358 21.055-22.985 27.648-37.108h-810.178c-12.932 0-25.335-5.138-34.48-14.282s-14.282-21.547-14.282-34.48c0-12.934 5.137-25.334 14.282-34.481 9.145-9.143 21.548-14.282 34.48-14.282h809.447c-4.496-9.952-10.391-19.212-17.506-27.502-3.233-3.569-6.671-6.958-10.289-10.142l-340.699-312.613c-4.891-4.276-8.875-9.489-11.722-15.331s-4.496-12.195-4.852-18.681c-0.361-6.49 0.585-12.985 2.77-19.1 2.189-6.12 5.578-11.742 9.967-16.53 4.393-4.788 9.699-8.655 15.604-11.366s12.293-4.218 18.788-4.423c6.49-0.21 12.961 0.883 19.032 3.213 6.066 2.326 11.605 5.847 16.291 10.342l340.066 312.076c6.388 5.598 12.41 11.591 18.042 17.944 37.235 42.043 56.315 97.109 53.072 153.174s-28.545 108.566-70.383 146.031z" />
<glyph unicode="&#xe909;" glyph-name="010" d="M697.364 38.985l312.613 340.797c4.598 4.667 8.207 10.211 10.615 16.301 2.404 6.090 3.56 12.605 3.394 19.154s-1.653 12.995-4.364 18.959c-2.711 5.959-6.597 11.313-11.425 15.741s-10.494 7.836-16.667 10.024c-6.173 2.188-12.727 3.11-19.261 2.711-6.539-0.399-12.932-2.111-18.793-5.034s-11.074-6.996-15.326-11.978l-313.149-341.333c-10.357-11.644-22.981-21.055-37.108-27.648v810.179c0 12.932-5.135 25.335-14.282 34.48-9.143 9.145-21.543 14.282-34.48 14.282-12.932 0-25.332-5.137-34.48-14.282-9.143-9.145-14.282-21.547-14.282-34.48v-809.448c-9.952 4.496-19.213 10.391-27.5 17.506-3.572 3.233-6.959 6.671-10.142 10.289l-312.612 340.699c-4.279 4.89-9.492 8.876-15.334 11.723s-12.192 4.497-18.681 4.855c-6.488 0.357-12.982-0.586-19.101-2.774s-11.738-5.577-16.528-9.967c-4.79-4.392-8.655-9.693-11.366-15.598s-4.215-12.293-4.423-18.788c-0.208-6.495 0.885-12.966 3.213-19.032s5.846-11.61 10.345-16.296l312.076-340.066c5.597-6.383 11.59-12.41 17.944-18.042 42.040-37.235 97.108-56.315 153.174-53.072 56.062 3.243 108.564 28.55 146.027 70.383z" />
<glyph unicode="&#xe90a;" glyph-name="011" d="M670.379 865.122l312.613-340.797c4.593-4.666 8.202-10.211 10.611-16.302 2.404-6.091 3.56-12.605 3.394-19.153s-1.648-12.995-4.359-18.956c-2.716-5.962-6.602-11.316-11.425-15.743-4.827-4.427-10.498-7.838-16.672-10.023-6.173-2.189-12.722-3.111-19.261-2.711s-12.927 2.111-18.788 5.032c-5.861 2.924-11.074 6.997-15.326 11.979l-313.149 341.333c-10.357 11.647-22.986 21.055-37.108 27.648v-810.177c0-12.937-5.14-25.337-14.282-34.48-9.148-9.148-21.548-14.282-34.48-14.282s-25.337 5.135-34.481 14.282c-9.145 9.143-14.282 21.543-14.282 34.48v809.446c-9.954-4.496-19.215-10.391-27.502-17.506-3.573-3.235-6.959-6.67-10.142-10.289l-312.613-340.699c-4.279-4.89-9.492-8.876-15.334-11.72-5.841-2.848-12.193-4.501-18.681-4.857s-12.983 0.585-19.101 2.775c-6.119 2.185-11.738 5.575-16.529 9.966s-8.655 9.694-11.366 15.599c-2.712 5.906-4.215 12.293-4.423 18.788s0.884 12.965 3.213 19.032c2.328 6.067 5.846 11.607 10.346 16.295l312.076 340.066c5.596 6.385 11.59 12.411 17.944 18.042 42.039 37.235 97.108 56.316 153.172 53.072 56.066-3.244 108.568-28.548 146.032-70.383z" />
<glyph unicode="&#xe90b;" glyph-name="012" d="M21.786 301.714h975.239v107.276h-762.637l177.493 219.429-78.018 63.39-312.077-390.095z" />
<glyph unicode="&#xe90c;" glyph-name="013" d="M997.025 301.714h-975.239v107.276h762.637l-177.493 219.429 78.019 63.39 312.076-390.095z" />
<glyph unicode="&#xe90d;" glyph-name="014" d="M505.505 935.619c-95.672 0-189.193-28.37-268.74-81.521s-141.547-128.698-178.158-217.086c-36.611-88.388-46.191-185.647-27.527-279.48s64.733-180.024 132.382-247.671c67.649-67.647 153.841-113.718 247.673-132.384s191.094-9.084 279.479 27.526c88.386 36.61 163.933 98.611 217.088 178.156 53.15 79.55 81.52 173.071 81.52 268.741-0.141 128.246-51.151 251.199-141.834 341.883-90.687 90.684-213.641 141.693-341.884 141.835zM505.505 65.707c-76.384 0-151.051 22.65-214.56 65.087-63.509 42.433-113.008 102.751-142.238 173.314-29.23 70.568-36.878 148.221-21.976 223.135s51.682 143.727 105.692 197.738c54.010 54.010 122.824 90.791 197.738 105.693 74.915 14.901 152.564 7.253 223.132-21.977s130.887-78.73 173.319-142.239c42.437-63.509 65.087-138.176 65.087-214.558-0.117-102.39-40.843-200.553-113.245-272.955-72.402-72.397-170.564-113.123-272.95-113.24zM627.015 606.679c-25.161 32.165-62.040 53.049-102.566 58.075s-81.391-6.213-113.646-31.256c-9.52-7.394-18.115-15.908-25.6-25.356l-80.067-94.744c-8.348-9.88-12.429-22.672-11.345-35.562s7.243-24.82 17.124-33.166c9.88-8.348 22.671-12.429 35.561-11.347s24.82 7.241 33.168 17.123l77.093 91.331v-252.975c0-12.937 5.138-25.337 14.282-34.48 9.145-9.148 21.545-14.282 34.477-14.282 12.937 0 25.337 5.135 34.484 14.282 9.143 9.143 14.277 21.543 14.277 34.48v252.975l77.141-91.331c4.091-5.035 9.143-9.204 14.858-12.262 5.72-3.062 11.991-4.949 18.452-5.554 6.456-0.605 12.966 0.083 19.154 2.024 6.188 1.946 11.927 5.1 16.881 9.289 4.949 4.186 9.021 9.319 11.961 15.098 2.945 5.778 4.71 12.086 5.183 18.554 0.478 6.468-0.341 12.966-2.404 19.113-2.068 6.148-5.339 11.822-9.621 16.69l-78.848 93.282z" />
<glyph unicode="&#xe90e;" glyph-name="015" d="M997.025 451.902c0 95.67-28.37 189.191-81.52 268.738-53.155 79.547-128.702 141.546-217.088 178.158s-185.646 46.191-279.48 27.527c-93.832-18.664-180.023-64.733-247.671-132.383s-113.719-153.84-132.383-247.672c-18.664-93.832-9.085-191.093 27.526-279.478 36.611-88.391 98.611-163.938 178.158-217.088s173.069-81.52 268.741-81.52c128.244 0.141 251.197 51.151 341.884 141.834 90.683 90.687 141.692 213.641 141.834 341.885zM127.112 451.902c0 76.382 22.65 151.049 65.085 214.558s102.751 113.008 173.318 142.238c70.568 29.23 148.221 36.877 223.134 21.976s143.726-51.682 197.739-105.692c54.009-54.010 90.79-122.824 105.691-197.738s7.251-152.562-21.977-223.131c-29.228-70.568-78.731-130.887-142.238-173.319-63.508-42.437-138.177-65.087-214.557-65.087-102.391 0.117-200.553 40.843-272.954 113.245-72.4 72.397-113.126 170.559-113.242 272.951zM668.082 330.391c32.168 25.161 53.048 62.040 58.075 102.566 5.027 40.525-6.212 81.39-31.256 113.645-7.392 9.519-15.906 18.114-25.356 25.6l-94.744 80.067c-9.879 8.348-22.669 12.429-35.562 11.345-12.888-1.083-24.82-7.243-33.168-17.123s-12.425-22.672-11.342-35.561c1.083-12.889 7.241-24.82 17.12-33.168l91.331-77.092h-252.975c-12.933 0-25.335-5.138-34.48-14.283s-14.282-21.546-14.282-34.479c0-12.933 5.138-25.338 14.282-34.481s21.547-14.282 34.48-14.282h252.975l-91.331-77.141c-5.032-4.086-9.201-9.138-12.264-14.858-3.057-5.715-4.944-11.991-5.549-18.447s0.083-12.966 2.024-19.154c1.941-6.188 5.1-11.927 9.289-16.881 4.184-4.954 9.318-9.021 15.097-11.966 5.778-2.94 12.088-4.706 18.554-5.183 6.466-0.473 12.966 0.341 19.115 2.409 6.144 2.063 11.82 5.335 16.686 9.621l93.282 78.848z" />
<glyph unicode="&#xe90f;" glyph-name="016" d="M513.307-39.619c95.671 0 189.191 28.37 268.737 81.52 79.55 53.15 141.546 128.697 178.161 217.088 36.61 88.386 46.187 185.646 27.526 279.479-18.666 93.832-64.736 180.022-132.384 247.671s-153.839 113.719-247.671 132.383c-93.833 18.664-191.093 9.085-279.481-27.526s-163.935-98.611-217.086-178.158c-53.152-79.547-81.521-173.069-81.521-268.74 0.142-128.249 51.151-251.202 141.835-341.884s213.638-141.692 341.884-141.834zM513.307 830.293c76.381 0 151.050-22.65 214.557-65.085s113.011-102.751 142.238-173.319c29.233-70.568 36.879-148.219 21.977-223.132s-51.683-143.731-105.691-197.739c-54.014-54.009-122.826-90.79-197.739-105.691s-152.565-7.256-223.133 21.977c-70.568 29.228-130.884 78.726-173.32 142.238-42.436 63.508-65.085 138.177-65.085 214.557 0.116 102.389 40.842 200.552 113.243 272.953s170.563 113.126 272.953 113.242zM391.797 289.319c25.159-32.163 62.039-53.048 102.566-58.075 40.521-5.022 81.388 6.212 113.644 31.256 9.518 7.397 18.115 15.911 25.6 25.356l80.067 94.744c8.348 9.884 12.429 22.674 11.347 35.562-1.087 12.893-7.246 24.82-17.125 33.17-9.879 8.348-22.674 12.429-35.562 11.345s-24.82-7.243-33.168-17.125l-77.093-91.331v252.979c0 12.932-5.14 25.335-14.282 34.48s-21.548 14.282-34.48 14.282c-12.932 0-25.337-5.138-34.48-14.282-9.145-9.144-14.281-21.547-14.281-34.48v-252.979l-77.141 91.331c-4.088 5.037-9.139 9.206-14.857 12.265s-11.991 4.946-18.448 5.552c-6.457 0.606-12.969-0.083-19.156-2.025s-11.927-5.1-16.879-9.287c-4.953-4.189-9.020-9.319-11.964-15.097s-4.706-12.088-5.183-18.554c-0.476-6.471 0.341-12.966 2.406-19.115s5.337-11.82 9.622-16.691l78.848-93.282z" />
<glyph unicode="&#xe910;" glyph-name="017" d="M505.505 935.619c-95.672 0-189.193-28.37-268.74-81.521s-141.547-128.698-178.158-217.086c-36.611-88.388-46.191-185.647-27.527-279.48s64.733-180.024 132.382-247.671c67.649-67.647 153.841-113.718 247.673-132.384s191.094-9.084 279.479 27.526c88.386 36.61 163.933 98.611 217.088 178.156 53.15 79.55 81.52 173.071 81.52 268.741-0.141 128.246-51.151 251.199-141.834 341.883-90.687 90.684-213.641 141.693-341.884 141.835zM505.505 65.707c-76.384 0-151.051 22.65-214.56 65.087-63.509 42.433-113.008 102.751-142.238 173.314-29.23 70.568-36.878 148.221-21.976 223.135s51.682 143.727 105.692 197.738c54.010 54.010 122.824 90.791 197.738 105.693 74.915 14.901 152.564 7.253 223.132-21.977s130.887-78.73 173.319-142.239c42.437-63.509 65.087-138.176 65.087-214.558-0.117-102.39-40.843-200.553-113.245-272.955-72.402-72.397-170.564-113.123-272.95-113.24zM627.015 606.679c-25.161 32.165-62.040 53.049-102.566 58.075s-81.391-6.213-113.646-31.256c-9.52-7.394-18.115-15.908-25.6-25.356l-80.067-94.744c-8.348-9.88-12.429-22.672-11.345-35.562s7.243-24.82 17.124-33.166c9.88-8.348 22.671-12.429 35.561-11.347s24.82 7.241 33.168 17.123l77.093 91.331v-252.975c0-12.937 5.138-25.337 14.282-34.48 9.145-9.148 21.545-14.282 34.477-14.282 12.937 0 25.337 5.135 34.484 14.282 9.143 9.143 14.277 21.543 14.277 34.48v252.975l77.141-91.331c4.091-5.035 9.143-9.204 14.858-12.262 5.72-3.062 11.991-4.949 18.452-5.554 6.456-0.605 12.966 0.083 19.154 2.024 6.188 1.946 11.927 5.1 16.881 9.289 4.949 4.186 9.021 9.319 11.961 15.098 2.945 5.778 4.71 12.086 5.183 18.554 0.478 6.468-0.341 12.966-2.404 19.113-2.068 6.148-5.339 11.822-9.621 16.69l-78.848 93.282z" />
<glyph unicode="&#xe911;" glyph-name="018" d="M509.406-39.619c-268.679 0-487.62 218.941-487.62 487.619s218.941 487.619 487.62 487.619c268.678 0 487.619-218.941 487.619-487.619s-218.941-487.619-487.619-487.619zM509.406 838.095c-215.041 0-390.096-175.055-390.096-390.095s175.055-390.095 390.096-390.095c215.040 0 390.095 175.055 390.095 390.095s-175.055 390.095-390.095 390.095zM665.927 563.568l-121.905 121.905c-4.389 4.389-9.752 8.29-16.091 10.728-11.703 4.876-25.356 4.876-37.059 0-5.85-2.438-11.215-5.851-16.091-10.728l-121.905-121.905c-14.141-14.141-18.042-35.109-10.728-53.15s25.357-30.232 44.862-30.232h73.143v-235.522c0-26.819 21.943-48.762 48.761-48.762s48.762 21.943 48.762 48.762v235.522h73.143c19.505 0 37.547 11.702 44.861 30.232 7.802 18.042 3.413 39.010-10.728 53.15h0.975z" />
<glyph unicode="&#xe912;" glyph-name="019" d="M509.406-39.619c-268.679 0-487.62 218.941-487.62 487.619s218.941 487.619 487.62 487.619c268.678 0 487.619-218.941 487.619-487.619s-218.941-487.619-487.619-487.619zM509.406 838.095c-215.041 0-390.096-175.055-390.096-390.095s175.055-390.095 390.096-390.095c215.040 0 390.095 175.055 390.095 390.095s-175.055 390.095-390.095 390.095zM665.927 332.195l-121.905-121.905c-4.389-4.389-9.752-8.29-16.091-10.728-11.703-4.876-25.356-4.876-37.059 0-5.85 2.438-11.215 5.851-16.091 10.728l-121.905 121.905c-14.141 14.141-18.042 35.109-10.728 53.15s25.357 30.232 44.862 30.232h73.143v235.519c0 26.819 21.943 48.762 48.761 48.762s48.762-21.943 48.762-48.762v-235.519h73.143c19.505 0 37.547-11.703 44.861-30.232 7.802-18.042 3.413-39.010-10.728-53.15h0.975z" />
<glyph unicode="&#xe913;" glyph-name="020" d="M509.406-39.619c-268.679 0-487.62 218.941-487.62 487.619s218.941 487.619 487.62 487.619c268.678 0 487.619-218.941 487.619-487.619s-218.941-487.619-487.619-487.619zM509.406 838.095c-215.041 0-390.096-175.055-390.096-390.095s175.055-390.095 390.096-390.095c215.040 0 390.095 175.055 390.095 390.095s-175.055 390.095-390.095 390.095zM393.337 290.977l-121.905 121.905c-4.389 4.389-8.29 9.752-10.728 16.091-4.876 11.703-4.876 25.356 0 37.059 2.438 5.851 5.852 11.216 10.728 16.092l121.905 121.905c14.141 14.141 35.108 18.042 53.15 10.728s30.232-25.357 30.232-44.862v-73.142h235.521c26.819 0 48.762-21.943 48.762-48.762s-21.943-48.762-48.762-48.762h-235.521v-73.143c0-19.505-11.703-37.547-30.232-44.861-18.042-7.802-39.009-3.413-53.15 10.728v-0.975z" />
<glyph unicode="&#xe914;" glyph-name="021" d="M512-64c-282.112 0-512 229.888-512 512s229.888 512 512 512c282.112 0 512-229.888 512-512s-229.888-512-512-512zM512 857.6c-225.792 0-409.6-183.808-409.6-409.6s183.808-409.6 409.6-409.6c225.792 0 409.6 183.808 409.6 409.6s-183.808 409.6-409.6 409.6zM633.073 283.126l128 128c4.608 4.608 8.704 10.24 11.264 16.896 5.12 12.288 5.12 26.624 0 38.912-2.56 6.144-6.144 11.777-11.264 16.897l-128 128c-14.848 14.848-36.864 18.944-55.808 11.264s-31.744-26.625-31.744-47.105v-76.799l-247.298-0.001c-28.16 0-51.2-23.040-51.2-51.2s23.040-51.2 51.2-51.2h247.298v-76.8c0-20.48 12.288-39.424 31.744-47.104 18.944-8.192 40.96-3.584 55.808 11.264v-1.024z" />
<glyph unicode="&#xe915;" glyph-name="022" d="M753.004 945.004c19.994-19.995 19.994-52.413 0-72.408l-424.596-424.596 424.596-424.596c19.994-19.994 19.994-52.413 0-72.407s-52.413-19.994-72.407 0l-460.801 460.8c-19.995 19.994-19.995 52.412 0 72.408l460.801 460.8c19.994 19.995 52.413 19.995 72.407 0z" />
<glyph unicode="&#xe916;" glyph-name="023" d="M270.996-49.004c-19.995 19.994-19.995 52.413 0 72.407l424.597 424.596-424.597 424.596c-19.995 19.995-19.995 52.413 0 72.408s52.413 19.995 72.408 0l460.799-460.8c19.994-19.995 19.994-52.414 0-72.408l-460.799-460.8c-19.995-19.994-52.413-19.994-72.408 0z" />
<glyph unicode="&#xe917;" glyph-name="024" d="M1009.004 206.996c-19.994-19.994-52.413-19.994-72.407 0l-424.596 424.596-424.596-424.596c-19.995-19.994-52.413-19.994-72.408 0s-19.995 52.413 0 72.407l460.8 460.801c19.995 19.995 52.414 19.995 72.408 0l460.8-460.801c19.994-19.994 19.994-52.413 0-72.407z" />
<glyph unicode="&#xe918;" glyph-name="025" d="M1009.004 689.004c-19.994 19.995-52.413 19.995-72.407 0l-424.596-424.597-424.596 424.597c-19.995 19.995-52.413 19.995-72.408 0s-19.995-52.413 0-72.408l460.8-460.799c19.995-19.994 52.414-19.994 72.408 0l460.8 460.799c19.994 19.995 19.994 52.413 0 72.408z" />
<glyph unicode="&#xe919;" glyph-name="026" d="M743.834-55.818c-12.093 0.005-23.793 4.285-33.029 12.083l-363.518 307.2c-28.591 22.63-51.664 51.466-67.479 84.321s-23.954 68.874-23.806 105.339c0.148 36.464 8.579 72.417 24.659 105.143s39.387 61.371 68.161 83.769l361.982 305.869c10.378 8.765 23.808 13.050 37.345 11.913 13.532-1.138 26.061-7.605 34.826-17.98s13.046-23.806 11.909-37.34c-1.137-13.534-7.603-26.061-17.976-34.827l-363.523-307.2c-9.552-7.45-18.15-16.048-25.6-25.6-22.505-28.974-32.599-65.691-28.069-102.098 4.531-36.403 23.315-69.53 52.235-92.104l365.259-308.429c8.023-6.774 13.768-15.846 16.456-25.994 2.693-10.143 2.196-20.874-1.413-30.73s-10.158-18.365-18.765-24.371c-8.607-6.011-18.852-9.226-29.353-9.221z" />
<glyph unicode="&#xe91a;" glyph-name="027" d="M331.368-55.818c12.089 0.005 23.789 4.285 33.025 12.083l363.522 307.2c28.59 22.63 51.661 51.466 67.476 84.321s23.956 68.874 23.808 105.339c-0.148 36.464-8.581 72.417-24.663 105.143-16.077 32.727-39.388 61.371-68.157 83.769l-361.986 305.869c-10.375 8.765-23.807 13.050-37.341 11.913s-26.061-7.605-34.827-17.98c-8.765-10.374-13.050-23.806-11.912-37.34s7.605-26.061 17.979-34.827l363.518-307.2c9.554-7.45 18.15-16.048 25.6-25.6 22.508-28.974 32.604-65.691 28.073-102.098-4.531-36.403-23.316-69.53-52.234-92.104l-365.263-308.429c-8.019-6.774-13.764-15.846-16.455-25.994-2.691-10.143-2.197-20.874 1.413-30.73s10.16-18.365 18.767-24.371c8.607-6.011 18.853-9.226 29.35-9.221z" />
<glyph unicode="&#xe91b;" glyph-name="028" d="M1015.818 267.366c-0.005 12.093-4.285 23.793-12.083 33.029l-307.2 363.518c-22.63 28.591-51.466 51.664-84.321 67.479s-68.874 23.954-105.339 23.806c-36.464-0.148-72.417-8.579-105.143-24.659s-61.371-39.387-83.769-68.161l-305.869-361.982c-8.765-10.378-13.050-23.808-11.913-37.345 1.138-13.532 7.605-26.061 17.98-34.826s23.806-13.046 37.34-11.909c13.534 1.137 26.061 7.603 34.827 17.976l307.2 363.523c7.45 9.552 16.048 18.15 25.6 25.6 28.974 22.505 65.691 32.599 102.098 28.069 36.403-4.531 69.53-23.315 92.104-52.235l308.429-365.259c6.774-8.023 15.846-13.768 25.994-16.456 10.143-2.693 20.874-2.196 30.73 1.413s18.365 10.158 24.371 18.765c6.011 8.607 9.226 18.852 9.221 29.353z" />
<glyph unicode="&#xe91c;" glyph-name="029" d="M8.182 628.632c0.003-12.089 4.283-23.789 12.083-33.025l307.2-363.522c22.631-28.59 51.464-51.661 84.32-67.476s68.876-23.956 105.339-23.808c36.465 0.148 72.417 8.581 105.144 24.663 32.727 16.077 61.368 39.388 83.768 68.157l305.869 361.986c8.765 10.375 13.051 23.807 11.914 37.341s-7.608 26.061-17.981 34.827c-10.373 8.765-23.803 13.050-37.34 11.912-13.532-1.138-26.061-7.605-34.826-17.979l-307.2-363.518c-7.45-9.554-16.046-18.15-25.6-25.6-28.974-22.508-65.69-32.604-102.096-28.073s-69.53 23.316-92.105 52.234l-308.429 365.263c-6.773 8.019-15.846 13.764-25.993 16.455s-20.874 2.197-30.731-1.413c-9.857-3.61-18.366-10.16-24.374-18.767s-9.227-18.853-9.219-29.35z" />
<glyph unicode="&#xe91d;" glyph-name="030" d="M378.565-49.751c10.065 0.041 19.894 3.046 28.259 8.643 8.366 5.601 14.896 13.537 18.775 22.825s4.934 19.512 3.034 29.394c-1.9 9.887-6.67 18.99-13.715 26.179l-244.429 246.579c-38.137 38.871-59.502 91.156-59.502 145.613s21.364 106.739 59.502 145.612l244.377 246.426c4.737 4.774 8.487 10.434 11.037 16.657s3.848 12.888 3.822 19.613c-0.026 6.725-1.377 13.379-3.974 19.582s-6.392 11.834-11.166 16.571c-4.774 4.737-10.434 8.487-16.657 11.036s-12.888 3.848-19.613 3.822c-6.725-0.026-13.379-1.377-19.582-3.975s-11.834-6.392-16.571-11.166l-244.429-246.527c-56.987-58.093-88.91-136.223-88.91-217.599s31.923-159.508 88.91-217.6l244.481-246.579c4.742-4.838 10.397-8.689 16.637-11.325s12.941-4.009 19.715-4.035zM972.892-49.751c10.066 0.041 19.896 3.046 28.257 8.643 8.366 5.601 14.899 13.537 18.775 22.825 3.881 9.288 4.936 19.512 3.036 29.394-1.9 9.887-6.671 18.99-13.716 26.179l-244.429 246.579c-38.124 38.876-59.479 91.162-59.479 145.613s21.356 106.733 59.479 145.612l244.326 246.426c9.564 9.641 14.909 22.688 14.858 36.27s-5.499 26.586-15.14 36.153c-9.641 9.566-22.687 14.911-36.27 14.858s-26.588-5.499-36.152-15.14l-244.429-246.527c-56.965-58.105-88.868-136.23-88.868-217.599 0-81.372 31.903-159.493 88.868-217.6l244.48-246.579c4.741-4.838 10.399-8.689 16.635-11.325 6.241-2.637 12.943-4.009 19.717-4.035z" />
<glyph unicode="&#xe91e;" glyph-name="031" d="M645.432-49.751c-10.061 0.041-19.891 3.046-28.257 8.643-8.366 5.601-14.894 13.537-18.775 22.825-3.876 9.288-4.931 19.512-3.031 29.394 1.9 9.887 6.666 18.99 13.711 26.179l244.429 246.579c38.139 38.871 59.505 91.156 59.505 145.613s-21.366 106.739-59.505 145.612l-244.378 246.426c-4.736 4.774-8.484 10.434-11.034 16.657s-3.85 12.888-3.825 19.613c0.031 6.725 1.377 13.379 3.978 19.582 2.596 6.203 6.39 11.834 11.162 16.571 4.777 4.737 10.435 8.487 16.66 11.036 6.221 2.549 12.887 3.848 19.61 3.822 6.728-0.026 13.379-1.377 19.584-3.975 6.2-2.597 11.832-6.392 16.568-11.166l244.429-246.527c56.991-58.093 88.914-136.223 88.914-217.599s-31.923-159.508-88.914-217.6l-244.48-246.579c-4.741-4.838-10.394-8.689-16.635-11.325s-12.938-4.009-19.717-4.035zM51.108-49.751c-10.065 0.041-19.894 3.046-28.259 8.643-8.365 5.601-14.895 13.537-18.774 22.825s-4.934 19.512-3.034 29.394c1.9 9.887 6.67 18.99 13.716 26.179l244.429 246.579c38.125 38.876 59.482 91.162 59.482 145.613s-21.357 106.733-59.482 145.612l-244.326 246.426c-9.566 9.641-14.911 22.688-14.858 36.27s5.499 26.586 15.14 36.153c9.641 9.566 22.688 14.911 36.27 14.858s26.587-5.499 36.153-15.14l244.428-246.527c56.963-58.105 88.869-136.23 88.869-217.599 0-81.372-31.907-159.493-88.869-217.6l-244.479-246.579c-4.742-4.838-10.397-8.689-16.637-11.325s-12.941-4.009-19.716-4.035z" />
<glyph unicode="&#xe91f;" glyph-name="032" d="M972.8 89.861h-567.296c-77.061-2.171-151.923 25.841-208.635 78.054-56.713 52.219-90.793 124.518-94.981 201.498 3.462 77.865 37.399 151.25 94.488 204.316s132.752 81.56 210.664 79.332h309.76v-102.4c0.031-9.455 2.673-18.717 7.644-26.761s12.073-14.553 20.516-18.807c7.066-3.838 15.002-5.778 23.040-5.632 11.059 0.104 21.811 3.686 30.72 10.24l204.8 153.6c6.359 4.769 11.52 10.953 15.073 18.063 3.558 7.109 5.407 14.948 5.407 22.897s-1.848 15.788-5.407 22.897c-3.553 7.11-8.714 13.294-15.073 18.063l-204.8 153.6c-7.67 5.63-16.727 9.059-26.204 9.916-9.472 0.857-19-0.89-27.556-5.052-8.612-4.182-15.841-10.745-20.833-18.913s-7.532-17.596-7.327-27.167v-102.4h-308.224c-105.192 2.488-207.115-36.639-283.621-108.878s-121.41-171.752-124.955-276.914c4.085-102.405 47.508-199.291 121.23-270.484s172.061-111.212 274.546-111.724h577.024c13.578 0 26.604 5.396 36.204 14.996s14.996 22.625 14.996 36.204c0 13.578-5.396 26.604-14.996 36.204s-22.625 14.996-36.204 14.996z" />
<glyph unicode="&#xe920;" glyph-name="033" d="M51.2 89.861h567.296c77.061-2.171 151.921 25.841 208.635 78.054 56.714 52.219 90.793 124.518 94.981 201.498-3.461 77.865-37.402 151.25-94.49 204.316s-132.751 81.56-210.662 79.332h-309.76v-102.4c-0.029-9.455-2.675-18.717-7.645-26.761s-12.071-14.553-20.515-18.807c-7.064-3.838-15.002-5.778-23.040-5.632-11.061 0.104-21.809 3.686-30.72 10.24l-204.8 153.6c-6.359 4.769-11.52 10.953-15.075 18.063s-5.405 14.948-5.405 22.897c0 7.949 1.851 15.788 5.405 22.897s8.716 13.294 15.075 18.063l204.8 153.6c7.668 5.63 16.729 9.059 26.203 9.916s19.003-0.89 27.557-5.052c8.611-4.182 15.841-10.745 20.832-18.913s7.535-17.596 7.328-27.167v-102.4h308.224c105.19 2.488 207.114-36.639 283.622-108.878 76.503-72.239 121.411-171.752 124.954-276.914-4.086-102.405-47.508-199.291-121.231-270.484-73.718-71.194-172.058-111.212-274.545-111.724h-577.024c-13.579 0-26.602 5.396-36.204 14.996s-14.996 22.625-14.996 36.204c0 13.578 5.394 26.604 14.996 36.204s22.625 14.996 36.204 14.996z" />
<glyph unicode="&#xe921;" glyph-name="034" d="M948.224 71.168c-26.624 0-49.152 20.992-51.2 47.616-1.536 20.48-23.552 198.144-370.176 203.264v-166.912c0-19.456-11.264-37.376-28.673-46.080s-38.4-6.656-53.76 5.632l-399.872 309.248c-12.8 9.728-19.968 24.578-19.968 40.45s7.168 30.72 19.968 40.448l399.872 308.736c15.36 11.776 36.352 13.824 53.76 5.632 17.409-8.704 28.673-26.624 28.673-46.080v-166.912h53.248c0 0 1.024 0 1.536 0 150.016-4.096 288.256-88.576 360.448-220.674 40.448-83.968 59.392-174.592 56.832-265.216-0.512-27.136-23.040-49.152-50.176-49.664h-1.024l0.512 0.512zM159.743 464.386l264.704-204.802v113.664c0 28.16 23.040 51.2 51.2 51.2h36.352c154.625 0 260.097-31.232 331.777-73.216-55.296 90.112-155.648 148.994-264.704 152.578h-103.937c-28.16 0-51.2 23.040-51.2 51.2v113.664l-264.192-204.288z" />
<glyph unicode="&#xe922;" glyph-name="035" d="M75.777 71.168c26.624 0 49.152 20.992 51.2 47.616 1.536 20.48 23.552 198.144 370.176 203.264v-166.912c0-19.456 11.264-37.376 28.671-46.080s38.4-6.656 53.76 5.632l399.872 309.248c12.8 9.728 19.968 24.578 19.968 40.45s-7.168 30.72-19.968 40.448l-399.872 308.736c-15.36 11.776-36.352 13.824-53.76 5.632-17.407-8.704-28.671-26.624-28.671-46.080v-166.912h-53.248c0 0-1.024 0-1.536 0-150.016-4.096-288.256-88.576-360.448-220.674-40.448-83.968-59.392-174.592-56.832-265.216 0.512-27.136 23.040-49.152 50.176-49.664h1.024l-0.512 0.512zM864.256 464.386l-264.704-204.802v113.664c0 28.16-23.040 51.2-51.2 51.2h-36.352c-154.623 0-260.095-31.232-331.775-73.216 55.296 90.112 155.648 148.994 264.704 152.578h103.935c28.16 0 51.2 23.040 51.2 51.2v113.664l264.192-204.288z" />
<glyph unicode="&#xe923;" glyph-name="036" d="M535.986 28.253c10.225 0.171 20.295 2.516 29.545 6.88 9.245 4.364 17.462 10.645 24.093 18.427 15.199 22.084 21.377 49.137 17.262 75.63v134.973c44.724-7.407 88.283-20.651 129.56-39.4 63.781-28.731 120.652-70.817 166.766-123.416 6.549-7.446 15.209-12.717 24.825-15.116 9.621-2.399 19.744-1.809 29.018 1.692s17.262 9.748 22.899 17.9c5.632 8.158 8.65 17.842 8.641 27.755v27.599c-0.288 121.066-47.109 237.392-130.779 324.901-68.198 71.175-155.165 121.572-250.831 145.357v154.527c4.12 26.645-2.185 53.852-17.603 75.97-7.192 7.956-15.994 14.294-25.819 18.59-9.83 4.295-20.46 6.453-31.183 6.33-26.049-3.521-50.043-16.046-67.827-35.402l-404.334-328.556c-14.731-9.847-26.525-23.497-34.134-39.5-6.241-16.178-6.43-34.062-0.536-50.369 7.431-16.633 19.46-30.793 34.669-40.814l404.286-328.558c18.733-20.129 44.132-32.778 71.483-35.596zM558.324 367.294c-12.937 0-25.342-5.14-34.484-14.282-9.143-9.148-14.277-21.548-14.277-34.48v-165.79l-374.934 304.664 375.026 304.762v-170.667c0-11.579 4.125-22.78 11.63-31.598s17.9-14.677 29.33-16.53c90.39-14.848 173.505-58.657 236.837-124.83 44.071-46.090 75.644-102.668 91.721-164.376-32.066 23.089-66.37 42.906-102.4 59.148-67.969 30.818-140.99 48.991-215.479 53.633h-3.072z" />
<glyph unicode="&#xe924;" glyph-name="037" d="M465.964 28.253c-10.224 0.171-20.294 2.516-29.542 6.88s-17.462 10.645-24.095 18.427c-15.198 22.084-21.374 49.137-17.262 75.63v134.973c-44.725-7.407-88.284-20.651-129.559-39.4-63.781-28.731-120.652-70.817-166.768-123.416-6.546-7.446-15.205-12.717-24.824-15.116s-19.74-1.809-29.015 1.692c-9.275 3.501-17.264 9.748-22.899 17.9-5.635 8.158-8.65 17.842-8.643 27.755v27.599c0.289 121.066 47.112 237.392 130.78 324.901 68.2 71.175 155.167 121.572 250.831 145.357v154.527c-4.12 26.645 2.186 53.852 17.604 75.97 7.193 7.956 15.994 14.294 25.821 18.59s20.457 6.453 31.181 6.33c26.047-3.521 50.042-16.046 67.826-35.402l404.334-328.556c14.731-9.847 26.526-23.497 34.133-39.5 6.242-16.178 6.432-34.062 0.536-50.369-7.431-16.633-19.461-30.793-34.67-40.814l-404.285-328.558c-18.734-20.129-44.134-32.778-71.484-35.596zM443.631 367.294c12.933 0 25.338-5.14 34.482-14.282 9.145-9.148 14.28-21.548 14.28-34.48v-165.79l374.93 304.664-375.028 304.762v-170.667c0-11.579-4.12-22.78-11.626-31.598s-17.903-14.677-29.333-16.53c-90.386-14.848-173.503-58.657-236.836-124.83-44.072-46.090-75.642-102.668-91.721-164.376 32.068 23.089 66.373 42.906 102.399 59.148 67.972 30.818 140.991 48.991 215.479 53.633h3.071z" />
<glyph unicode="&#xe925;" glyph-name="038" d="M333.982 149.090c-55.037-0.127-107.929 21.338-147.31 59.782l-4.535 4.535-154.868 158.72c-9.053 9.26-14.056 21.738-13.91 34.684 0.146 12.951 5.43 25.312 14.69 34.363 9.26 9.054 21.736 14.058 34.685 13.911s25.309-5.431 34.362-14.691l155.112-159.013c22.427-21.714 52.269-34.089 83.481-34.621 14.965 0.185 29.744 3.33 43.486 9.255s26.175 14.512 36.581 25.268l481.429 493.374c4.481 4.582 9.821 8.236 15.716 10.753s12.229 3.849 18.637 3.919c6.407 0.070 12.771-1.123 18.72-3.511 5.944-2.388 11.366-5.924 15.945-10.407 4.584-4.482 8.236-9.823 10.757-15.718 2.516-5.894 3.847-12.227 3.92-18.636 0.068-6.409-1.126-12.77-3.511-18.718-2.389-5.948-5.925-11.368-10.411-15.95l-481.326-493.326c-19.285-19.973-42.345-35.918-67.842-46.909s-52.924-16.808-80.687-17.115l-3.12 0.049z" />
<glyph unicode="&#xe926;" glyph-name="039" d="M497.074-31.817c-95.67 0-189.191 28.37-268.738 81.52s-141.547 128.697-178.158 217.088c-36.611 88.386-46.191 185.646-27.527 279.479s64.733 180.022 132.382 247.671c67.649 67.649 153.84 113.719 247.673 132.383 93.831 18.664 191.091 9.085 279.477-27.526 88.391-36.611 163.938-98.611 217.088-178.158s81.52-173.069 81.52-268.739c-0.141-128.249-51.151-251.202-141.834-341.884s-213.636-141.692-341.884-141.834zM497.074 838.095c-76.382 0-151.048-22.65-214.558-65.085s-113.008-102.751-142.238-173.319c-29.23-70.568-36.878-148.219-21.976-223.132s51.682-143.731 105.692-197.739c54.010-54.009 122.823-90.79 197.738-105.691 74.913-14.902 152.566-7.256 223.134 21.977 70.568 29.228 130.882 78.726 173.319 142.238 42.433 63.508 65.083 138.177 65.083 214.557-0.117 102.389-40.843 200.552-113.24 272.952-72.402 72.4-170.564 113.126-272.955 113.242zM431.832 317.806c-20.669-0.039-41.142 4.003-60.246 11.898-19.103 7.89-36.46 19.471-51.077 34.085l-53.639 53.638c-8.882 9.196-13.797 21.514-13.686 34.299s5.239 25.015 14.28 34.056c9.041 9.041 21.271 14.169 34.056 14.28s25.103-4.804 34.299-13.686l53.639-53.638c11.272-11.196 26.512-17.476 42.397-17.476s31.127 6.281 42.399 17.476l184.124 184.125c9.196 8.882 21.514 13.797 34.299 13.686s25.015-5.239 34.055-14.28c9.045-9.041 14.17-21.271 14.282-34.056s-4.803-25.103-13.687-34.3l-184.125-184.124c-14.624-14.614-31.988-26.2-51.102-34.094-19.111-7.89-39.592-11.927-60.268-11.888z" />
<glyph unicode="&#xe927;" glyph-name="040" d="M497.269-31.915h-0.341c-128.301 0.054-251.329 51.068-342.016 141.829s-141.606 213.831-141.554 342.133c0.052 128.303 51.070 251.331 141.83 342.018s213.829 141.605 342.13 141.554c67.745 0.044 134.734-14.247 196.559-41.935 6.105-2.427 11.654-6.061 16.316-10.685 4.667-4.625 8.348-10.143 10.825-16.225s3.701-12.602 3.599-19.168c-0.102-6.567-1.531-13.045-4.198-19.045-2.672-6.001-6.524-11.401-11.332-15.876s-10.464-7.933-16.642-10.166c-6.178-2.233-12.741-3.196-19.295-2.831-6.558 0.366-12.976 2.052-18.866 4.958-49.406 22.053-102.907 33.451-157.013 33.451-101.679-1.103-198.823-42.26-270.349-114.539s-111.663-169.848-111.701-271.535c-0.039-101.686 40.024-199.288 111.496-271.621 71.471-72.329 168.583-113.562 270.262-114.742h0.244c102.385-0.015 200.582 40.638 272.994 113.015s113.113 170.555 113.152 272.935v40.033c0 12.933 5.14 25.336 14.282 34.48 9.148 9.145 21.548 14.282 34.48 14.282s25.337-5.137 34.48-14.282c9.148-9.144 14.282-21.547 14.282-34.48v-40.033c-0.039-128.249-51.015-251.226-141.717-341.894s-213.704-141.595-341.953-141.58zM512.288 338.334c-38.069-0.088-74.85 13.795-103.374 39.010-4.79 4.203-9.302 8.714-13.507 13.507l-102.693 112.151c-8.743 9.538-13.338 22.158-12.775 35.084s6.236 25.099 15.774 33.841c9.538 8.742 22.158 13.338 35.084 12.776s25.099-6.237 33.842-15.774l103.228-112.738c1.761-2.021 3.651-3.926 5.656-5.705 11.591-10.244 26.769-15.486 42.212-14.569 15.443 0.912 29.896 7.904 40.194 19.445l323.974 354.011c4.281 4.883 9.489 8.862 15.326 11.705s12.186 4.49 18.666 4.848c6.485 0.357 12.976-0.584 19.085-2.768 6.115-2.184 11.732-5.567 16.521-9.95s8.655-9.679 11.371-15.577c2.716-5.897 4.223-12.277 4.442-18.766 0.215-6.489-0.863-12.956-3.179-19.021s-5.822-11.607-10.308-16.301l-323.438-353.425c-14.551-16.413-32.432-29.54-52.448-38.502-20.022-8.962-41.716-13.556-63.654-13.478z" />
<glyph unicode="&#xe928;" glyph-name="041" d="M507.904-55.808c-280.576 0-507.904 228.352-507.904 508.416 0 279.552 227.84 507.392 507.904 507.392 71.68 0 140.8-14.848 206.336-44.032l-41.472-93.696c-52.224 23.040-107.52 34.816-164.864 35.328-223.744 0-405.504-181.76-405.504-405.504s181.76-405.504 405.504-405.504c108.032 0 209.92 41.984 286.72 118.784s118.784 178.176 118.784 286.72v41.984h102.4v-41.984c0-135.68-52.736-263.168-148.992-358.912-95.744-95.744-223.232-148.48-358.912-148.48v-0.512zM507.906 287.739l-173.056 173.569 72.192 72.192 100.864-100.865 420.35 420.865 72.704-72.192-493.054-493.569z" />
<glyph unicode="&#xe929;" glyph-name="042" d="M483.995 341.396c-19.842-0.031-39.474 4.050-57.661 11.981s-34.536 19.543-48.016 34.099l-75.828 80.129c-9.335 9.865-14.37 23.034-13.995 36.612s6.127 26.449 15.992 35.785c9.865 9.336 23.035 14.37 36.612 13.996s26.449-6.127 35.785-15.992l76.186-80.487c3.721-4.11 8.222-7.44 13.241-9.795s10.455-3.692 15.994-3.927c10.966-0.256 21.613 3.702 29.747 11.060l415.386 438.271c4.557 5.126 10.102 9.283 16.297 12.224 6.2 2.942 12.923 4.609 19.779 4.901 6.851 0.292 13.691-0.795 20.116-3.198s12.303-6.073 17.28-10.791c4.982-4.719 8.96-10.39 11.704-16.676s4.198-13.060 4.275-19.919c0.077-6.859-1.224-13.664-3.83-20.009s-6.456-12.104-11.331-16.932l-412.672-435.61c-2.406-2.611-5.12-5.12-7.68-7.68-26.455-24.509-61.215-38.103-97.28-38.042zM195.432-55.859c-53.063 1.26-103.453 23.547-140.090 61.947-36.638 38.405-56.524 89.789-55.288 142.853v607.539c-1.034 52.641 18.763 103.56 55.086 141.675s86.23 60.343 138.86 61.845h482.147c13.583 0 26.604-5.394 36.209-14.996 9.6-9.602 14.991-22.625 14.991-36.204s-5.391-26.602-14.991-36.204c-9.605-9.602-22.625-14.996-36.209-14.996h-480.715c-25.487-1.040-49.539-12.081-66.942-30.731s-26.758-43.406-26.036-68.904v-610.253c-0.465-12.841 1.61-25.651 6.108-37.688s11.329-23.071 20.101-32.461c8.773-9.39 19.313-16.957 31.017-22.262s24.342-8.248 37.186-8.658h575.485c25.472 1.121 49.485 12.191 66.872 30.833s26.767 43.366 26.112 68.854v305.818c0 13.579 5.391 26.602 14.991 36.204 9.605 9.602 22.625 14.996 36.209 14.996 13.578 0 26.598-5.394 36.198-14.996 9.605-9.602 15.002-22.625 15.002-36.204v-304.435c1.019-52.634-18.785-103.537-55.107-141.64-36.321-38.108-86.221-60.329-138.839-61.829l-578.358-0.102z" />
<glyph unicode="&#xe92a;" glyph-name="043" d="M483.849 262.144l-180.224 178.688 71.68 72.706 108.544-107.010 444.417 439.81 72.192-72.704-516.609-511.49zM967.68-49.664h-967.68v958.464h675.84v-102.4h-573.44v-753.664h762.88v376.832h102.4v-479.232z" />
<glyph unicode="&#xe92b;" glyph-name="044" d="M803.64-55.741h-4.659c-46.049 1.132-90.496 17.116-126.72 45.568l-384.002 300.083c-24.793 19.226-44.852 43.878-58.639 72.059-13.787 28.186-20.935 59.151-20.895 90.524 0.040 31.375 7.266 62.323 21.124 90.471s33.98 52.748 58.821 71.911l383.591 299.571c30.868 24.38 67.927 39.675 107.003 44.168 39.081 4.493 78.643-1.994 114.243-18.733s65.828-43.067 87.296-76.030c21.468-32.963 33.326-71.256 34.243-110.583v-600.883c-0.927-55.501-23.613-108.416-63.171-147.354-39.562-38.938-92.831-60.78-148.337-60.826zM803.538 857.564c-24.612 0.046-48.512-8.258-67.789-23.553l-384.002-300.134c-7.067-5.386-13.385-11.687-18.79-18.739-8.284-10.684-14.377-22.9-17.93-35.944s-4.495-26.661-2.774-40.073c1.722-13.409 6.074-26.348 12.808-38.067 6.734-11.725 15.715-22.006 26.43-30.249l384.258-300.339c18.724-14.74 41.713-23.020 65.536-23.603 14.377-0.584 28.718 1.807 42.127 7.020 13.409 5.217 25.595 13.148 35.799 23.291 10.388 9.887 18.714 21.74 24.489 34.872s8.883 27.279 9.149 41.62v598.476c-0.973 28.321-12.913 55.156-33.3 74.836s-47.626 30.666-75.96 30.636zM51.2-55.229c-13.579 0-26.602 5.396-36.204 14.996s-14.996 22.625-14.996 36.204v912.742c0 13.579 5.394 26.602 14.996 36.204s22.625 14.996 36.204 14.996c13.579 0 26.602-5.394 36.204-14.996s14.996-22.625 14.996-36.204v-912.742c0-13.578-5.394-26.604-14.996-36.204s-22.625-14.996-36.204-14.996z" />
<glyph unicode="&#xe92c;" glyph-name="045" d="M211.917-56.033c-55.395-0.097-108.617 21.535-148.239 60.247s-62.485 91.423-63.678 146.806v600.83c0.617 39.493 12.284 78.023 33.677 111.225s51.658 59.749 87.366 76.633c35.707 16.884 75.429 23.429 114.665 18.895s76.418-19.968 107.333-44.551l383.999-299.673c42.947-33.313 70.948-82.286 77.865-136.197s-7.803-108.368-40.95-151.448c-10.726-13.993-23.24-26.527-37.222-37.268l-383.692-299.981c-37.2-29.537-83.316-45.583-130.815-45.517zM211.508 857.526c-28.505-0.058-55.861-11.244-76.24-31.174s-32.174-47.030-32.867-75.527v-598.525c0.65-20.224 6.903-39.869 18.061-56.75 11.158-16.876 26.783-30.326 45.134-38.845s38.708-11.776 58.802-9.405c20.094 2.365 39.135 10.271 55.002 22.825l384.256 300.39c12.498 9.595 22.625 21.934 29.604 36.065s10.624 29.67 10.644 45.431c0.026 15.759-3.569 31.312-10.501 45.464s-17.024 26.522-29.491 36.16l-384.307 300.084c-18.657 14.716-41.577 22.996-65.331 23.603h-2.559zM963.948-55.578c-13.578 0-26.598 5.391-36.198 14.996-9.605 9.6-15.002 22.62-15.002 36.204v912.74c0 13.579 5.396 26.602 15.002 36.204 9.6 9.602 22.62 14.996 36.198 14.996 13.583 0 26.604-5.394 36.209-14.996 9.6-9.602 14.991-22.625 14.991-36.204v-912.74c0-13.583-5.391-26.604-14.991-36.204-9.605-9.605-22.625-14.996-36.209-14.996z" />
<glyph unicode="&#xe92d;" glyph-name="046" d="M308.122-56.653h-171.265c-32.49-3.692-65.123 5.622-90.767 25.912s-42.214 49.905-46.091 82.376v799.233c3.864 32.479 20.43 62.107 46.075 82.409s58.284 29.624 90.783 25.93h171.265c32.49 3.694 65.123-5.622 90.767-25.913s42.214-49.906 46.091-82.376v-799.233c-3.876-32.471-20.447-62.085-46.091-82.376s-58.276-29.604-90.767-25.912zM102.4 55.578c10.079-6.999 22.204-10.44 34.458-9.779h171.265c12.252-0.65 24.373 2.79 34.458 9.779v791.349c-10.064 7.035-22.196 10.496-34.458 9.829h-171.265c-12.273 0.696-24.419-2.787-34.458-9.881v-791.297zM879.252-56.653h-171.52c-32.492-3.692-65.121 5.622-90.767 25.912-25.641 20.291-42.214 49.91-46.090 82.376v799.234c3.866 32.479 20.429 62.107 46.075 82.408s58.286 29.624 90.783 25.93h171.52c32.486 3.693 65.111-5.624 90.747-25.916s42.194-49.907 46.060-82.373v-799.233c-3.866-32.466-20.424-62.080-46.060-82.371s-58.26-29.609-90.747-25.917zM673.531 55.578c10.081-6.999 22.205-10.44 34.458-9.779h171.264c12.237-0.645 24.34 2.796 34.406 9.779v791.349c-10.040 7.050-22.154 10.529-34.406 9.882h-171.52c-12.262 0.678-24.397-2.784-34.458-9.831l0.256-791.399z" />
<glyph unicode="&#xe92e;" glyph-name="047" d="M302.847-55.895c-52.181-0.102-102.338 20.183-139.781 56.525s-59.211 85.873-60.666 138.035v625.509c0.739 35.501 10.917 70.164 29.488 100.429s44.863 55.041 76.178 71.78c31.315 16.739 66.522 24.839 102.003 23.467s69.961-12.166 99.891-31.273l500.786-311.962c43.535-26.576 74.772-69.32 86.866-118.874 12.088-49.554 4.050-101.883-22.354-145.521-16.154-26.588-38.451-48.906-65.024-65.075l-500.531-311.706c-31.867-20.495-68.967-31.375-106.856-31.334zM302.284 857.614c-25.353-0.109-49.674-10.064-67.825-27.766s-28.712-41.764-29.456-67.107v-622.745c0.759-17.142 6.022-33.777 15.253-48.241 9.231-14.459 22.107-26.235 37.335-34.14s32.267-11.658 49.406-10.885c17.139 0.773 33.774 6.047 48.228 15.288l501.761 312.32c12.662 7.593 23.306 18.13 31.027 30.72 12.39 20.506 16.138 45.085 10.429 68.351-5.714 23.266-20.419 43.318-40.893 55.756l-502.324 312.627c-14.937 9.558-32.193 14.868-49.919 15.36h-2.819z" />
<glyph unicode="&#xe92f;" glyph-name="048" d="M507.853-55.808c-100.452 0.010-198.645 29.809-282.163 85.622-83.517 55.818-148.61 135.142-187.044 227.953-38.434 92.805-48.485 194.928-28.881 293.448s67.982 189.016 139.016 260.042c71.033 71.026 161.534 119.394 260.056 138.987s200.642 9.533 293.447-28.911c92.805-38.444 172.124-103.543 227.932-187.066s85.591-181.72 85.591-282.171c-0.148-134.666-53.714-263.777-148.941-358.994-95.232-95.222-224.348-148.777-359.014-148.91zM507.853 857.599c-80.199-0.010-158.594-23.8-225.272-68.364s-118.644-107.898-149.328-181.996c-30.684-74.097-38.705-155.629-23.053-234.284 15.652-78.659 54.275-150.907 110.987-207.611 56.713-56.709 128.967-95.324 207.625-110.966s160.192-7.608 234.284 23.086c74.092 30.689 137.421 82.668 181.975 149.35s68.337 145.080 68.337 225.28c-0.123 107.517-42.89 210.596-118.922 286.618s-179.113 118.778-286.632 118.886zM455.523 259.226c-20.073-0.005-39.841 4.925-57.563 14.351-17.721 9.431-32.854 23.066-44.069 39.716-15.958 23.562-23.201 51.953-20.481 80.282l-0.257 121.805c-2.046 31.671 8.387 62.886 29.066 86.962s49.961 39.1 81.578 41.857c28.307 2.661 56.663-4.577 80.229-20.479l1.894-1.434 112.64-83.559c11.428-8.458 21.069-19.083 28.385-31.269s12.165-25.694 14.259-39.753c2.099-14.058 1.408-28.392-2.038-42.185-3.441-13.788-9.569-26.767-18.028-38.19-6.344-8.54-13.901-16.113-22.426-22.477l-112.64-83.558c-20.684-14.346-45.227-22.093-70.399-22.221zM455.676 542.208c-0.63 0.053-1.264 0.053-1.894 0-5.308-0.582-10.18-3.215-13.575-7.337s-5.049-9.407-4.603-14.73v-131.584c-1.155-6.195-0.027-12.595 3.175-18.022 1.468-2.222 3.368-4.127 5.584-5.606 2.216-1.475 4.703-2.493 7.319-2.995 5.324-0.968 10.818 0.128 15.359 3.072l110.746 81.92c1.239 1.255 1.93 2.948 1.93 4.711s-0.691 3.455-1.93 4.71l-111.411 82.687c-3.251 1.996-6.988 3.059-10.803 3.073z" />
<glyph unicode="&#xe930;" glyph-name="049" d="M507.904-55.808c-100.454 0-198.652 29.788-282.176 85.596s-148.624 135.132-187.066 227.942c-38.442 92.805-48.5 194.929-28.903 293.452s67.971 189.024 139.003 260.056c71.031 71.032 161.531 119.405 260.055 139.002s200.647 9.539 293.452-28.903c92.81-38.442 172.134-103.541 227.942-187.066s85.596-181.723 85.596-282.177c-0.148-134.661-53.709-263.761-148.925-358.978s-224.317-148.777-358.979-148.925zM507.904 857.599c-80.201 0-158.601-23.782-225.286-68.339s-118.66-107.889-149.351-181.985c-30.692-74.096-38.722-155.629-23.076-234.288s54.267-150.917 110.978-207.626c56.711-56.709 128.965-95.329 207.625-110.976s160.195-7.619 234.292 23.076c74.092 30.689 137.426 82.662 181.98 149.35 44.559 66.683 68.342 145.085 68.342 225.285-0.123 107.509-42.885 210.579-118.902 286.6-76.022 76.021-179.092 118.782-286.602 118.904zM416.612 263.726c-13.579 0-26.602 5.396-36.204 14.996-9.602 9.605-14.996 22.625-14.996 36.204v274.024c0 13.579 5.394 26.602 14.996 36.204s22.625 14.996 36.204 14.996c13.579 0 26.602-5.394 36.204-14.996s14.996-22.625 14.996-36.204v-274.024c0-13.578-5.394-26.598-14.996-36.204-9.602-9.6-22.625-14.996-36.204-14.996zM599.25 263.726c-13.578 0-26.604 5.396-36.204 14.996-9.6 9.605-14.996 22.625-14.996 36.204v274.024c0 13.579 5.396 26.602 14.996 36.204s22.625 14.996 36.204 14.996c13.578 0 26.604-5.394 36.204-14.996s14.996-22.625 14.996-36.204v-274.024c0-13.578-5.396-26.598-14.996-36.204-9.6-9.6-22.625-14.996-36.204-14.996z" />
<glyph unicode="&#xe931;" glyph-name="050" d="M754.422 501.486c30.669-20.237 30.669-65.236 0-85.47l-393.436-259.599c-34.041-22.461-79.398 1.951-79.398 42.737v519.197c0 40.783 45.357 65.196 79.398 42.735l393.436-259.599z" />
<glyph unicode="&#xe932;" glyph-name="051" d="M349.862 746.669c28.277 0 51.2-22.923 51.2-51.2v-512c0-28.277-22.923-51.2-51.2-51.2s-51.2 22.923-51.2 51.2v512c0 28.277 22.923 51.2 51.2 51.2zM691.2 746.669c28.277 0 51.2-22.923 51.2-51.2v-512c0-28.277-22.923-51.2-51.2-51.2s-51.2 22.923-51.2 51.2v512c0 28.277 22.923 51.2 51.2 51.2z" />
<glyph unicode="&#xe933;" glyph-name="052" d="M891.525 486.13l-713.726 412.161c-29.696 17.408-67.074-4.096-67.074-38.4v-823.81c0-26.112 21.505-44.544 44.545-44.544 7.68 0 14.848 2.048 22.016 6.144l713.727 412.16c29.696 17.408 29.696 59.906 0 77.314l0.512-1.025z" />
<glyph unicode="&#xe934;" glyph-name="053" d="M307.2 908.8c28.277 0 51.2-22.923 51.2-51.2v-819.2c0-28.277-22.923-51.2-51.2-51.2s-51.2 22.923-51.2 51.2v819.2c0 28.277 22.923 51.2 51.2 51.2zM716.8 908.8c28.277 0 51.2-22.923 51.2-51.2v-819.2c0-28.277-22.923-51.2-51.2-51.2s-51.2 22.923-51.2 51.2v819.2c0 28.277 22.923 51.2 51.2 51.2z" />
<glyph unicode="&#xe935;" glyph-name="054" d="M964.454 755.2h-913.254c-13.579 0-26.602 5.393-36.204 14.995s-14.996 22.625-14.996 36.205c0 13.579 5.394 26.601 14.996 36.203s22.625 14.997 36.204 14.997h913.408c13.578 0 26.604-5.395 36.204-14.997s14.996-22.624 14.996-36.203c0-13.579-5.396-26.603-14.996-36.205s-22.625-14.995-36.204-14.995zM964.454 70.139h-913.254c-13.579 0-26.602 5.391-36.204 14.996-9.602 9.6-14.996 22.625-14.996 36.204s5.394 26.598 14.996 36.204c9.602 9.6 22.625 14.996 36.204 14.996h913.408c13.578 0 26.604-5.396 36.204-14.996 9.6-9.605 14.996-22.625 14.996-36.204s-5.396-26.604-14.996-36.204c-9.6-9.605-22.625-14.996-36.204-14.996zM964.454 412.718h-913.254c-13.579 0-26.602 5.396-36.204 14.996-9.602 9.605-14.996 22.625-14.996 36.204s5.394 26.603 14.996 36.205c9.602 9.602 22.625 14.995 36.204 14.995h913.408c13.578 0 26.604-5.393 36.204-14.995s14.996-22.626 14.996-36.205c0-13.579-5.396-26.599-14.996-36.204-9.6-9.6-22.625-14.996-36.204-14.996z" />
<glyph unicode="&#xe936;" glyph-name="055" d="M964.454 755.2h-913.254c-13.579 0-26.602 5.393-36.204 14.995s-14.996 22.625-14.996 36.205c0 13.579 5.394 26.601 14.996 36.203s22.625 14.997 36.204 14.997h913.408c13.578 0 26.604-5.395 36.204-14.997s14.996-22.624 14.996-36.203c0-13.579-5.396-26.603-14.996-36.205s-22.625-14.995-36.204-14.995zM964.454 412.718h-913.254c-13.579 0-26.602 5.396-36.204 14.996-9.602 9.605-14.996 22.625-14.996 36.204s5.394 26.603 14.996 36.205c9.602 9.602 22.625 14.995 36.204 14.995h913.408c13.578 0 26.604-5.393 36.204-14.995s14.996-22.626 14.996-36.205c0-13.579-5.396-26.599-14.996-36.204-9.6-9.6-22.625-14.996-36.204-14.996zM621.926 70.139h-570.726c-13.579 0-26.602 5.391-36.204 14.996-9.602 9.6-14.996 22.625-14.996 36.204s5.394 26.598 14.996 36.204c9.602 9.6 22.625 14.996 36.204 14.996h570.88c13.578 0 26.604-5.396 36.204-14.996 9.6-9.605 14.996-22.625 14.996-36.204s-5.396-26.604-14.996-36.204c-9.6-9.605-22.625-14.996-36.204-14.996z" />
<glyph unicode="&#xe937;" glyph-name="056" d="M964.454 755.2h-913.254c-13.579 0-26.602 5.393-36.204 14.995s-14.996 22.625-14.996 36.205c0 13.579 5.394 26.601 14.996 36.203s22.625 14.997 36.204 14.997h913.408c13.578 0 26.604-5.395 36.204-14.997s14.996-22.624 14.996-36.203c0-13.579-5.396-26.603-14.996-36.205s-22.625-14.995-36.204-14.995zM621.926 412.718h-570.726c-13.579 0-26.602 5.396-36.204 14.996-9.602 9.605-14.996 22.625-14.996 36.204s5.394 26.603 14.996 36.205c9.602 9.602 22.625 14.995 36.204 14.995h570.88c13.578 0 26.604-5.393 36.204-14.995s14.996-22.626 14.996-36.205c0-13.579-5.396-26.599-14.996-36.204-9.6-9.6-22.625-14.996-36.204-14.996zM850.278 70.139h-799.078c-13.579 0-26.602 5.391-36.204 14.996-9.602 9.6-14.996 22.625-14.996 36.204s5.394 26.598 14.996 36.204c9.602 9.6 22.625 14.996 36.204 14.996h799.232c13.578 0 26.604-5.396 36.204-14.996 9.6-9.605 14.996-22.625 14.996-36.204s-5.396-26.604-14.996-36.204c-9.6-9.605-22.625-14.996-36.204-14.996z" />
<glyph unicode="&#xe938;" glyph-name="057" d="M964.454 755.2h-913.254c-13.579 0-26.602 5.393-36.204 14.995s-14.996 22.625-14.996 36.205c0 13.579 5.394 26.601 14.996 36.203s22.625 14.997 36.204 14.997h913.408c13.578 0 26.604-5.395 36.204-14.997s14.996-22.624 14.996-36.203c0-13.579-5.396-26.603-14.996-36.205s-22.625-14.995-36.204-14.995zM964.454 412.718h-913.254c-13.579 0-26.602 5.396-36.204 14.996-9.602 9.605-14.996 22.625-14.996 36.204s5.394 26.603 14.996 36.205c9.602 9.602 22.625 14.995 36.204 14.995h913.408c13.578 0 26.604-5.393 36.204-14.995s14.996-22.626 14.996-36.205c0-13.579-5.396-26.599-14.996-36.204-9.6-9.6-22.625-14.996-36.204-14.996zM964.454 70.139h-685.054c-13.579 0-26.602 5.391-36.204 14.996-9.602 9.6-14.996 22.625-14.996 36.204s5.394 26.598 14.996 36.204c9.602 9.6 22.625 14.996 36.204 14.996h685.054c13.583 0 26.604-5.396 36.204-14.996 9.605-9.605 14.996-22.625 14.996-36.204s-5.391-26.604-14.996-36.204c-9.6-9.605-22.62-14.996-36.204-14.996z" />
<glyph unicode="&#xe939;" glyph-name="058" d="M964.454 412.718h-913.254c-13.579 0-26.602 5.396-36.204 14.996-9.602 9.605-14.996 22.625-14.996 36.204s5.394 26.603 14.996 36.205c9.602 9.602 22.625 14.995 36.204 14.995h913.408c13.578 0 26.604-5.393 36.204-14.995 9.605-9.602 14.996-22.626 14.996-36.205s-5.391-26.599-14.996-36.204c-9.6-9.6-22.625-14.996-36.204-14.996zM736.102 755.2h-456.702c-13.579 0-26.602 5.393-36.204 14.995s-14.996 22.625-14.996 36.205c0 13.579 5.394 26.601 14.996 36.203s22.625 14.997 36.204 14.997h456.702c13.578 0 26.604-5.395 36.204-14.997 9.605-9.602 14.996-22.624 14.996-36.203s-5.391-26.603-14.996-36.205c-9.6-9.602-22.625-14.995-36.204-14.995zM736.102 70.139h-456.702c-13.579 0-26.602 5.391-36.204 14.996-9.602 9.6-14.996 22.625-14.996 36.204s5.394 26.598 14.996 36.204c9.602 9.6 22.625 14.996 36.204 14.996h456.702c13.578 0 26.604-5.396 36.204-14.996 9.605-9.605 14.996-22.625 14.996-36.204s-5.391-26.604-14.996-36.204c-9.6-9.605-22.625-14.996-36.204-14.996z" />
<glyph unicode="&#xe93a;" glyph-name="059" d="M153.4 345.59c56.554 0 102.4 45.844 102.4 102.4 0 56.552-45.846 102.398-102.4 102.398s-102.4-45.846-102.4-102.398c0-56.556 45.846-102.4 102.4-102.4zM511.8 345.59c56.556 0 102.401 45.844 102.401 102.4 0 56.552-45.844 102.398-102.401 102.398-56.554 0-102.4-45.846-102.4-102.398 0-56.556 45.846-102.4 102.4-102.4zM870.2 345.59c56.556 0 102.4 45.844 102.4 102.4 0 56.552-45.844 102.398-102.4 102.398s-102.4-45.846-102.4-102.398c0-56.556 45.844-102.4 102.4-102.4z" />
<glyph unicode="&#xe93b;" glyph-name="060" d="M409.588 806.606c0-56.554 45.846-102.4 102.4-102.4 56.552 0 102.402 45.846 102.402 102.4s-45.85 102.4-102.402 102.4c-56.554 0-102.4-45.846-102.4-102.4zM409.588 448.206c0-56.552 45.846-102.402 102.4-102.402 56.552 0 102.402 45.85 102.402 102.402 0 56.554-45.85 102.4-102.402 102.4-56.554 0-102.4-45.846-102.4-102.4zM409.588 89.805c0-56.55 45.846-102.4 102.4-102.4 56.552 0 102.402 45.85 102.402 102.4 0 56.556-45.85 102.4-102.402 102.4-56.554 0-102.4-45.844-102.4-102.4z" />
<glyph unicode="&#xe93c;" glyph-name="061" d="M332.8 704c20.253 0 40.051 6.006 56.89 17.257s29.964 27.245 37.715 45.956c7.75 18.711 9.778 39.301 5.827 59.164s-13.704 38.11-28.025 52.43c-14.321 14.321-32.567 24.074-52.43 28.025s-40.453 1.923-59.164-5.827c-18.711-7.751-34.704-20.875-45.956-37.715s-17.257-36.638-17.257-56.89c0-27.158 10.788-53.204 29.992-72.408s45.25-29.992 72.408-29.992zM691.2 704c20.255 0 40.049 6.006 56.888 17.257s29.967 27.245 37.719 45.956c7.747 18.711 9.774 39.301 5.827 59.164-3.953 19.864-13.706 38.11-28.027 52.43s-32.568 24.074-52.429 28.025c-19.866 3.951-40.453 1.923-59.167-5.827-18.708-7.751-34.703-20.875-45.952-37.715-11.254-16.84-17.26-36.638-17.26-56.89 0-27.158 10.788-53.204 29.993-72.408s45.251-29.992 72.407-29.992zM332.8 345.6c20.253 0 40.051 6.006 56.89 17.26 16.84 11.249 29.964 27.244 37.715 45.952 7.75 18.714 9.778 39.302 5.827 59.166s-13.704 38.11-28.025 52.43c-14.321 14.321-32.567 24.074-52.43 28.025s-40.453 1.923-59.164-5.827c-18.711-7.751-34.704-20.875-45.956-37.715s-17.257-36.638-17.257-56.89c0-27.156 10.788-53.202 29.992-72.407s45.25-29.993 72.408-29.993zM691.2 345.6c20.255 0 40.049 6.006 56.888 17.26 16.84 11.249 29.967 27.244 37.719 45.952 7.747 18.714 9.774 39.302 5.827 59.166-3.953 19.864-13.706 38.11-28.027 52.43s-32.568 24.074-52.429 28.025c-19.866 3.951-40.453 1.923-59.167-5.827-18.708-7.751-34.703-20.875-45.952-37.715-11.254-16.84-17.26-36.638-17.26-56.89 0-27.156 10.788-53.202 29.993-72.407s45.251-29.993 72.407-29.993zM332.8-12.8c20.253 0 40.051 6.006 56.89 17.26 16.84 11.249 29.964 27.244 37.715 45.952 7.75 18.714 9.778 39.301 5.827 59.167-3.951 19.86-13.704 38.108-28.025 52.429s-32.567 24.074-52.43 28.027c-19.864 3.948-40.453 1.92-59.164-5.827-18.711-7.752-34.704-20.879-45.956-37.719s-17.257-36.634-17.257-56.888c0-27.156 10.788-53.202 29.992-72.407s45.25-29.993 72.408-29.993zM691.2-12.8c20.255 0 40.049 6.006 56.888 17.26 16.84 11.249 29.967 27.244 37.719 45.952 7.747 18.714 9.774 39.301 5.827 59.167-3.953 19.86-13.706 38.108-28.027 52.429s-32.568 24.074-52.429 28.027c-19.866 3.948-40.453 1.92-59.167-5.827-18.708-7.752-34.703-20.879-45.952-37.719-11.254-16.84-17.26-36.634-17.26-56.888 0-27.156 10.788-53.202 29.993-72.407s45.251-29.993 72.407-29.993z" />
<glyph unicode="&#xe93d;" glyph-name="062" d="M588.8 448.012c0 15.19-4.506 30.039-12.943 42.668s-20.434 22.473-34.468 28.286c-14.034 5.813-29.474 7.334-44.372 4.37s-28.582-10.278-39.323-21.019c-10.741-10.74-18.055-24.425-21.019-39.323s-1.442-30.34 4.37-44.374c5.813-14.034 15.656-26.025 28.286-34.468 12.63-8.438 27.479-12.943 42.668-12.943 20.367 0 39.905 8.095 54.308 22.497s22.492 33.935 22.492 54.305zM290.125 448.006c0 15.19-4.504 30.038-12.943 42.668s-20.433 22.473-34.467 28.286c-14.033 5.813-29.475 7.334-44.373 4.37s-28.582-10.278-39.323-21.019c-10.74-10.741-18.055-24.425-21.018-39.323s-1.443-30.339 4.37-44.373c5.813-14.034 15.656-26.030 28.286-34.468s27.478-12.943 42.668-12.943c20.369 0 39.903 8.095 54.306 22.497s22.494 33.935 22.494 54.304zM887.45 448.012c0 15.19-4.506 30.039-12.943 42.668s-20.434 22.473-34.468 28.286c-14.034 5.813-29.476 7.334-44.37 4.37-14.899-2.963-28.585-10.278-39.327-21.019-10.737-10.74-18.053-24.425-21.018-39.323-2.959-14.898-1.439-30.34 4.372-44.374s15.657-26.025 28.288-34.468c12.626-8.438 27.474-12.943 42.665-12.943 20.367 0 39.905 8.095 54.308 22.497s22.492 33.935 22.492 54.305z" />
<glyph unicode="&#xe93e;" glyph-name="063" d="M512 371.195c15.191 0 30.039 4.506 42.67 12.943 12.626 8.438 22.472 20.434 28.283 34.468 5.816 14.029 7.337 29.473 4.372 44.37s-10.281 28.582-21.018 39.323c-10.742 10.741-24.428 18.055-39.327 21.019-14.894 2.963-30.338 1.442-44.371-4.37s-26.028-15.656-34.466-28.286c-8.439-12.63-12.943-27.478-12.943-42.666 0-20.367 8.092-39.905 22.494-54.308s33.937-22.492 54.306-22.492zM512 669.862c15.191 0 30.039 4.505 42.67 12.943 12.626 8.439 22.472 20.433 28.283 34.467 5.816 14.033 7.337 29.475 4.372 44.373s-10.281 28.582-21.018 39.323c-10.742 10.741-24.428 18.055-39.327 21.019-14.894 2.963-30.338 1.442-44.371-4.37s-26.028-15.656-34.466-28.286c-8.439-12.63-12.943-27.479-12.943-42.668 0-20.368 8.092-39.903 22.494-54.306s33.937-22.494 54.306-22.494zM512 72.525c15.191 0 30.039 4.506 42.67 12.943 12.626 8.438 22.472 20.434 28.283 34.468 5.816 14.034 7.337 29.476 4.372 44.37-2.964 14.899-10.281 28.585-21.018 39.327-10.742 10.737-24.428 18.053-39.327 21.018-14.894 2.964-30.338 1.444-44.371-4.372-14.033-5.811-26.028-15.657-34.466-28.283-8.439-12.631-12.943-27.479-12.943-42.67 0-20.367 8.092-39.905 22.494-54.308s33.937-22.492 54.306-22.492z" />
<glyph unicode="&#xe93f;" glyph-name="064" d="M384 627.2c15.19 0 30.038 4.504 42.668 12.943s22.474 20.433 28.286 34.466c5.813 14.033 7.334 29.475 4.37 44.374s-10.278 28.582-21.019 39.323c-10.741 10.741-24.425 18.055-39.323 21.019s-30.34 1.442-44.373-4.37c-14.033-5.813-26.028-15.656-34.466-28.286s-12.943-27.478-12.943-42.668c0-20.369 8.092-39.903 22.494-54.306s33.937-22.494 54.306-22.494zM640 627.2c15.191 0 30.039 4.504 42.67 12.943 12.626 8.439 22.472 20.433 28.283 34.466 5.816 14.033 7.337 29.475 4.372 44.374s-10.281 28.582-21.018 39.323c-10.742 10.741-24.428 18.055-39.327 21.019-14.894 2.963-30.336 1.442-44.37-4.37s-26.030-15.656-34.468-28.286c-8.438-12.63-12.943-27.478-12.943-42.668 0-20.369 8.090-39.903 22.492-54.306s33.94-22.494 54.308-22.494zM384 371.2c15.19 0 30.038 4.506 42.668 12.943s22.474 20.434 28.286 34.468c5.813 14.034 7.334 29.474 4.37 44.371s-10.278 28.582-21.019 39.323c-10.741 10.741-24.425 18.055-39.323 21.019s-30.34 1.442-44.373-4.37c-14.033-5.813-26.028-15.656-34.466-28.286s-12.943-27.479-12.943-42.668c0-20.367 8.092-39.905 22.494-54.308s33.937-22.492 54.306-22.492zM640 371.2c15.191 0 30.039 4.506 42.67 12.943 12.626 8.438 22.472 20.434 28.283 34.468 5.816 14.034 7.337 29.474 4.372 44.371s-10.281 28.582-21.018 39.323c-10.742 10.741-24.428 18.055-39.327 21.019-14.894 2.963-30.336 1.442-44.37-4.37s-26.030-15.656-34.468-28.286c-8.438-12.63-12.943-27.479-12.943-42.668 0-20.367 8.090-39.905 22.492-54.308s33.94-22.492 54.308-22.492zM384 115.2c15.19 0 30.038 4.506 42.668 12.943s22.474 20.434 28.286 34.468c5.813 14.034 7.334 29.476 4.37 44.37-2.963 14.899-10.278 28.585-21.019 39.327-10.741 10.737-24.425 18.053-39.323 21.018s-30.34 1.444-44.373-4.372c-14.033-5.811-26.028-15.657-34.466-28.283-8.439-12.631-12.943-27.479-12.943-42.67 0-20.367 8.092-39.905 22.494-54.308s33.937-22.492 54.306-22.492zM640 115.2c15.191 0 30.039 4.506 42.67 12.943 12.626 8.438 22.472 20.434 28.283 34.468 5.816 14.034 7.337 29.476 4.372 44.37-2.964 14.899-10.281 28.585-21.018 39.327-10.742 10.737-24.428 18.053-39.327 21.018-14.894 2.964-30.336 1.444-44.37-4.372-14.034-5.811-26.030-15.657-34.468-28.283-8.438-12.631-12.943-27.479-12.943-42.67 0-20.367 8.090-39.905 22.492-54.308s33.94-22.492 54.308-22.492z" />
<glyph unicode="&#xe940;" glyph-name="065" d="M315.649 502.374h-173.414c-37.71 0.040-73.865 15.039-100.53 41.704s-41.664 62.819-41.705 100.529v173.107c0.027 37.719 15.019 73.886 41.686 100.563s62.829 41.682 100.549 41.723h173.157c37.702-0.054 73.843-15.058 100.497-41.722s41.646-62.811 41.686-100.512v-173.107c-0.040-37.701-15.032-73.848-41.686-100.512s-62.795-41.668-100.497-41.722zM142.235 857.6c-10.556-0.027-20.674-4.233-28.138-11.697s-11.67-17.581-11.697-28.137v-173.107c0.013-10.56 4.215-20.684 11.683-28.151s17.591-11.668 28.152-11.682h173.157c10.556 0.014 20.674 4.216 28.133 11.685s11.65 17.593 11.65 28.148v173.107c-0.013 10.551-4.208 20.668-11.664 28.133s-17.567 11.673-28.119 11.7h-173.157zM863.345 502.374h-152.115c-40.499 0.013-79.334 16.1-107.981 44.727s-44.759 67.453-44.8 107.952v152.217c0.031 40.507 16.133 79.346 44.785 107.984 28.646 28.638 67.492 44.732 107.996 44.745h152.218c40.458-0.054 79.242-16.154 107.848-44.766 28.6-28.613 44.687-67.403 44.728-107.861v-152.269c-0.041-40.48-16.138-79.291-44.764-107.915-28.621-28.624-67.436-44.723-107.914-44.764zM711.229 857.6c-6.61 0.007-13.153-1.289-19.261-3.812-6.113-2.523-11.663-6.224-16.343-10.893-4.675-4.669-8.392-10.213-10.926-16.317s-3.84-12.647-3.85-19.256v-152.218c0.010-6.609 1.316-13.153 3.85-19.256s6.252-11.649 10.926-16.317c4.68-4.668 10.23-8.37 16.343-10.893 6.108-2.523 12.652-3.818 19.261-3.812h152.115c13.338 0 26.122 5.297 35.553 14.726s14.725 22.218 14.725 35.552v152.269c0 13.312-5.284 26.080-14.689 35.498-9.411 9.418-22.175 14.715-35.487 14.729h-152.218zM863.345-55.757h-152.115c-40.499 0.015-79.334 16.102-107.981 44.728s-44.759 67.451-44.8 107.95v152.218c0.056 40.494 16.174 79.314 44.815 107.94 28.641 28.621 67.471 44.713 107.965 44.739h152.218c40.458-0.051 79.242-16.154 107.848-44.764 28.6-28.616 44.687-67.405 44.728-107.863v-152.269c-0.041-40.479-16.138-79.288-44.764-107.914-28.621-28.626-67.436-44.723-107.914-44.764zM711.229 299.418c-6.61 0.010-13.153-1.285-19.261-3.809-6.113-2.524-11.663-6.226-16.343-10.895-4.675-4.669-8.392-10.214-10.926-16.317s-3.84-12.646-3.85-19.256v-152.218c0.010-6.61 1.316-13.153 3.85-19.256s6.252-11.648 10.926-16.317c4.68-4.669 10.23-8.371 16.343-10.89 6.108-2.524 12.652-3.82 19.261-3.814h152.115c13.338 0 26.122 5.299 35.553 14.725 9.431 9.431 14.725 22.221 14.725 35.553v152.269c0 13.312-5.284 26.081-14.689 35.497-9.411 9.421-22.175 14.72-35.487 14.73h-152.218zM315.649-55.757h-173.414c-37.71 0.041-73.865 15.037-100.53 41.702s-41.664 62.817-41.705 100.531v173.107c0.014 37.729 15.001 73.907 41.669 100.593 26.668 26.691 62.838 41.702 100.566 41.743h173.157c37.702-0.056 73.843-15.058 100.497-41.723s41.646-62.812 41.686-100.511v-173.107c-0.040-37.704-15.032-73.851-41.686-100.511-26.654-26.665-62.795-41.672-100.497-41.723zM142.235 299.52c-10.556-0.031-20.674-4.234-28.138-11.699s-11.67-17.577-11.697-28.134v-173.107c0.013-10.563 4.215-20.685 11.683-28.155 7.468-7.465 17.591-11.668 28.152-11.679h173.157c10.556 0.010 20.674 4.214 28.133 11.684s11.65 17.592 11.65 28.15v173.005c-0.013 10.552-4.208 20.664-11.664 28.134-7.456 7.465-17.567 11.668-28.119 11.699l-173.157 0.102z" />
<glyph unicode="&#xe941;" glyph-name="066" d="M418.097 491.008h-366.923c-28.146 0-51.174 23.040-51.174 51.2v366.592c0 28.16 23.028 51.2 51.174 51.2h366.923c28.146 0 51.174-23.040 51.174-51.2v-367.104c0-28.16-23.029-51.2-51.174-51.2v0.512zM102.349 593.408h264.574v264.192h-264.574v-264.192zM972.319 491.008h-366.92c-28.145 0-51.174 23.040-51.174 51.2v366.592c0 28.16 23.030 51.2 51.174 51.2h366.92c28.145 0 51.174-23.040 51.174-51.2v-367.104c0-28.16-23.030-51.2-51.174-51.2v0.512zM657.085 593.408h264.571v264.192h-264.571v-264.192zM418.097-64h-366.923c-28.146 0-51.174 23.040-51.174 51.2v367.104c0 28.16 23.028 51.2 51.174 51.2h366.923c28.146 0 51.174-23.040 51.174-51.2v-367.104c0-28.16-23.029-51.2-51.174-51.2zM102.349 38.4h264.574v264.704h-264.574v-264.704zM972.319-64h-366.92c-28.145 0-51.174 23.040-51.174 51.2v367.104c0 28.16 23.030 51.2 51.174 51.2h366.92c28.145 0 51.174-23.040 51.174-51.2v-367.104c0-28.16-23.030-51.2-51.174-51.2zM657.085 38.4h264.571v264.704h-264.571v-264.704z" />
<glyph unicode="&#xe942;" glyph-name="067" d="M507.4-49.792c-114.991-0.266-225.673 43.735-309.094 122.88-6.349 5.99-12.442 12.083-18.381 18.381-61.663 64.486-104.204 144.835-122.881 232.090-1.562 6.625-1.786 13.496-0.66 20.214 1.126 6.712 3.581 13.138 7.22 18.893s8.39 10.726 13.975 14.623c5.584 3.896 11.889 6.641 18.546 8.069 6.658 1.434 13.534 1.521 20.225 0.261s13.065-3.84 18.746-7.593c5.682-3.753 10.558-8.602 14.344-14.264 3.785-5.658 6.403-12.017 7.701-18.703 14.846-68.828 48.525-132.178 97.279-182.984 4.813-5.12 9.626-9.933 14.541-14.541 33.26-31.421 72.386-55.977 115.142-72.264 42.757-16.292 88.305-23.992 134.040-22.666 45.732 1.326 90.757 11.658 132.5 30.397 41.738 18.739 79.375 45.522 110.761 78.817 51.2 53.35 85.606 92.718 108.646 121.288h-179.2c-13.583 0-26.604 5.396-36.209 15.002-9.6 9.6-14.991 22.62-14.991 36.198 0 13.583 5.391 26.604 14.991 36.209 9.605 9.6 22.625 14.991 36.209 14.991h273.101c1.516 0.128 3.036 0.128 4.557 0 5.791-0.394 11.469-1.777 16.794-4.091 6.989-3 13.204-7.557 18.176-13.317 4.992-5.755 8.663-12.534 10.752-19.866 1.316-4.731 1.935-9.626 1.843-14.536v-284.672c0-13.583-5.396-26.604-14.996-36.209-9.605-9.6-22.625-14.991-36.204-14.991-13.583 0-26.604 5.391-36.204 14.991-9.605 9.605-14.996 22.625-14.996 36.209v127.022c-25.293-28.979-52.48-58.112-77.926-84.685-40.509-43.095-89.16-77.737-143.135-101.924s-112.21-37.432-171.336-38.979c-4.506 0-8.96 0-13.416 0zM908.964 473.571c-11.709 0.009-23.055 4.028-32.159 11.388s-15.406 17.616-17.864 29.061c-14.848 68.801-48.527 132.12-97.28 182.886-5.12 5.376-9.728 10.241-14.592 14.644-33.265 31.416-72.397 55.969-115.154 72.253s-88.305 23.98-134.041 22.648c-45.734-1.331-90.758-11.665-132.497-30.409s-79.373-45.53-110.752-78.828c-51.2-53.197-85.555-92.571-108.595-121.089h179.2c13.579 0 26.602-5.394 36.204-14.995s14.996-22.626 14.996-36.205c0-13.579-5.394-26.601-14.996-36.204s-22.625-14.996-36.204-14.996h-273.101c-1.587 0-3.021 0-4.557 0-5.771 0.379-11.434 1.748-16.742 4.045-6.988 3.054-13.212 7.619-18.227 13.364-8.329 9.505-12.819 21.771-12.595 34.406v284.672c0 13.579 5.394 26.601 14.996 36.203s22.625 14.997 36.204 14.997c13.579 0 26.602-5.395 36.204-14.997s14.996-22.624 14.996-36.203v-127.13c25.344 28.928 52.48 58.061 77.926 84.582 82.090 86.836 195.296 137.532 314.743 140.95s235.367-40.723 322.29-122.723c6.4-6.093 12.544-12.289 18.534-18.637 61.614-64.443 104.151-144.713 122.88-231.884 1.413-6.576 1.516-13.365 0.307-19.981-1.213-6.617-3.717-12.93-7.368-18.578s-8.381-10.523-13.916-14.344c-5.535-3.821-11.771-6.512-18.345-7.922-3.553-0.752-7.173-1.129-10.803-1.127z" />
<glyph unicode="&#xe943;" glyph-name="068" d="M531.302-54.415h-5.734c-103.4 0.86-203.785 34.934-286.341 97.203-82.556 62.264-142.91 149.417-172.155 248.602-2.086 6.487-2.856 13.322-2.265 20.111s2.532 13.389 5.707 19.42c3.175 6.026 7.522 11.361 12.786 15.688 5.264 4.332 11.339 7.562 17.868 9.513 6.529 1.946 13.382 2.575 20.156 1.838 6.775-0.732 13.335-2.811 19.296-6.108 5.961-3.302 11.203-7.762 15.418-13.112 4.216-5.356 7.321-11.5 9.133-18.068 23.072-78.208 70.671-146.929 135.773-196.029s144.262-75.971 225.801-76.657h4.557c62.228 0.087 123.469 15.539 178.289 44.989s101.514 71.982 135.941 123.817c34.427 51.835 55.521 111.375 61.404 173.322 5.883 61.949-3.625 124.391-27.679 181.782s-61.911 107.954-110.203 147.195c-48.297 39.242-105.533 65.949-166.63 77.749-61.102 11.8-124.168 8.327-183.602-10.109s-113.394-51.266-157.088-95.572c-36.25-38.144-71.68-78.337-105.677-119.758h183.552c13.579 0 26.602-5.393 36.204-14.995s14.996-22.625 14.996-36.205c0-13.579-5.394-26.601-14.996-36.203s-22.625-14.997-36.204-14.997h-288c-5.887-0.395-11.786 0.551-17.254 2.766-12.615 4.429-22.998 13.617-28.928 25.6-3.217 6.373-5.066 13.349-5.427 20.479 0 1.075 0 2.253 0 3.328v284.825c0 13.579 5.394 26.603 14.996 36.205s22.625 14.995 36.204 14.995c13.579 0 26.602-5.393 36.204-14.995s14.996-22.625 14.996-36.205v-139.316c27.955 32.939 56.764 64.991 86.426 96.155 55.488 57.095 124.264 99.544 200.175 123.549s156.587 28.818 234.815 14.008c78.223-14.81 151.557-48.781 213.443-98.873 61.88-50.093 110.382-114.746 141.158-188.172s42.87-153.336 35.2-232.579c-7.665-79.247-34.862-155.356-79.145-221.522-44.288-66.161-104.284-120.31-174.623-157.609-70.344-37.294-148.828-56.571-228.444-56.105z" />
<glyph unicode="&#xe944;" glyph-name="069" d="M51.2 318.008c28.16 0 51.2 23.040 51.2 51.2v332.286c0 17.408 14.336 31.745 31.744 31.745h830.464c6.144 0 12.288 1.535 17.92 3.583 2.048 0.512 3.584 2.049 5.632 2.561 3.584 2.048 6.656 4.096 9.728 6.656 1.536 1.536 3.072 3.072 4.608 4.608 2.56 3.072 4.608 6.144 6.656 9.728 1.024 2.048 2.048 3.584 3.072 6.144 0 0.512 0.512 1.023 1.024 1.535 1.536 5.12 2.56 10.752 2.56 15.872 0 0.512 0 1.025 0 2.049 0 5.632-1.536 10.752-3.072 15.872-1.024 2.048-2.048 4.095-3.072 6.143-1.536 3.584-3.584 6.657-6.144 9.217-1.536 2.048-3.072 3.583-5.12 5.119-1.024 1.024-1.536 2.048-2.56 3.072l-165.888 124.416c-22.528 16.896-54.784 12.288-71.68-10.24s-12.288-54.785 10.24-71.681l43.008-32.255h-676.864c-73.728 0-134.143-60.417-134.143-134.145v-332.286c0-28.16 23.040-51.2 51.2-51.2h-0.513zM964.608 628.281c-28.16 0-51.2-23.040-51.2-51.2v-332.289c0-8.704-3.072-16.384-9.216-22.528s-13.824-9.216-22.528-9.216h-830.464c-6.144 0-12.288-1.536-17.92-3.584-2.048-0.512-3.584-1.536-5.12-2.56-3.584-2.048-7.167-4.096-10.239-6.656-1.536-1.536-3.072-3.072-4.608-4.608-2.56-3.072-4.608-6.144-6.656-10.24-1.024-2.048-2.048-3.584-3.072-5.632 0-0.512-1.025-1.024-1.025-2.048-1.536-5.12-2.559-10.752-2.559-15.872 0 0 0-0.512 0-1.024 0-5.632 1.536-11.264 3.584-16.896 0.512-2.048 1.535-3.584 2.559-5.632 2.048-3.584 4.096-6.656 6.656-9.728 1.536-1.536 3.072-3.584 4.608-4.608 1.024-1.024 1.536-2.048 3.072-3.072l165.889-124.416c9.216-6.656 19.967-10.24 30.719-10.24 15.36 0 30.721 7.168 40.961 20.48 16.896 22.528 12.287 54.784-10.241 71.68l-43.008 32.256h676.864c35.84 0 69.632 13.824 94.72 39.424 25.6 25.6 39.424 58.88 39.424 94.72v332.289c0 28.16-23.040 51.2-51.2 51.2z" />
<glyph unicode="&#xe945;" glyph-name="070" d="M1015.885 581.183c1.229 47.904-16.584 94.341-49.526 129.139-32.947 34.798-78.341 55.119-126.244 56.513h-96.051l-30.72 49.408c-15.283 25.503-36.879 46.636-62.71 61.362-25.825 14.726-55.014 22.547-84.746 22.709h-116.275c-29.518-0.162-58.501-7.897-84.175-22.464s-47.182-35.48-62.462-60.736l-31.025-50.022h-97.794c-47.456-1.566-92.373-21.812-124.975-56.332s-50.249-80.52-49.103-127.988v-397.877c-0.702-23.752 3.285-47.411 11.737-69.622s21.202-42.537 37.519-59.812c16.316-17.28 35.88-31.171 57.572-40.878s45.082-15.037 68.837-15.698h665.907c47.549 1.7 92.503 22.093 125.102 56.75 32.594 34.657 50.196 80.778 48.978 128.338l0.154 397.211zM840.115 101.233h-662.168c-10.317 0.425-20.451 2.877-29.815 7.229s-17.775 10.511-24.75 18.125c-6.976 7.608-12.38 16.527-15.897 26.235s-5.078 20.019-4.597 30.331v401.205c-0.715 20.327 6.567 40.125 20.284 55.144s32.775 24.062 53.084 25.188h124.569c8.715-0.001 17.287 2.222 24.903 6.46s14.026 10.35 18.619 17.757l46.078 74.65c6.215 10.37 14.984 18.973 25.471 24.988s22.342 9.24 34.431 9.367h115.149c12.288-0.111 24.34-3.399 34.98-9.545s19.507-14.94 25.743-25.527l46.080-74.189c4.588-7.4 10.988-13.507 18.596-17.745 7.603-4.237 16.169-6.465 24.873-6.473h122.88c10.322-0.421 20.454-2.876 29.819-7.226 9.37-4.35 17.787-10.509 24.765-18.121s12.385-16.529 15.908-26.237c3.523-9.709 5.094-20.018 4.618-30.335v-399.362c0-0.512 0-1.126 0-1.638 0.701-20.326-6.595-40.115-20.321-55.127-13.727-15.007-32.788-24.038-53.1-25.155zM508.025 632.125c-44.001 0-87.015-13.049-123.6-37.496s-65.098-59.194-81.934-99.847c-16.836-40.653-21.238-85.387-12.65-128.538 8.588-43.156 29.779-82.796 60.897-113.905 31.117-31.114 70.761-52.296 113.919-60.877 43.157-8.576 87.888-4.163 128.536 12.682 40.653 16.845 75.392 45.368 99.83 81.961 24.438 36.588 37.478 79.606 37.468 123.607-0.067 58.975-23.532 115.515-65.239 157.212s-98.253 65.146-157.226 65.2zM508.025 289.649c-23.746 0-46.959 7.040-66.703 20.234s-35.134 31.944-44.222 53.883c-9.087 21.939-11.464 46.080-6.831 69.371 4.633 23.289 16.068 44.682 32.859 61.473s38.185 28.226 61.475 32.859c23.29 4.633 47.431 2.255 69.37-6.832s40.689-24.477 53.883-44.221c13.194-19.744 20.234-42.956 20.234-66.703-0.026-31.836-12.687-62.356-35.195-84.869-22.513-22.513-53.038-35.169-84.871-35.195z" />
<glyph unicode="&#xe946;" glyph-name="071" d="M846.214 844.922h-135.607l-19.017 31.646c-10.796 17.943-26.034 32.803-44.242 43.146-18.213 10.343-38.775 15.82-59.719 15.905h-207.823c-20.94-0.066-41.511-5.525-59.728-15.851s-33.468-25.17-44.281-43.102l-19.017-31.695h-135.509c-32.138-0.052-62.947-12.837-85.677-35.558s-35.529-53.525-35.594-85.663v-634.344c0.039-32.149 12.83-62.966 35.565-85.694 22.736-22.723 53.559-35.504 85.706-35.528h724.943c32.134 0.039 62.942 12.824 85.655 35.552 22.718 22.723 35.494 53.536 35.518 85.67v634.294c-0.024 32.134-12.8 62.945-35.518 85.671-22.713 22.726-53.521 35.513-85.655 35.552zM121.271 747.399h163.157c8.424 0.012 16.7 2.205 24.024 6.366s13.444 10.15 17.765 17.381l33.207 55.393c2.128 3.502 5.12 6.4 8.689 8.415s7.595 3.079 11.694 3.092h207.823c4.106-0.008 8.133-1.082 11.698-3.116s6.544-4.96 8.636-8.489l33.304-55.393c4.335-7.212 10.459-13.18 17.783-17.325 7.319-4.144 15.594-6.322 24.005-6.324h163.157c3.111 0 6.188-0.613 9.060-1.805s5.486-2.939 7.68-5.14c2.194-2.201 3.94-4.814 5.125-7.689s1.79-5.955 1.785-9.065v-440.563h-110.494c20.641 46.036 29.428 96.51 25.566 146.817-3.862 50.302-20.251 98.84-47.675 141.188s-65.009 77.161-109.334 101.263c-44.325 24.103-93.974 36.729-144.428 36.729-50.452 0-100.103-12.627-144.426-36.729s-81.91-58.915-109.334-101.263c-27.424-42.348-43.814-90.886-47.676-141.188-3.861-50.308 4.927-100.781 25.566-146.817h-110.104v440.563c0.013 6.29 2.521 12.318 6.972 16.76s10.485 6.939 16.775 6.939zM345.576 256.317c-4.022 7.651-10.037 14.068-17.408 18.578-31.566 36.62-49.014 83.31-49.201 131.657-0.159 33.022 7.669 65.59 22.816 94.931s37.165 54.586 64.176 73.58c27.011 18.995 58.214 31.176 90.95 35.506 32.734 4.331 66.034 0.682 97.056-10.637 31.017-11.318 58.841-29.97 81.096-54.364s38.283-53.809 46.714-85.735c8.431-31.928 9.021-65.418 1.712-97.62s-22.294-62.157-43.681-87.318c-7.358-4.506-13.371-10.903-17.408-18.53-37.556-35.001-86.952-54.526-138.289-54.662-51.326 0.078-100.719 19.593-138.24 54.613zM846.653 65.658h-725.431c-6.285 0-12.313 2.497-16.757 6.944-4.444 4.442-6.941 10.469-6.941 16.755v96.256h180.419c55.749-52.404 129.41-81.535 205.922-81.432 76.449 0.010 150.021 29.125 205.775 81.432h180.419v-96.256c0-6.276-2.492-12.298-6.924-16.74s-10.45-6.944-16.725-6.958z" />
<glyph unicode="&#xe947;" glyph-name="072" d="M656.603 111.099h-377.512c-1.825 0-3.647-0.098-5.461-0.293-37.909-4.432-76.328-0.727-112.689 10.879-12.954 7.222-23.641 17.91-30.866 30.861-11.328 36.401-15.014 74.752-10.825 112.64 0.195 1.799 0.293 3.608 0.293 5.413v377.615c0 12.932-5.138 25.334-14.282 34.479s-21.547 14.283-34.48 14.283c-12.933 0-25.335-5.138-34.48-14.283s-14.282-21.547-14.282-34.479v-374.977c-5.407-52.287 0.276-105.126 16.677-155.068 0.765-2.365 1.728-4.667 2.877-6.875 17.074-33.621 44.396-60.943 78.019-78.019 2.209-1.131 4.509-2.077 6.875-2.823 37.433-12.42 76.615-18.759 116.054-18.778 13.030 0.010 26.050 0.692 39.009 2.048h374.88c12.937 0 25.337 5.14 34.484 14.282 9.143 9.148 14.277 21.548 14.277 34.48s-5.135 25.337-14.277 34.484c-9.148 9.143-21.548 14.277-34.484 14.277zM553.521 257.634c0 12.932-5.135 25.337-14.282 34.48-9.143 9.143-21.548 14.282-34.48 14.282-33.103 0.024-64.844 13.185-88.256 36.586-23.412 23.406-36.583 55.14-36.622 88.244 0 12.932-5.138 25.335-14.282 34.48s-21.547 14.283-34.48 14.283c-12.933 0-25.335-5.139-34.48-14.283s-14.282-21.548-14.282-34.48c0.078-58.958 23.535-115.478 65.229-157.16 41.693-41.687 98.217-65.131 157.173-65.195 12.932 0 25.337 5.135 34.48 14.282 9.148 9.143 14.282 21.548 14.282 34.48zM987.409 609.987c0 17.506 0 26.429-0.878 34.134-4.155 41.080-22.352 79.471-51.527 108.689s-67.535 47.475-108.607 51.689c-7.509 0.78-16.579 0.927-35.499 0.927h-8.923c-7.041 0.423-13.824 2.794-19.593 6.85s-10.299 9.635-13.078 16.116l-1.755 4.877-46.129-15.652 43.886 22.186c-1.56 4.876-2.633 7.753-3.852 11.068-9.952 24.117-26.575 44.898-47.913 59.908-21.343 15.010-46.519 23.626-72.577 24.841h-235.618c-25.819-1.748-50.614-10.779-71.509-26.046s-37.033-36.145-46.544-60.213l-6.875-20.237c-2.451-6.244-6.521-11.722-11.792-15.871s-11.552-6.816-18.197-7.731h-9.265l-115.907 115.908c-9.196 8.882-21.514 13.797-34.299 13.686s-25.015-5.24-34.056-14.281c-9.041-9.041-14.169-21.27-14.28-34.055s4.804-25.102 13.686-34.299l319.732-319.878c1.708-2.009 3.584-3.87 5.608-5.56l237.618-237.666c2.087-2.623 4.442-5.027 7.022-7.168l0.878-0.731 233.033-233.033c1.024-1.122 1.999-2.097 3.072-3.072l60.855-60.855c9.196-8.884 21.514-13.8 34.299-13.687s25.015 5.242 34.055 14.282c9.040 9.040 14.17 21.27 14.282 34.055 0.107 12.785-4.808 25.103-13.687 34.299l-26.039 26.039c26.014 31.949 40.253 71.875 40.326 113.079l0.049 417.401zM625.498 400.896l-151.163 151.162c20.876 5.166 42.731 4.852 63.45-0.914s39.6-16.785 54.804-31.992c15.209-15.207 26.229-34.085 31.993-54.804 5.769-20.717 6.081-42.577 0.917-63.452zM889.885 609.987v-417.694c-0.024-15.326-4.369-30.33-12.532-43.301l-176.908 176.957c22.45 42.062 30.783 90.229 23.776 137.392-7.012 47.162-28.999 90.821-62.713 124.535s-77.371 55.7-124.533 62.71c-47.163 7.010-95.329-1.326-137.393-23.777l-102.059 102.109c23.934 15.011 42.518 37.195 53.102 63.39 1.024 2.487 1.999 5.315 3.365 9.362l4.291 12.679c2.429 6.271 6.491 11.779 11.763 15.954s11.565 6.866 18.226 7.793h229.621c7.061-0.433 13.863-2.824 19.641-6.906 5.783-4.083 10.308-9.695 13.078-16.207l2.048-5.997 2.438-7.071 3.267-9.362c9.943-24.123 26.561-44.91 47.904-59.921 21.338-15.011 46.524-23.624 72.587-24.828h11.898c13.556 0 20.041 0 25.649-0.439 18.72-1.856 36.22-10.12 49.547-23.394 13.332-13.274 21.665-30.744 23.596-49.455 0.536-5.315 0.39-11.752 0.39-24.381z" />
<glyph unicode="&#xe948;" glyph-name="073" d="M261.405-31.924c-43.076 0.044-85.871 6.939-126.779 20.431-2.393 0.805-4.724 1.78-6.973 2.926-36.329 18.466-65.84 48.011-84.262 84.358-1.114 2.204-2.059 4.481-2.827 6.827-18.144 54.711-24.364 112.674-18.238 169.984v398.484c-6.13 57.313 0.089 115.275 18.238 169.984 0.769 2.344 1.713 4.625 2.827 6.826 18.426 36.363 47.957 65.912 84.31 84.359 2.212 1.125 4.511 2.071 6.875 2.829 54.705 18.168 112.672 24.387 169.985 18.237h398.582c57.295 5.996 115.215-0.219 169.93-18.237 2.345-0.754 4.628-1.684 6.832-2.78 36.406-18.446 65.985-48.012 84.456-84.408 1.092-2.227 2.033-4.524 2.823-6.875 18.061-54.712 24.225-112.647 18.091-169.934v-398.484c6.134-57.285-0.029-115.224-18.091-169.935-0.79-2.35-1.731-4.647-2.823-6.875-18.442-36.415-48.030-65.989-84.456-84.407-2.228-1.107-4.525-2.068-6.875-2.877-54.725-17.92-112.616-24.103-169.886-18.139h-398.582c-14.335-1.512-28.74-2.277-43.155-2.292zM711.963 67.501c42.667-4.618 85.831-0.38 126.786 12.434 15.501 8.704 28.306 21.509 37.005 37.010 12.941 40.931 17.164 84.119 12.39 126.781 0 1.17-0.244 2.341-0.341 3.56-0.102 1.219 0 2.194 0 3.267v36.766l-171.647 171.74c-1.307 1.265-2.531 2.618-3.657 4.048-0.317 4.101-2.17 7.933-5.188 10.728s-6.983 4.347-11.098 4.347c-4.111 0-8.075-1.552-11.093-4.347s-4.871-6.626-5.193-10.728c-1.112-1.44-2.336-2.794-3.657-4.048l-391.215-391.266h420.082c1.073 0 2.199 0 3.321 0l3.56-0.341zM131.747 116.897c7.881-14.199 19.26-26.151 33.060-34.718 10.042 13.385 21.269 25.839 33.548 37.205l406.966 406.871c14.672 17.919 32.948 32.554 53.643 42.958 2.185 1.113 4.447 2.059 6.773 2.829 19.485 6.387 40.497 6.387 59.977 0 2.326-0.771 4.593-1.717 6.783-2.829 20.777-10.377 39.136-25.013 53.877-42.958l100.937-100.939v228.451c0 1.808 0.098 3.615 0.293 5.412 4.959 42.911 0.77 86.386-12.283 127.561-8.592 15.574-21.431 28.39-37.015 36.962-41.16 12.953-84.578 17.172-127.464 12.386-1.814-0.195-3.638-0.294-5.461-0.293h-403.892c-1.824-0.001-3.647 0.097-5.461 0.293-42.901 4.995-86.377 0.771-127.515-12.386-15.512-8.668-28.32-21.461-37.009-36.962-13.051-41.177-17.272-84.643-12.387-127.561 0.194-1.797 0.294-3.604 0.295-5.412v-403.799c0-1.824-0.099-3.647-0.295-5.461-4.885-42.915-0.664-86.382 12.387-127.561zM335.134 475.201c-28.662 0-56.683 8.499-80.515 24.423s-42.406 38.558-53.375 65.039c-10.969 26.481-13.839 55.619-8.247 83.731s19.393 53.935 39.66 74.202c20.267 20.267 46.091 34.069 74.202 39.66s57.251 2.722 83.732-8.247c26.481-10.969 49.115-29.543 65.039-53.375s24.422-51.851 24.422-80.513c-0.064-38.416-15.354-75.24-42.518-102.403s-63.986-42.452-102.402-42.516zM335.134 667.518c-9.374 0-18.539-2.78-26.333-7.988s-13.868-12.61-17.456-21.27c-3.587-8.661-4.528-18.192-2.699-27.386s6.344-17.639 12.973-24.268c6.628-6.629 15.074-11.142 24.268-12.97s18.723-0.891 27.384 2.697c8.661 3.587 16.063 9.662 21.271 17.457s7.988 16.957 7.988 26.332c-0.026 12.563-5.028 24.603-13.911 33.486s-20.923 13.885-33.485 13.911z" />
<glyph unicode="&#xe949;" glyph-name="074" d="M765.040 27.911c-13.029 0.010-26.049 0.678-39.010 1.999h-445.102c-51.996-5.369-104.54 0.078-154.33 15.994-2.327 0.751-4.591 1.682-6.777 2.779-33.405 16.482-60.723 43.13-78.021 76.117-1.202 2.306-2.229 4.706-3.071 7.168-16.408 48.674-22.114 100.323-16.726 151.406v348.208c-5.356 51.004 0.349 102.563 16.726 151.162 0.822 2.455 1.849 4.836 3.071 7.119 17.273 33.030 44.596 59.72 78.021 76.216 2.202 1.098 4.482 2.026 6.824 2.778 49.79 15.918 102.337 21.363 154.333 15.994h445.1c51.98 5.317 104.502-0.143 154.283-16.042 2.345-0.718 4.632-1.631 6.827-2.731 33.426-16.496 60.743-43.185 78.019-76.216 1.18-2.284 2.204-4.647 3.072-7.070 16.433-48.67 22.138-100.322 16.725-151.406v-348.208c5.413-51.102-0.293-102.766-16.725-151.454-0.863-2.438-1.892-4.818-3.072-7.119-17.364-33.056-44.793-59.728-78.316-76.166-2.165-1.073-4.413-1.97-6.729-2.682-37.225-11.942-76.078-18.027-115.176-18.042zM503.281 347.107c-4.218-2.979-8.007-6.519-11.259-10.533-1.141-1.385-2.365-2.706-3.657-3.95l-211.287-205.385h452.317l-211.090 205.385c-1.297 1.243-2.516 2.565-3.657 3.95-3.291 4.013-7.114 7.558-11.366 10.533zM659.861 330.967l194.219-188.952c9.431 6.534 17.32 15.058 23.113 24.966 11.127 34.796 14.75 71.563 10.63 107.861-0.234 1.877-0.351 3.764-0.341 5.656v29.989l-109.178 106.447c-1.263 1.219-2.433 2.521-3.511 3.901-3.35 3.994-7.202 7.534-11.464 10.533-4.218-2.96-8.007-6.485-11.259-10.484-1.156-1.419-2.399-2.77-3.711-4.047l-88.498-85.87zM129.378 166.98c5.817-9.86 13.684-18.359 23.065-24.917l266.14 258.731c13.808 16.165 30.786 29.325 49.884 38.668 2.163 1.058 4.395 1.97 6.682 2.731 18.306 5.803 37.962 5.803 56.272 0 2.331-0.722 4.593-1.638 6.773-2.731 19.090-9.357 36.064-22.518 49.888-38.668l1.853-1.804 88.747 86.162c13.839 16.133 30.808 29.288 49.883 38.668 2.219 1.089 4.515 2.003 6.875 2.731 18.178 5.657 37.649 5.657 55.828 0 2.355-0.746 4.657-1.658 6.88-2.731 19.066-9.417 36.045-22.566 49.932-38.668l39.4-38.424v187.392c-0.010 1.875 0.107 3.747 0.341 5.607 4.125 36.285 0.497 73.033-10.63 107.814-7.266 12.451-17.808 22.67-30.476 29.549-36.542 11.215-75.001 14.801-112.981 10.533-1.751-0.195-3.506-0.293-5.266-0.293h-450.221c-1.759 0-3.516 0.098-5.265 0.293-38.017 4.214-76.496 0.63-113.080-10.533-12.631-6.891-23.148-17.089-30.425-29.501-11.085-34.807-14.693-71.564-10.583-107.862 0.219-1.861 0.318-3.733 0.295-5.607v-353.621c0.024-1.887-0.076-3.779-0.295-5.656-4.103-36.293-0.562-73.045 10.485-107.861zM330.033 445.801c-35.584 0.005-69.733 14.023-95.059 39.019s-39.794 58.96-40.268 94.541c-0.474 35.581 13.081 69.915 37.732 95.577s58.417 40.585 93.988 41.54c26.772 0.749 53.166-6.46 75.839-20.716s40.606-34.918 51.533-59.371c10.927-24.453 14.355-51.597 9.848-77.999s-16.745-50.871-35.164-70.315c-12.192-12.931-26.822-23.319-43.050-30.567s-33.73-11.212-51.497-11.661h-3.902zM331.447 619.052h-0.583c-5.103 0.027-10.16-0.967-14.872-2.926s-8.987-4.84-12.568-8.476c-3.581-3.636-6.396-7.952-8.283-12.694s-2.807-9.813-2.702-14.915c0.103-4.965 1.196-9.859 3.214-14.397s4.922-8.628 8.539-12.032c3.471-3.596 7.689-6.385 12.357-8.171s9.67-2.526 14.655-2.166c4.99 0.106 9.911 1.205 14.473 3.23s8.675 4.938 12.101 8.568c3.426 3.63 6.096 7.904 7.854 12.576s2.569 9.648 2.387 14.635v0.731c-0.153 9.611-4.067 18.78-10.905 25.536s-16.054 10.56-25.667 10.597z" />
<glyph unicode="&#xe94a;" glyph-name="075" d="M987.229 570.882c0 34.67 0 57.539-17.262 76.458-7.168 8.541-16.291 15.222-26.604 19.467-10.308 4.246-21.489 5.931-32.592 4.914-25.6-2.146-41.643-17.944-65.926-41.838l-73.143-71.923c1.473 42.855-4.671 85.632-18.139 126.343-0.78 2.409-1.775 4.741-2.974 6.971-17.237 33.346-44.651 60.333-78.263 77.045-2.204 1.098-4.486 2.027-6.827 2.78-49.879 16.138-102.58 21.653-154.722 16.189h-229.181c-52.138 5.389-104.827-0.124-154.721-16.189-2.355-0.762-4.653-1.691-6.875-2.78-33.602-16.726-61.011-43.709-78.263-77.045-1.214-2.229-2.226-4.562-3.023-6.971-16.428-49.194-22.116-101.34-16.677-152.918v-182.123c-5.428-51.58 0.259-103.726 16.677-152.922 0.806-2.419 1.817-4.769 3.023-7.017 17.254-33.324 44.664-60.289 78.263-77 2.194-1.102 4.478-2.014 6.827-2.731 49.878-16.218 102.605-21.782 154.77-16.33h229.181c52.165-5.403 104.882 0.161 154.77 16.33 2.341 0.741 4.623 1.653 6.827 2.731 33.504 16.759 60.821 43.72 78.019 77 1.2 2.228 2.194 4.559 2.974 6.968 13.468 40.726 19.612 83.519 18.139 126.391l73.143-72.168c16.301-21.358 39.731-36.147 66.024-41.687 1.902 0 3.852-0.249 5.754-0.249 9.938-0.020 19.763 2.072 28.833 6.129 9.070 4.062 17.179 10.001 23.781 17.423 15.974 22.43 22.426 50.269 17.944 77.439l0.244 261.312zM662.377 231.010c-7.266-12.654-17.876-23.064-30.671-30.086-36.528-11.362-75.020-14.999-113.030-10.679-1.765 0.2-3.54 0.297-5.315 0.297h-234.057c-1.776 0-3.55-0.098-5.315-0.297-38.042-4.306-76.564-0.673-113.128 10.679-12.762 7.066-23.364 17.467-30.671 30.086-11.198 35.455-14.836 72.865-10.679 109.817 0.237 1.824 0.35 3.667 0.341 5.51v187.39c0.010 1.842-0.104 3.683-0.341 5.51-4.165 36.932-0.527 74.327 10.679 109.764 7.278 12.646 17.887 23.052 30.671 30.085 36.575 11.296 75.089 14.916 113.128 10.631 1.765-0.196 3.539-0.294 5.315-0.293h234.057c1.775-0.001 3.55 0.097 5.315 0.293 38.020 4.32 76.522 0.717 113.079-10.582 12.785-7.039 23.376-17.465 30.622-30.134 11.284-35.421 14.955-72.825 10.776-109.764-0.239-1.827-0.351-3.668-0.341-5.51v-187.492c-0.010-1.838 0.102-3.682 0.341-5.51 4.179-36.952 0.502-74.372-10.776-109.807zM791.157 439.954l98.597 96.99v-194.022l-98.597 97.031z" />
<glyph unicode="&#xe94b;" glyph-name="076" d="M751.382 273.418c-0.429 0.478-0.887 0.936-1.365 1.365l-646.145 645.95c-4.498 4.657-9.879 8.372-15.828 10.927s-12.347 3.901-18.822 3.957c-6.475 0.056-12.896-1.178-18.888-3.629s-11.437-6.072-16.015-10.65c-4.578-4.578-8.199-10.024-10.651-16.016s-3.686-12.412-3.629-18.887c0.056-6.475 1.401-12.874 3.957-18.823s6.271-11.329 10.928-15.828l72.753-72.802c-26.53-15.914-48.489-38.424-63.742-65.34s-23.279-57.322-23.298-88.259v-347.917c0.052-47.518 18.955-93.077 52.561-126.674s79.168-52.487 126.687-52.526h391.706c25.659-0.102 51.034 5.339 74.391 15.965 23.357 10.62 44.139 26.166 60.923 45.573l177.737-177.737c4.496-4.657 9.879-8.372 15.828-10.928s12.347-3.901 18.822-3.955c6.471-0.059 12.893 1.175 18.885 3.628s11.44 6.071 16.018 10.65c4.579 4.579 8.197 10.025 10.65 16.018s3.686 12.41 3.628 18.885c-0.054 6.476-1.399 12.873-3.955 18.822s-6.271 11.332-10.928 15.828l-222.208 222.403zM591.443 195.984h-391.803c-21.662 0.015-42.435 8.621-57.757 23.932-15.322 15.316-23.943 36.084-23.968 57.744v347.917c0.023 18.475 6.302 36.397 17.813 50.848s27.576 24.577 45.578 28.731l475.722-475.722c-7.563-10.416-17.491-18.881-28.974-24.698-11.479-5.817-24.181-8.816-37.049-8.753zM971.059 662.299c-7.217 8.484-16.335 15.141-26.614 19.429s-21.426 6.085-32.534 5.245c-25.941-1.999-42.179-18.237-66.706-42.765l-72.899-72.899c1.492 43.717-4.779 87.353-18.53 128.878-0.795 2.372-1.755 4.686-2.877 6.924-17.184 33.641-44.607 60.959-78.312 78.019-2.204 1.101-4.486 2.046-6.827 2.828-50.035 16.581-103.039 22.268-155.453 16.677h-114.737c-12.932 0-25.335-5.139-34.48-14.283s-14.282-21.547-14.282-34.479c0-12.933 5.138-25.335 14.282-34.48s21.547-14.282 34.48-14.282h117.419c1.824 0 3.647 0.098 5.461 0.293 38.025 4.387 76.542 0.68 113.030-10.875 12.946-7.277 23.63-17.992 30.866-30.963 11.508-36.481 15.214-74.976 10.874-112.982-0.195-1.798-0.293-3.604-0.293-5.412v-95.817c0.063-12.82 5.198-25.094 14.287-34.134l157.989-157.989c24.381-24.381 40.765-40.765 66.804-42.764 1.804 0 3.56 0 5.315 0 10.001-0.063 19.905 2.028 29.023 6.139 9.123 4.106 17.252 10.128 23.835 17.657 15.97 22.655 22.411 50.668 17.944 78.019v266.874c0 35.060 0 58.173-17.067 77.141zM890.602 351.783l-99.962 99.963 99.962 99.961v-199.924z" />
<glyph unicode="&#xe94c;" glyph-name="077" d="M890.924-31.773c-12.932 0-25.337 5.14-34.48 14.282-9.148 9.148-14.282 21.548-14.282 34.48v145.018c-0.102 25.483-10.303 49.888-28.365 67.862-18.061 17.979-42.506 28.067-67.989 28.053h-483.282c-25.503-0.010-49.959-10.147-67.997-28.175s-28.182-42.481-28.208-67.984v-145.018c0-12.932-5.138-25.332-14.283-34.48-9.145-9.143-21.546-14.282-34.479-14.282s-25.335 5.14-34.479 14.282c-9.145 9.148-14.283 21.548-14.283 34.48v145.018c0.064 51.356 20.497 100.591 56.815 136.899 36.319 36.313 85.557 56.734 136.914 56.783h483.282c51.361-0.039 100.615-20.451 136.943-56.764 36.332-36.313 56.769-85.553 56.837-136.919v-145.018c0-12.932-5.14-25.332-14.282-34.48-9.148-9.143-21.548-14.282-34.48-14.282zM504.291 451.511c-47.872 0.010-94.665 14.214-134.464 40.817s-70.815 64.41-89.128 108.641c-18.313 44.23-23.101 92.898-13.756 139.848s32.402 90.076 66.256 123.924c33.854 33.847 76.985 56.896 123.938 66.231 46.95 9.336 95.619 4.539 139.846-13.783s82.027-49.346 108.622-89.151c26.595-39.804 40.789-86.601 40.789-134.473-0.078-64.181-25.61-125.711-70.997-171.089s-106.925-70.9-171.106-70.965zM504.291 838.144c-28.581-0.010-56.517-8.493-80.277-24.378s-42.279-38.458-53.211-64.866c-10.933-26.407-13.793-55.463-8.214-83.495s19.344-53.78 39.554-73.99c20.21-20.21 45.96-33.974 73.991-39.552s57.088-2.72 83.493 8.213c26.409 10.933 48.981 29.45 64.868 53.21 15.882 23.76 24.366 51.697 24.376 80.278-0.010 38.345-15.248 75.117-42.355 102.236-27.112 27.118-63.878 42.366-102.224 42.392z" />
<glyph unicode="&#xe94d;" glyph-name="078" d="M507.904 403.042h-9.118c-34.971 0.102-69.578 7.090-101.847 20.568s-61.565 33.177-86.22 57.976c-24.655 24.8-44.182 54.213-57.47 86.56s-20.076 66.994-19.973 101.964c0.102 34.97 7.091 69.577 20.568 101.845s33.18 61.566 57.979 86.221c24.8 24.655 54.21 44.183 86.556 57.471s66.995 20.074 101.962 19.972h9.167c70.539-0.447 138.108-28.457 188.275-78.049s78.955-116.833 80.213-187.362v-1.756c-1.356-70.778-30.388-138.207-80.881-187.825-50.493-49.62-118.423-77.472-189.211-77.585zM503.32 500.564h3.023c22.699-0.763 45.319 3.062 66.506 11.245s40.502 20.555 56.798 36.377c16.291 15.822 29.228 34.769 38.029 55.706s13.292 43.435 13.195 66.146c-0.093 22.712-4.774 45.172-13.751 66.034s-22.065 39.7-38.493 55.386c-16.428 15.685-35.85 27.895-57.105 35.899s-43.905 11.639-66.599 10.687h-2.926c-22.697 0.77-45.317-3.047-66.507-11.223s-40.513-20.543-56.812-36.361c-16.299-15.817-29.24-34.76-38.047-55.695s-13.303-43.432-13.214-66.145c0.089-22.712 4.758-45.173 13.729-66.039s22.060-39.707 38.482-55.397c16.423-15.69 35.84-27.905 57.092-35.916s43.905-11.652 66.599-10.705zM890.729-31.866c-12.932 0-25.337 5.135-34.48 14.282-9.148 9.143-14.282 21.543-14.282 34.48 0 141.019-151.552 255.707-337.871 255.707s-337.774-114.688-337.774-255.707c0-12.937-5.138-25.337-14.283-34.48-9.145-9.148-21.546-14.282-34.479-14.282s-25.335 5.135-34.479 14.282c-9.145 9.143-14.283 21.543-14.283 34.48 0 194.755 195.048 353.231 435.298 353.231s435.395-158.476 435.395-353.231c0-12.937-5.14-25.337-14.282-34.48-9.143-9.148-21.548-14.282-34.48-14.282z" />
<glyph unicode="&#xe94e;" glyph-name="079" d="M902.627 9.143c-12.264 0.707-23.757 6.222-31.973 15.355-8.216 9.128-12.498 21.138-11.913 33.407v24.381c0 44.763-17.115 268.19-351.086 268.19s-351.086-223.378-351.086-268.19v-24.381c0-11.639-4.624-22.801-12.854-31.032s-19.393-12.854-31.032-12.854c-11.639 0-22.802 4.623-31.032 12.854s-12.854 19.393-12.854 31.032v24.381c0 37.303 12.288 365.714 438.858 365.714s438.857-328.265 438.857-365.714v-24.381c0.585-12.268-3.696-24.279-11.913-33.407-8.221-9.133-19.71-14.648-31.973-15.355zM507.465 496.762c-38.577 0-76.288 11.439-108.364 32.871s-57.075 51.894-71.838 87.534c-14.763 35.641-18.626 74.858-11.1 112.694s26.102 72.59 53.38 99.868c27.278 27.278 62.032 45.854 99.868 53.38 37.833 7.526 77.053 3.663 112.693-11.099s66.102-39.762 87.537-71.838c21.431-32.076 32.87-69.786 32.87-108.363 0-51.73-20.548-101.341-57.129-137.92-36.576-36.578-86.187-57.128-137.918-57.128zM507.465 808.838c-23.147 0-45.773-6.864-65.018-19.723s-34.245-31.137-43.103-52.521c-8.858-21.384-11.175-44.915-6.66-67.616s15.661-43.554 32.028-59.921c16.367-16.366 37.219-27.512 59.921-32.028 22.7-4.515 46.233-2.198 67.615 6.66 21.387 8.858 39.663 23.857 52.521 43.103s19.724 41.871 19.724 65.018c0 31.038-12.332 60.805-34.28 82.751-21.943 21.947-51.712 34.277-82.749 34.277z" />
<glyph unicode="&#xe94f;" glyph-name="080" d="M890.943-31.729c-12.932 0-25.337 5.14-34.48 14.287-9.143 9.143-14.282 21.543-14.282 34.475 0 110.738-43.886 255.225-251.806 314.47-9.172 2.662-17.725 7.124-25.156 13.122s-13.59 13.419-18.13 21.821c-4.54 8.402-7.363 17.627-8.299 27.131-0.941 9.504 0.020 19.1 2.823 28.233 3.052 10.181 8.343 19.554 15.477 27.432 7.139 7.879 15.945 14.066 25.776 18.109 32.124 13.782 59.904 36.021 80.384 64.348s32.895 61.677 35.913 96.501c3.023 34.824-3.462 69.815-18.764 101.244-15.297 31.429-38.834 58.119-68.101 77.227-29.272 19.107-63.176 29.916-98.104 31.273-34.93 1.358-69.572-6.787-100.236-23.565s-56.202-41.562-73.893-71.709c-17.69-30.148-26.869-64.53-26.56-99.483-0.101-36.795 10.102-72.883 29.459-104.176s47.091-56.539 80.059-72.878c14.3-6.378 26.299-16.988 34.381-30.396s11.86-28.979 10.822-44.603c-1.385-14.029-7.055-27.292-16.241-37.99-9.187-10.693-21.443-18.3-35.104-21.787-161.256-46.377-250.393-158.086-250.393-314.324 0-12.932-5.138-25.332-14.283-34.475-9.145-9.148-21.546-14.287-34.479-14.287s-25.335 5.14-34.479 14.287c-9.145 9.143-14.283 21.543-14.283 34.475-2.437 84.621 21.971 167.843 69.726 237.744 47.755 69.895 116.406 122.89 196.122 151.381-36.888 27.477-66.844 63.198-87.476 104.31s-31.368 86.477-31.354 132.475c-0.337 50.065 12.262 99.369 36.574 143.135s59.515 80.512 102.2 106.678c42.685 26.166 91.404 40.865 141.436 42.673 50.035 1.808 99.689-9.336 144.15-32.352s82.227-57.125 109.636-99.022c27.409-41.897 43.535-90.163 46.811-140.121s-6.402-99.917-28.101-145.036c-21.699-45.119-54.686-83.868-95.759-112.496 79.965-28.292 148.89-81.237 196.832-151.216 47.943-69.973 72.436-153.361 69.944-238.153 0-12.932-5.14-25.332-14.282-34.475-9.148-9.148-21.548-14.287-34.48-14.287z" />
<glyph unicode="&#xe950;" glyph-name="081" d="M494.753 443.29c-67.759 0.497-132.609 27.593-180.584 75.446s-75.235 112.636-75.906 180.393c-0.671 67.758 25.298 133.067 72.315 181.862s111.321 77.168 179.057 79.009h5.118c68.073-0.006 133.394-26.878 181.763-74.776s75.884-112.95 76.554-181.020c0.676-68.069-25.539-133.654-72.95-182.501s-112.184-77.006-180.245-78.363l-5.122-0.051zM496.903 857.651h-1.587c-41.362 0.068-81.055-16.297-110.35-45.497s-45.791-68.84-45.859-110.202c-0.068-41.362 16.298-81.056 45.497-110.351s68.841-45.792 110.203-45.859h3.172c41.342 0.873 80.648 18.115 109.295 47.94 28.641 29.825 44.283 69.795 43.484 111.139v0.511c-0.43 40.535-16.824 79.265-45.624 107.79-28.805 28.525-67.692 44.543-108.23 44.581zM282.419-55.813c-31.713 0.164-62.829 8.658-90.225 24.632s-50.113 38.871-65.872 66.391c-15.76 27.52-24.010 58.701-23.922 90.414s8.511 62.848 24.422 90.281c34.338 54.036 80.024 99.948 133.887 134.554 97.29 62.080 215.256 82.975 327.952 58.086 112.691-24.888 210.888-93.517 272.983-190.797 16.369-27.469 25.165-58.783 25.492-90.752 0.333-31.974-7.818-63.462-23.613-91.259-15.795-27.802-38.676-50.918-66.309-67-27.638-16.077-59.039-24.55-91.013-24.55h-423.782zM702.822 46.587c1.178 0 2.304 0 3.379 0 20.465 0.031 40.11 8.038 54.764 22.323 14.659 14.28 23.168 33.715 23.726 54.17 0.44 14.5-3.103 28.841-10.24 41.472-47.78 73.759-122.793 125.624-208.671 144.282-85.877 18.657-175.649 2.591-249.723-44.698-40.778-26.092-75.415-60.713-101.528-101.478-9.756-17.971-12.118-39.040-6.581-58.726s18.531-36.439 36.225-46.694c12.524-7.475 26.947-11.156 41.522-10.598l417.128-0.051z" />
<glyph unicode="&#xe951;" glyph-name="082" d="M827.546-55.941h-638.564c-35.112-5.13-70.885 2.836-100.506 22.374-10.887 9.508-19.787 21.074-26.185 34.033-6.397 12.964-10.166 27.064-11.090 41.487 1.367 33.265 14.566 64.947 37.222 89.344 47.499 67.231 110.302 122.214 183.228 160.404 72.926 38.185 153.886 58.496 236.204 59.244h0.769c82.431-0.732 163.506-21.084 236.512-59.372 73.006-38.282 135.849-93.399 183.327-160.788 22.221-23.757 35.395-54.564 37.222-87.040-1.244-28.908-13.87-56.146-35.123-75.776-29.947-20.808-66.662-29.496-102.758-24.32zM155.084 46.766c7.936-0.717 21.711-0.717 34.153-0.717h638.564c11.827 0 24.832 0 32.922 0.614-4.28 8.509-9.426 16.558-15.36 24.013-37.468 54.625-87.66 99.328-146.248 130.243s-123.817 47.114-190.060 47.212c-66.244 0.097-131.516-15.918-190.194-46.664s-108.999-75.3-146.625-129.818c-6.758-9.37-13.927-19.251-17.153-24.883zM508.26 400.763c-55.704-1.961-110.721 12.769-157.997 42.296-47.276 29.524-84.653 72.502-107.334 123.417s-29.631 107.446-19.962 162.339c9.669 54.893 35.518 105.647 74.231 145.747s88.522 67.721 143.041 79.317c54.519 11.596 111.263 6.639 162.944-14.235s95.949-56.714 127.119-102.92c31.176-46.206 47.831-100.673 47.831-156.411 1.183-72.828-26.563-143.153-77.153-195.556s-119.895-82.612-192.719-83.994zM508.26 857.465c-35.454 1.988-70.69-6.709-101.147-24.966s-54.735-45.236-69.691-77.443c-14.956-32.207-19.902-68.161-14.2-103.21s21.792-67.581 46.188-93.386c24.395-25.804 55.972-43.694 90.647-51.355s70.846-4.74 103.845 8.386c32.993 13.125 61.292 35.851 81.229 65.236s30.602 64.076 30.602 99.587c1.203 45.677-15.749 89.968-47.14 123.172s-74.66 52.614-120.333 53.98z" />
</font>
</defs>
</svg>
